<svg width="375" height="1015" viewBox="0 0 375 1015" fill="none" xmlns="http://www.w3.org/2000/svg">
<g clip-path="url(#clip0_23_187)">
<rect width="375" height="1015" fill="white"/>
<rect width="375" height="1015" fill="#F4EFED"/>
<path d="M317.667 37H344.333C345.25 37 346 36.25 346 35.3333C346 34.4167 345.25 33.6667 344.333 33.6667H317.667C316.75 33.6667 316 34.4167 316 35.3333C316 36.25 316.75 37 317.667 37ZM317.667 28.6667H344.333C345.25 28.6667 346 27.9167 346 27C346 26.0833 345.25 25.3333 344.333 25.3333H317.667C316.75 25.3333 316 26.0833 316 27C316 27.9167 316.75 28.6667 317.667 28.6667ZM316 18.6667C316 19.5833 316.75 20.3333 317.667 20.3333H344.333C345.25 20.3333 346 19.5833 346 18.6667C346 17.75 345.25 17 344.333 17H317.667C316.75 17 316 17.75 316 18.6667Z" fill="#552600"/>
<rect x="24" y="85" width="327" height="30" fill="#AC2524"/>
<path d="M143.58 106.22C143.06 106.22 142.14 105.66 142.14 105.06C142.14 104.36 142.94 103.54 144.16 102.92C144.2 103.96 144.22 104.86 144.22 105.36C144.22 106.04 143.94 106.22 143.58 106.22ZM146.4 99.1C146.4 98.52 146.4 97.92 146.42 97.32C147.72 97.16 149.08 96.96 150.2 96.7L150.14 94.22C149.1 94.52 147.8 94.78 146.5 94.96C146.52 94.46 146.54 93.98 146.56 93.54C146.6 93.04 146.68 92.18 146.72 91.82H144C144.06 92.18 144.14 93.14 144.14 93.56C144.14 93.9 144.14 94.48 144.12 95.18C143.72 95.2 143.34 95.22 142.98 95.22C142.26 95.22 141.4 95.2 140.24 95.06L140.28 97.46C141.14 97.54 142.14 97.56 143.04 97.56C143.36 97.56 143.72 97.54 144.1 97.52V99.18C144.1 99.64 144.1 100.1 144.12 100.56C141.7 101.62 139.68 103.4 139.68 105.14C139.68 107.24 142.42 108.9 144.36 108.9C145.64 108.9 146.54 108.26 146.54 105.8C146.54 105.12 146.48 103.6 146.44 102.02C147.66 101.68 148.94 101.48 150.16 101.48C151.88 101.48 153.08 102.26 153.08 103.6C153.08 105.04 151.8 105.86 150.2 106.14C149.5 106.26 148.66 106.28 147.76 106.28L148.68 108.82C149.46 108.78 150.36 108.7 151.28 108.5C154.42 107.72 155.64 105.96 155.64 103.62C155.64 100.9 153.24 99.28 150.2 99.28C149.1 99.28 147.74 99.46 146.4 99.8V99.1ZM151.28 95.9C152.52 96.5 155.1 97.96 156.04 98.78L157.24 96.74C156.2 96 153.9 94.7 152.38 93.96L151.28 95.9ZM159.7 97.74C163.36 97.58 168.66 97.32 173.74 97.04C174.26 97.6 174.7 98.12 175.02 98.58L177.12 97.14C175.96 95.58 173.48 93.5 171.42 92.1L169.5 93.34C170.18 93.84 170.9 94.42 171.6 95C169.44 95.06 167.28 95.12 165.32 95.18C166.08 94.04 166.86 92.76 167.52 91.52L164.86 90.94C164.36 92.26 163.54 93.9 162.7 95.24C161.48 95.26 160.38 95.28 159.44 95.3L159.7 97.74ZM172.6 97.68H170.12V100.32H165.84V97.86H163.44V100.32H158.98V102.56H163.32C163.02 104.5 162.02 106.52 158.82 108.04C159.38 108.44 160.26 109.26 160.62 109.8C164.42 107.9 165.5 105.16 165.76 102.56H170.12V109.76H172.6V102.56H177.08V100.32H172.6V97.68ZM193.36 91.66C192.88 93.22 191.96 95.28 191.18 96.66L193.26 97.38C194.12 96.12 195.14 94.22 196.02 92.44L193.36 91.66ZM184.8 96.34C184.36 95.06 183.38 93.22 182.32 91.84L180.16 92.7C181.14 94.1 182.12 96.04 182.5 97.3L184.8 96.34ZM189.32 91.04H186.7V97.96H180.64V100.34H193.14V102.18H181.32V104.48H193.14V106.56H180.18V108.92H193.14V109.74H195.68V97.96H189.32V91.04ZM206.48 94.3C206.82 95.08 207.12 96.08 207.24 96.78H203.42L204.46 96.48C204.26 95.84 203.8 94.94 203.34 94.2C205.04 94.12 206.78 94 208.46 93.84L206.48 94.3ZM201.52 98.84H214.42V101.12H216.74V96.78H213.9C214.36 96.04 214.88 95.22 215.34 94.38L212.8 93.78C212.5 94.68 211.98 95.86 211.5 96.78H208.02L209.5 96.42C209.38 95.7 209 94.64 208.6 93.84C211.26 93.6 213.84 93.28 216 92.88L214.4 90.96C210.76 91.66 204.74 92.14 199.48 92.32C199.7 92.84 199.98 93.74 200.02 94.34C200.98 94.32 202 94.28 203 94.22L201.22 94.72C201.58 95.36 201.96 96.16 202.16 96.78H199.3V101.12H201.52V98.84ZM210.74 102.56C210.02 103.48 209.08 104.24 208.02 104.88C206.82 104.22 205.8 103.46 204.98 102.56H210.74ZM212.72 100.28L212.28 100.38H202.18V102.56H203.12L202.46 102.84C203.34 104.06 204.4 105.12 205.62 105.98C203.64 106.72 201.32 107.18 198.82 107.44C199.32 107.92 199.98 108.98 200.22 109.54C203.04 109.16 205.7 108.5 208 107.4C210.16 108.46 212.74 109.14 215.64 109.5C215.96 108.86 216.6 107.82 217.1 107.28C214.64 107.06 212.4 106.6 210.48 105.92C212.1 104.74 213.42 103.22 214.32 101.26L212.72 100.28ZM223.34 91.16C222.28 94.1 220.46 96.98 218.56 98.8C218.98 99.38 219.7 100.7 219.96 101.28C220.42 100.8 220.9 100.26 221.36 99.68V109.7H223.8V95.96C224.54 94.62 225.16 93.26 225.7 91.92L223.34 91.16ZM237.32 95.36H235.12V91.28H232.64V95.36H225.02V97.76H232.64V106.84C232.64 107.28 232.46 107.44 231.96 107.44C231.5 107.46 229.74 107.46 228.2 107.4C228.56 108.02 228.98 109.08 229.12 109.76C231.32 109.78 232.82 109.74 233.8 109.36C234.76 109 235.12 108.38 235.12 106.84V97.76H237.32V95.36ZM230.78 103.82C230.18 102.62 228.94 100.66 228.04 99.2L225.92 100.18C226.82 101.7 228 103.76 228.5 104.98L230.78 103.82Z" fill="white"/>
<rect y="980" width="375" height="35" fill="#552600"/>
<path d="M30.288 1005.22C31.824 1005.22 33.088 1004.62 34.064 1003.48L32.816 1002.01C32.176 1002.7 31.376 1003.18 30.368 1003.18C28.496 1003.18 27.28 1001.62 27.28 999.048C27.28 996.504 28.624 994.968 30.416 994.968C31.312 994.968 32 995.384 32.592 995.96L33.84 994.456C33.072 993.656 31.872 992.936 30.368 992.936C27.376 992.936 24.864 995.224 24.864 999.128C24.864 1003.08 27.296 1005.22 30.288 1005.22ZM35.9716 1005H43.1396V1003.02H38.3396V993.16H35.9716V1005ZM49.125 1005.22C52.021 1005.22 53.701 1003.61 53.701 999.672V993.16H51.429V999.88C51.429 1002.34 50.533 1003.18 49.125 1003.18C47.733 1003.18 46.885 1002.34 46.885 999.88V993.16H44.517V999.672C44.517 1003.61 46.245 1005.22 49.125 1005.22ZM56.5498 1005H60.7738C63.3818 1005 65.3658 1003.9 65.3658 1001.51C65.3658 999.912 64.4218 999.016 63.1418 998.712V998.632C64.1498 998.28 64.7578 997.16 64.7578 996.072C64.7578 993.864 62.9018 993.16 60.4698 993.16H56.5498V1005ZM58.9178 997.976V994.968H60.3258C61.7498 994.968 62.4538 995.384 62.4538 996.424C62.4538 997.368 61.7978 997.976 60.2938 997.976H58.9178ZM58.9178 1003.18V999.736H60.5658C62.1978 999.736 63.0618 1000.22 63.0618 1001.37C63.0618 1002.6 62.1818 1003.18 60.5658 1003.18H58.9178ZM67.4404 1005H69.8084V999.88H74.2884V1005H76.6404V993.16H74.2884V997.816H69.8084V993.16H67.4404V1005ZM84.2538 1005.22C87.3898 1005.22 89.5498 1002.87 89.5498 999.032C89.5498 995.192 87.3898 992.936 84.2538 992.936C81.1178 992.936 78.9578 995.176 78.9578 999.032C78.9578 1002.87 81.1178 1005.22 84.2538 1005.22ZM84.2538 1003.18C82.4938 1003.18 81.3738 1001.56 81.3738 999.032C81.3738 996.488 82.4938 994.968 84.2538 994.968C86.0138 994.968 87.1337 996.488 87.1337 999.032C87.1337 1001.56 86.0138 1003.18 84.2538 1003.18ZM96.4063 1005.22C99.3023 1005.22 100.982 1003.61 100.982 999.672V993.16H98.7103V999.88C98.7103 1002.34 97.8143 1003.18 96.4063 1003.18C95.0143 1003.18 94.1663 1002.34 94.1663 999.88V993.16H91.7983V999.672C91.7983 1003.61 93.5263 1005.22 96.4063 1005.22ZM107.18 1005.22C109.916 1005.22 111.532 1003.58 111.532 1001.64C111.532 999.928 110.588 999.016 109.148 998.424L107.596 997.768C106.588 997.368 105.74 997.064 105.74 996.216C105.74 995.432 106.411 994.968 107.452 994.968C108.428 994.968 109.212 995.32 109.964 995.944L111.164 994.456C110.204 993.48 108.828 992.936 107.452 992.936C105.052 992.936 103.356 994.424 103.356 996.36C103.356 998.088 104.556 999.048 105.756 999.544L107.34 1000.22C108.396 1000.66 109.116 1000.94 109.116 1001.82C109.116 1002.65 108.46 1003.18 107.228 1003.18C106.188 1003.18 105.068 1002.65 104.22 1001.86L102.86 1003.5C104.012 1004.6 105.596 1005.22 107.18 1005.22ZM113.628 1005H121.068V1003.02H115.996V999.848H120.156V997.864H115.996V995.128H120.892V993.16H113.628V1005Z" fill="white"/>
<path d="M26.432 159.088C26.304 159.696 26.128 160.464 26.128 161.376C26.128 163.552 27.936 164.768 31.568 164.768C33.792 164.768 35.696 164.56 37.072 164.24L37.056 162C35.648 162.384 33.632 162.624 31.488 162.624C29.2 162.624 28.256 161.888 28.256 160.88C28.256 160.352 28.368 159.856 28.512 159.28L26.432 159.088ZM35.28 151.392C35.504 151.712 35.744 152.128 35.968 152.544C34.752 152.656 33.008 152.752 31.488 152.752C29.824 152.752 28.352 152.688 27.184 152.56V154.672C28.464 154.768 29.84 154.848 31.504 154.848C33.008 154.848 34.976 154.736 36.08 154.656V152.752C36.24 153.072 36.4 153.376 36.528 153.632L37.824 153.072C37.52 152.48 36.944 151.472 36.544 150.88L35.28 151.392ZM37.168 150.672C37.616 151.28 38.128 152.208 38.464 152.88L39.728 152.336C39.456 151.776 38.864 150.752 38.432 150.16L37.168 150.672ZM45.632 152.144C44.96 151.584 43.6 150.896 42.576 150.512L41.536 151.936C42.576 152.368 43.904 153.136 44.512 153.696L45.632 152.144ZM44.576 156.336C43.888 155.808 42.496 155.168 41.456 154.816L40.48 156.256C41.536 156.672 42.88 157.376 43.52 157.936L44.576 156.336ZM44.176 158.88C43.232 160.736 42.016 162.72 41.152 163.92L42.768 165.2C43.728 163.648 44.736 161.824 45.584 160.16L44.176 158.88ZM51.344 163.072V160.144H54.576V158.352H51.344V155.728H55.152V153.904H51.472L52.4 152.8C51.584 152.016 49.904 151.008 48.608 150.416L47.344 151.888C48.4 152.416 49.632 153.2 50.464 153.904H45.728V155.728H49.36V158.352H46.304V160.144H49.36V163.072H45.168V164.864H55.488V163.072H51.344ZM66.768 154.832C66.08 156.624 65.168 158.144 64.016 159.392C62.784 158.096 61.84 156.56 61.168 154.832H66.768ZM71.312 154.832V152.976H64.96V150.448H63.024V152.976H56.752V154.832H59.04C59.904 157.168 61.008 159.168 62.448 160.816C60.832 162.048 58.832 162.96 56.464 163.584C56.848 164.048 57.44 164.944 57.664 165.44C60.096 164.672 62.16 163.632 63.904 162.24C65.584 163.664 67.664 164.736 70.24 165.392C70.528 164.848 71.136 163.952 71.6 163.488C69.168 162.944 67.152 162 65.504 160.736C66.976 159.136 68.144 157.184 69.008 154.832H71.312ZM80.576 160.288V158.752C80.672 158.848 80.736 158.928 80.8 158.992C81.056 158.64 81.312 158.256 81.536 157.84C81.824 158.992 82.176 160.048 82.624 160.992C81.92 161.984 80.992 162.784 79.808 163.408C79.44 163.136 78.976 162.848 78.48 162.56C78.88 161.936 79.152 161.184 79.328 160.288H80.576ZM75.984 160.288H77.536C77.392 160.864 77.184 161.344 76.928 161.744C76.464 161.52 76 161.328 75.52 161.136L75.984 160.288ZM84.592 155.088C84.416 156.496 84.128 157.76 83.728 158.848C83.296 157.696 82.976 156.432 82.752 155.088H84.592ZM87.456 155.088V153.328H83.2C83.408 152.48 83.584 151.6 83.712 150.704L81.792 150.448C81.408 153.296 80.64 156.016 79.28 157.648C79.632 157.888 80.208 158.384 80.576 158.752H76.768L77.152 157.984L76.464 157.84H77.488V155.904C78.112 156.4 78.784 156.96 79.136 157.296L80.144 155.984C79.792 155.744 78.656 155.072 77.888 154.64H80.512V153.136H78.992C79.376 152.64 79.872 151.968 80.368 151.28L78.768 150.64C78.512 151.248 78.064 152.096 77.696 152.672L78.752 153.136H77.488V150.448H75.744V153.136H74.4L75.424 152.688C75.296 152.128 74.88 151.312 74.464 150.704L73.088 151.28C73.424 151.856 73.776 152.592 73.92 153.136H72.704V154.64H75.2C74.432 155.472 73.36 156.24 72.384 156.64C72.736 156.976 73.136 157.6 73.344 158.016C74.144 157.568 75.008 156.896 75.744 156.16V157.696L75.392 157.616C75.232 157.968 75.04 158.352 74.848 158.752H72.528V160.288H74.048C73.648 161.056 73.248 161.776 72.896 162.336L74.56 162.848L74.736 162.544C75.04 162.672 75.344 162.816 75.632 162.976C74.88 163.392 73.872 163.664 72.592 163.824C72.896 164.224 73.232 164.864 73.344 165.408C75.056 165.056 76.336 164.592 77.28 163.888C77.936 164.304 78.512 164.72 78.944 165.088L79.664 164.352C79.92 164.736 80.16 165.168 80.272 165.44C81.664 164.736 82.768 163.872 83.648 162.816C84.368 163.856 85.248 164.704 86.336 165.36C86.624 164.832 87.216 164.096 87.648 163.712C86.48 163.104 85.552 162.192 84.816 161.056C85.68 159.44 86.224 157.456 86.56 155.088H87.456ZM97.968 161.696C97.952 160.976 97.92 159.808 97.904 158.928C98.88 158.48 99.776 158.128 100.48 157.856C101.024 157.632 101.856 157.312 102.368 157.184L101.568 155.344C100.992 155.616 100.432 155.888 99.824 156.16C99.168 156.448 98.496 156.72 97.68 157.104C97.328 156.288 96.528 155.872 95.568 155.872C95.04 155.872 94.192 155.984 93.776 156.192C94.112 155.728 94.432 155.152 94.688 154.592C96.384 154.528 98.336 154.4 99.856 154.176L99.872 152.32C98.48 152.576 96.88 152.704 95.392 152.784C95.584 152.144 95.696 151.6 95.776 151.216L93.696 151.04C93.68 151.488 93.568 152.128 93.376 152.848H92.608C91.808 152.848 90.624 152.8 89.824 152.672V154.528C90.688 154.608 91.856 154.64 92.496 154.64H92.688C91.984 156.048 90.864 157.456 89.2 158.992L90.896 160.256C91.44 159.568 91.888 158.992 92.368 158.512C92.976 157.936 93.952 157.424 94.848 157.424C95.28 157.424 95.696 157.568 95.952 157.968C94.144 158.896 92.224 160.176 92.224 162.192C92.224 164.24 94.096 164.832 96.576 164.832C98.064 164.832 100 164.704 101.056 164.576L101.12 162.512C99.728 162.8 97.968 162.976 96.624 162.976C95.072 162.976 94.32 162.736 94.32 161.856C94.32 161.072 94.96 160.448 96.128 159.808C96.112 160.496 96.096 161.232 96.064 161.696H97.968ZM117.04 152.8H114.24V154.352C114.24 155.632 114.608 156 116.048 156H117.76C118.768 156 119.184 155.696 119.344 154.592C118.928 154.512 118.304 154.32 118.016 154.112C117.952 154.656 117.888 154.752 117.568 154.752H116.272C115.872 154.752 115.792 154.688 115.792 154.336V154.016H118.656V150.928H113.936V152.128H117.04V152.8ZM111.792 152.8H108.992V154.352C108.992 155.632 109.392 156 110.8 156H112.48C113.44 156 113.872 155.696 114.032 154.608C113.6 154.528 112.992 154.336 112.72 154.128C112.656 154.656 112.592 154.752 112.272 154.752H111.04C110.624 154.752 110.56 154.688 110.56 154.352V154.016H113.392V150.928H108.768V152.128H111.792V152.8ZM108.272 153.456C107.872 152.656 106.864 151.584 106.032 150.816L104.528 151.776C105.344 152.576 106.304 153.728 106.656 154.512L108.272 153.456ZM112.928 158.352H114.784V159.408H112.928V158.352ZM112.016 160.816H115.744L114.528 161.504C115.584 162.016 116.704 162.752 117.312 163.248L119.248 162.544C118.528 162.032 117.264 161.344 116.16 160.816H119.28V159.408H116.592V158.352H118.784V156.96H116.592V156.112H114.784V156.96H112.928V156.112H111.168V156.96H109.024V158.352H111.168V159.408H108.56V160.816H111.6C110.928 161.328 109.808 161.776 108.768 162.096C109.152 162.352 109.792 162.896 110.112 163.216C109.184 162.992 108.48 162.528 108.048 161.776V156.656H104.64V158.4H106.288V161.936C105.68 162.48 104.976 163.008 104.4 163.424L105.296 165.232C106.064 164.544 106.688 163.92 107.296 163.28C108.256 164.528 109.568 164.992 111.488 165.072C113.488 165.168 117.024 165.136 119.056 165.024C119.136 164.512 119.408 163.68 119.616 163.248C117.376 163.44 113.456 163.488 111.488 163.392C111.008 163.376 110.576 163.328 110.176 163.232C111.264 162.784 112.608 162.048 113.408 161.296L112.016 160.816ZM126.512 157.36L124.608 157.744V155.264H126.544V153.52H124.608V150.464H122.784V153.52H120.688V155.264H122.784V158.096C121.904 158.272 121.104 158.416 120.432 158.512L120.848 160.336C121.44 160.208 122.096 160.08 122.784 159.936V163.296C122.784 163.552 122.704 163.632 122.464 163.648C122.24 163.648 121.472 163.648 120.752 163.616C120.976 164.112 121.232 164.88 121.28 165.36C122.512 165.36 123.312 165.312 123.872 165.024C124.416 164.736 124.608 164.272 124.608 163.312V159.552C125.296 159.408 126 159.248 126.672 159.104L126.512 157.36ZM133.056 153.12V156.448H129.072V153.12H133.056ZM134.976 158.224V151.328H127.184V156.752C127.184 159.088 127.024 162.08 125.072 164.096C125.488 164.336 126.24 165.024 126.56 165.392C128.368 163.552 128.912 160.656 129.04 158.224H130.304C130.944 161.552 132.08 164.112 134.448 165.424C134.72 164.912 135.312 164.144 135.76 163.76C133.808 162.8 132.736 160.704 132.192 158.224H134.976ZM139.408 151.328C139.552 151.952 139.616 152.72 139.616 153.472C139.616 154.832 139.456 158.992 139.456 161.12C139.456 163.824 141.136 164.96 143.728 164.96C147.344 164.96 149.584 162.848 150.608 161.344L149.168 159.568C148.032 161.296 146.368 162.8 143.744 162.8C142.528 162.8 141.568 162.288 141.568 160.688C141.568 158.72 141.68 155.168 141.76 153.472C141.776 152.832 141.856 152.032 141.968 151.36L139.408 151.328ZM152.732 153.024L152.924 155.2C154.764 154.8 158.108 154.448 159.468 154.304C158.412 155.104 157.132 156.896 157.132 159.184C157.132 162.608 160.268 164.4 163.596 164.624L164.332 162.432C161.66 162.288 159.212 161.36 159.212 158.752C159.212 156.88 160.652 154.832 162.556 154.32C163.404 154.128 164.764 154.112 165.612 154.112L165.596 152.064C164.492 152.112 162.748 152.208 161.116 152.336C158.22 152.592 155.596 152.816 154.284 152.944C153.964 152.976 153.356 153.008 152.732 153.024ZM176.887 150.864C176.631 151.232 176.119 151.76 175.671 152.192C174.599 153.248 172.423 155.008 171.191 156.016C169.607 157.328 169.479 158.208 171.047 159.536C172.503 160.768 174.919 162.832 175.783 163.744C176.231 164.224 176.727 164.72 177.175 165.216L179.015 163.52C177.447 162 174.391 159.584 173.207 158.576C172.343 157.84 172.327 157.664 173.175 156.944C174.231 156.032 176.327 154.416 177.351 153.584C177.719 153.296 178.247 152.88 178.743 152.512L176.887 150.864ZM196.519 154.064C196.231 153.472 195.655 152.464 195.255 151.872L193.991 152.4C194.423 153.008 194.919 153.968 195.239 154.624L196.519 154.064ZM191.079 158.112C192.071 158 193.031 157.936 194.135 157.936C195.095 157.936 196.071 158.048 196.855 158.144L196.903 156.224C195.975 156.128 195.015 156.096 194.119 156.096C193.095 156.096 191.959 156.16 191.079 156.256V158.112ZM192.327 153.04C191.463 153.248 190.567 153.424 189.671 153.552L189.799 152.96C189.879 152.608 190.023 151.904 190.135 151.456L187.719 151.264C187.751 151.648 187.735 152.288 187.655 152.88C187.623 153.12 187.575 153.44 187.511 153.776C187.031 153.808 186.567 153.824 186.103 153.824C185.447 153.824 184.919 153.808 184.103 153.712L184.151 155.68C184.711 155.712 185.303 155.744 186.071 155.744C186.391 155.744 186.743 155.728 187.111 155.712C187.015 156.16 186.887 156.608 186.775 157.04C186.183 159.264 184.983 162.576 184.039 164.176L186.263 164.912C187.127 163.04 188.199 159.808 188.775 157.584C188.951 156.928 189.111 156.224 189.255 155.552C190.311 155.424 191.383 155.248 192.327 155.024V153.04ZM190.103 160.064C189.975 160.672 189.831 161.44 189.831 162.176C189.831 163.776 191.191 164.704 193.863 164.704C195.127 164.704 196.199 164.592 197.095 164.48L197.175 162.448C196.039 162.64 194.935 162.768 193.879 162.768C192.183 162.768 191.783 162.24 191.783 161.552C191.783 161.2 191.879 160.688 192.007 160.224L190.103 160.064ZM195.879 151.664C196.327 152.272 196.839 153.2 197.175 153.872L198.439 153.328C198.167 152.768 197.575 151.76 197.143 151.152L195.879 151.664ZM202.071 158.8C201.815 159.712 201.623 160.704 201.623 161.408C201.623 163.616 203.335 164.816 206.519 164.816C208.583 164.816 209.911 164.592 210.791 164.432L210.839 162.336C209.671 162.576 208.727 162.8 206.519 162.8C204.279 162.8 203.687 162.016 203.687 160.864C203.687 160.4 203.927 159.488 204.119 158.976L202.071 158.8ZM212.407 152.576C211.399 152.912 210.407 153.168 209.303 153.376C208.951 152.544 208.647 151.792 208.375 150.96L206.135 151.392C206.471 151.952 206.631 152.272 206.919 152.912C207.015 153.152 207.127 153.408 207.255 153.664C205.575 153.824 203.607 153.792 201.335 153.504L201.399 155.536C203.911 155.744 206.135 155.744 208.071 155.536C208.535 156.528 209.079 157.632 209.463 158.432C208.983 158.4 208.119 158.304 207.591 158.256L207.415 159.888C208.583 160.032 210.151 160.288 211.015 160.464L212.135 159.264C211.447 158 210.695 156.496 210.087 155.216C211.047 155.024 211.975 154.8 212.775 154.576L212.407 152.576ZM219.223 152.608L216.791 152.576C216.887 153.056 216.903 153.728 216.903 154.176C216.903 155.152 216.935 156.992 217.079 158.448C217.527 162.704 219.047 164.272 220.775 164.272C222.055 164.272 223.047 163.296 224.103 160.544L222.503 158.624C222.199 159.872 221.575 161.728 220.823 161.728C219.831 161.728 219.351 160.176 219.127 157.888C219.031 156.752 219.015 155.552 219.031 154.528C219.031 154.096 219.111 153.168 219.223 152.608ZM227.143 152.944L225.127 153.616C226.855 155.568 227.703 159.296 227.943 161.84L230.039 161.04C229.863 158.608 228.647 154.784 227.143 152.944ZM234.119 160.032C232.711 160.032 231.543 161.2 231.543 162.624C231.543 164.048 232.711 165.216 234.119 165.216C235.559 165.216 236.711 164.048 236.711 162.624C236.711 161.2 235.559 160.032 234.119 160.032ZM234.119 164.048C233.351 164.048 232.695 163.424 232.695 162.624C232.695 161.824 233.351 161.184 234.119 161.184C234.919 161.184 235.559 161.824 235.559 162.624C235.559 163.424 234.919 164.048 234.119 164.048Z" fill="black"/>
<rect x="24.25" y="179.25" width="87.5" height="45.5" rx="7.75" fill="white" stroke="#AFAFAF" stroke-width="0.5"/>
<path d="M37.84 195.688C37.04 198.104 35.76 200.504 34.336 202.056C34.544 202.344 34.864 203 34.96 203.256C35.504 202.648 36.016 201.928 36.512 201.144V210.232H37.648V199.096C38.144 198.104 38.576 197.048 38.928 195.992L37.84 195.688ZM45.52 205.992H42.816V203.512H45.52V205.992ZM47.088 200.856V199.944H44.624V198.136H43.648V199.944H41.248V200.856H43.648V202.616H41.904V206.872H46.464V202.616H44.624V200.856H47.088ZM40.592 208.2V197.624H47.632V208.2H40.592ZM39.488 196.584V210.2H40.592V209.256H47.632V210.072H48.768V196.584H39.488Z" fill="#72777A"/>
<path d="M96 200L94.59 198.59L90 203.17L85.41 198.59L84 200L90 206L96 200Z" fill="black"/>
<path d="M28.464 277.576C28.048 277.576 27.312 277.128 27.312 276.648C27.312 276.088 27.952 275.432 28.928 274.936C28.96 275.768 28.976 276.488 28.976 276.888C28.976 277.432 28.752 277.576 28.464 277.576ZM30.72 271.88C30.72 271.416 30.72 270.936 30.736 270.456C31.776 270.328 32.864 270.168 33.76 269.96L33.712 267.976C32.88 268.216 31.84 268.424 30.8 268.568C30.816 268.168 30.832 267.784 30.848 267.432C30.88 267.032 30.944 266.344 30.976 266.056H28.8C28.848 266.344 28.912 267.112 28.912 267.448C28.912 267.72 28.912 268.184 28.896 268.744C28.576 268.76 28.272 268.776 27.984 268.776C27.408 268.776 26.72 268.76 25.792 268.648L25.824 270.568C26.512 270.632 27.312 270.648 28.032 270.648C28.288 270.648 28.576 270.632 28.88 270.616V271.944C28.88 272.312 28.88 272.68 28.896 273.048C26.96 273.896 25.344 275.32 25.344 276.712C25.344 278.392 27.536 279.72 29.088 279.72C30.112 279.72 30.832 279.208 30.832 277.24C30.832 276.696 30.784 275.48 30.752 274.216C31.728 273.944 32.752 273.784 33.728 273.784C35.104 273.784 36.064 274.408 36.064 275.48C36.064 276.632 35.04 277.288 33.76 277.512C33.2 277.608 32.528 277.624 31.808 277.624L32.544 279.656C33.168 279.624 33.888 279.56 34.624 279.4C37.136 278.776 38.112 277.368 38.112 275.496C38.112 273.32 36.192 272.024 33.76 272.024C32.88 272.024 31.792 272.168 30.72 272.44V271.88ZM34.624 269.32C35.616 269.8 37.68 270.968 38.432 271.624L39.392 269.992C38.56 269.4 36.72 268.36 35.504 267.768L34.624 269.32ZM46.784 268.04C47.056 268.664 47.296 269.464 47.392 270.024H44.336L45.168 269.784C45.008 269.272 44.64 268.552 44.272 267.96C45.632 267.896 47.024 267.8 48.368 267.672L46.784 268.04ZM42.816 271.672H53.136V273.496H54.992V270.024H52.72C53.088 269.432 53.504 268.776 53.872 268.104L51.84 267.624C51.6 268.344 51.184 269.288 50.8 270.024H48.016L49.2 269.736C49.104 269.16 48.8 268.312 48.48 267.672C50.608 267.48 52.672 267.224 54.4 266.904L53.12 265.368C50.208 265.928 45.392 266.312 41.184 266.456C41.36 266.872 41.584 267.592 41.616 268.072C42.384 268.056 43.2 268.024 44 267.976L42.576 268.376C42.864 268.888 43.168 269.528 43.328 270.024H41.04V273.496H42.816V271.672ZM50.192 274.648C49.616 275.384 48.864 275.992 48.016 276.504C47.056 275.976 46.24 275.368 45.584 274.648H50.192ZM51.776 272.824L51.424 272.904H43.344V274.648H44.096L43.568 274.872C44.272 275.848 45.12 276.696 46.096 277.384C44.512 277.976 42.656 278.344 40.656 278.552C41.056 278.936 41.584 279.784 41.776 280.232C44.032 279.928 46.16 279.4 48 278.52C49.728 279.368 51.792 279.912 54.112 280.2C54.368 279.688 54.88 278.856 55.28 278.424C53.312 278.248 51.52 277.88 49.984 277.336C51.28 276.392 52.336 275.176 53.056 273.608L51.776 272.824ZM58.176 266.36C58.176 266.76 58.16 267.288 58.08 267.736C57.872 269.016 57.552 271.464 57.552 274.056C57.552 276.024 58.128 278.232 58.464 279.192L60.24 279.016C60.224 278.792 60.208 278.52 60.192 278.36C60.192 278.184 60.24 277.832 60.304 277.592C60.496 276.696 60.912 275.096 61.376 273.72L60.368 273.096C60.112 273.672 59.84 274.44 59.632 274.92C59.216 272.952 59.776 269.64 60.16 267.88C60.224 267.544 60.4 266.984 60.528 266.6L58.176 266.36ZM70.704 269.144C70.048 269.272 69.216 269.368 68.32 269.432C68.32 268.568 68.32 267.752 68.336 267.4C68.352 267.048 68.352 266.68 68.416 266.328H66.096C66.176 266.6 66.24 267.08 66.272 267.416C66.304 267.848 66.336 268.664 66.352 269.544C65.744 269.56 65.136 269.576 64.56 269.576C63.712 269.576 62.944 269.528 62.16 269.416V271.432C62.944 271.464 63.92 271.512 64.608 271.512C65.184 271.512 65.792 271.496 66.384 271.48V272.056C66.384 274.728 66.128 276.136 64.912 277.4C64.464 277.896 63.664 278.392 63.056 278.664L64.896 280.104C68.048 278.088 68.336 275.8 68.336 272.056V271.4C69.232 271.352 70.048 271.288 70.688 271.208L70.704 269.144ZM79.744 268.104H80.304V269.352H85.024C84.752 271.144 84.272 272.744 83.648 274.12C82.976 272.712 82.496 271.096 82.176 269.384L80.352 269.752C80.848 272.168 81.536 274.312 82.512 276.088C81.728 277.176 80.8 278.04 79.744 278.632V268.104ZM75.632 274.632H77.904V276.072C77.136 276.168 76.368 276.28 75.632 276.376V274.632ZM75.632 271.336H77.904V272.936H75.632V271.336ZM77.904 268.104V269.624H75.632V268.104H77.904ZM85.872 267.432L85.552 267.48H80.768V266.344H72.736V268.104H73.824V276.6C73.28 276.664 72.784 276.712 72.352 276.76L72.72 278.664C74.192 278.44 76.064 278.152 77.904 277.832V280.392H79.744V278.888C80.128 279.272 80.56 279.864 80.8 280.28C81.888 279.624 82.832 278.824 83.648 277.832C84.416 278.808 85.312 279.624 86.4 280.28C86.688 279.784 87.28 279.064 87.712 278.712C86.56 278.088 85.6 277.192 84.816 276.12C86.016 273.976 86.784 271.224 87.12 267.736L85.872 267.432ZM91.632 266.104C91.616 266.552 91.584 267.192 91.504 267.768C91.264 269.4 91.056 271.368 91.056 272.84C91.056 273.896 91.168 274.872 91.248 275.48L93.216 275.352C93.12 274.616 93.12 274.104 93.136 273.672C93.216 271.592 94.848 268.776 96.72 268.776C98.032 268.776 98.848 270.136 98.848 272.584C98.848 276.424 96.384 277.576 92.864 278.12L94.064 279.96C98.256 279.192 101.008 277.048 101.008 272.568C101.008 269.08 99.296 266.92 97.088 266.92C95.296 266.92 93.92 268.264 93.168 269.48C93.264 268.6 93.584 266.984 93.808 266.2L91.632 266.104ZM108.448 277.24V273.656H115.552V277.24H108.448ZM115.552 268.328V271.768H108.448V268.328H115.552ZM106.48 266.408V280.2H108.448V279.16H115.552V280.168H117.6V266.408H106.48ZM124.272 268.12V270.936H122.8V268.12H124.272ZM122.8 275.608V272.6H124.272V275.608H122.8ZM126.048 266.424H121.04V278.712H122.8V277.304H126.048V266.424ZM126.992 275.96C127.712 276.776 128.528 277.912 128.816 278.648L130.448 277.704C130.112 276.92 129.248 275.864 128.512 275.08L126.992 275.96ZM135.456 271.864V270.2H131.808V268.792H135.008V267.128H131.808V265.448H129.936V267.128H126.864V268.792H129.936V270.2H126.32V271.864H131.968V273.24H126.352V274.888H131.968V278.328C131.968 278.552 131.888 278.616 131.632 278.616C131.392 278.616 130.496 278.616 129.728 278.584C129.984 279.096 130.272 279.848 130.336 280.376C131.52 280.376 132.384 280.328 133.008 280.056C133.632 279.768 133.808 279.288 133.808 278.376V274.888H135.344V273.24H133.808V271.864H135.456ZM145.968 276.696C145.952 275.976 145.92 274.808 145.904 273.928C146.88 273.48 147.776 273.128 148.48 272.856C149.024 272.632 149.856 272.312 150.368 272.184L149.568 270.344C148.992 270.616 148.432 270.888 147.824 271.16C147.168 271.448 146.496 271.72 145.68 272.104C145.328 271.288 144.528 270.872 143.568 270.872C143.04 270.872 142.192 270.984 141.776 271.192C142.112 270.728 142.432 270.152 142.688 269.592C144.384 269.528 146.336 269.4 147.856 269.176L147.872 267.32C146.48 267.576 144.88 267.704 143.392 267.784C143.584 267.144 143.696 266.6 143.776 266.216L141.696 266.04C141.68 266.488 141.568 267.128 141.376 267.848H140.608C139.808 267.848 138.624 267.8 137.824 267.672V269.528C138.688 269.608 139.856 269.64 140.496 269.64H140.688C139.984 271.048 138.864 272.456 137.2 273.992L138.896 275.256C139.44 274.568 139.888 273.992 140.368 273.512C140.976 272.936 141.952 272.424 142.848 272.424C143.28 272.424 143.696 272.568 143.952 272.968C142.144 273.896 140.224 275.176 140.224 277.192C140.224 279.24 142.096 279.832 144.576 279.832C146.064 279.832 148 279.704 149.056 279.576L149.12 277.512C147.728 277.8 145.968 277.976 144.624 277.976C143.072 277.976 142.32 277.736 142.32 276.856C142.32 276.072 142.96 275.448 144.128 274.808C144.112 275.496 144.096 276.232 144.064 276.696H145.968ZM165.04 267.8H162.24V269.352C162.24 270.632 162.608 271 164.048 271H165.76C166.768 271 167.184 270.696 167.344 269.592C166.928 269.512 166.304 269.32 166.016 269.112C165.952 269.656 165.888 269.752 165.568 269.752H164.272C163.872 269.752 163.792 269.688 163.792 269.336V269.016H166.656V265.928H161.936V267.128H165.04V267.8ZM159.792 267.8H156.992V269.352C156.992 270.632 157.392 271 158.8 271H160.48C161.44 271 161.872 270.696 162.032 269.608C161.6 269.528 160.992 269.336 160.72 269.128C160.656 269.656 160.592 269.752 160.272 269.752H159.04C158.624 269.752 158.56 269.688 158.56 269.352V269.016H161.392V265.928H156.768V267.128H159.792V267.8ZM156.272 268.456C155.872 267.656 154.864 266.584 154.032 265.816L152.528 266.776C153.344 267.576 154.304 268.728 154.656 269.512L156.272 268.456ZM160.928 273.352H162.784V274.408H160.928V273.352ZM160.016 275.816H163.744L162.528 276.504C163.584 277.016 164.704 277.752 165.312 278.248L167.248 277.544C166.528 277.032 165.264 276.344 164.16 275.816H167.28V274.408H164.592V273.352H166.784V271.96H164.592V271.112H162.784V271.96H160.928V271.112H159.168V271.96H157.024V273.352H159.168V274.408H156.56V275.816H159.6C158.928 276.328 157.808 276.776 156.768 277.096C157.152 277.352 157.792 277.896 158.112 278.216C157.184 277.992 156.48 277.528 156.048 276.776V271.656H152.64V273.4H154.288V276.936C153.68 277.48 152.976 278.008 152.4 278.424L153.296 280.232C154.064 279.544 154.688 278.92 155.296 278.28C156.256 279.528 157.568 279.992 159.488 280.072C161.488 280.168 165.024 280.136 167.056 280.024C167.136 279.512 167.408 278.68 167.616 278.248C165.376 278.44 161.456 278.488 159.488 278.392C159.008 278.376 158.576 278.328 158.176 278.232C159.264 277.784 160.608 277.048 161.408 276.296L160.016 275.816ZM174.512 272.36L172.608 272.744V270.264H174.544V268.52H172.608V265.464H170.784V268.52H168.688V270.264H170.784V273.096C169.904 273.272 169.104 273.416 168.432 273.512L168.848 275.336C169.44 275.208 170.096 275.08 170.784 274.936V278.296C170.784 278.552 170.704 278.632 170.464 278.648C170.24 278.648 169.472 278.648 168.752 278.616C168.976 279.112 169.232 279.88 169.28 280.36C170.512 280.36 171.312 280.312 171.872 280.024C172.416 279.736 172.608 279.272 172.608 278.312V274.552C173.296 274.408 174 274.248 174.672 274.104L174.512 272.36ZM181.056 268.12V271.448H177.072V268.12H181.056ZM182.976 273.224V266.328H175.184V271.752C175.184 274.088 175.024 277.08 173.072 279.096C173.488 279.336 174.24 280.024 174.56 280.392C176.368 278.552 176.912 275.656 177.04 273.224H178.304C178.944 276.552 180.08 279.112 182.448 280.424C182.72 279.912 183.312 279.144 183.76 278.76C181.808 277.8 180.736 275.704 180.192 273.224H182.976ZM187.408 266.328C187.552 266.952 187.616 267.72 187.616 268.472C187.616 269.832 187.456 273.992 187.456 276.12C187.456 278.824 189.136 279.96 191.728 279.96C195.344 279.96 197.584 277.848 198.608 276.344L197.168 274.568C196.032 276.296 194.368 277.8 191.744 277.8C190.528 277.8 189.568 277.288 189.568 275.688C189.568 273.72 189.68 270.168 189.76 268.472C189.776 267.832 189.856 267.032 189.968 266.36L187.408 266.328ZM200.732 268.024L200.924 270.2C202.764 269.8 206.108 269.448 207.468 269.304C206.412 270.104 205.132 271.896 205.132 274.184C205.132 277.608 208.268 279.4 211.596 279.624L212.332 277.432C209.66 277.288 207.212 276.36 207.212 273.752C207.212 271.88 208.652 269.832 210.556 269.32C211.404 269.128 212.764 269.112 213.612 269.112L213.596 267.064C212.492 267.112 210.748 267.208 209.116 267.336C206.22 267.592 203.596 267.816 202.284 267.944C201.964 267.976 201.356 268.008 200.732 268.024ZM224.887 265.864C224.631 266.232 224.119 266.76 223.671 267.192C222.599 268.248 220.423 270.008 219.191 271.016C217.607 272.328 217.479 273.208 219.047 274.536C220.503 275.768 222.919 277.832 223.783 278.744C224.231 279.224 224.727 279.72 225.175 280.216L227.015 278.52C225.447 277 222.391 274.584 221.207 273.576C220.343 272.84 220.327 272.664 221.175 271.944C222.231 271.032 224.327 269.416 225.351 268.584C225.719 268.296 226.247 267.88 226.743 267.512L224.887 265.864ZM244.519 269.064C244.231 268.472 243.655 267.464 243.255 266.872L241.991 267.4C242.423 268.008 242.919 268.968 243.239 269.624L244.519 269.064ZM239.079 273.112C240.071 273 241.031 272.936 242.135 272.936C243.095 272.936 244.071 273.048 244.855 273.144L244.903 271.224C243.975 271.128 243.015 271.096 242.119 271.096C241.095 271.096 239.959 271.16 239.079 271.256V273.112ZM240.327 268.04C239.463 268.248 238.567 268.424 237.671 268.552L237.799 267.96C237.879 267.608 238.023 266.904 238.135 266.456L235.719 266.264C235.751 266.648 235.735 267.288 235.655 267.88C235.623 268.12 235.575 268.44 235.511 268.776C235.031 268.808 234.567 268.824 234.103 268.824C233.447 268.824 232.919 268.808 232.103 268.712L232.151 270.68C232.711 270.712 233.303 270.744 234.071 270.744C234.391 270.744 234.743 270.728 235.111 270.712C235.015 271.16 234.887 271.608 234.775 272.04C234.183 274.264 232.983 277.576 232.039 279.176L234.263 279.912C235.127 278.04 236.199 274.808 236.775 272.584C236.951 271.928 237.111 271.224 237.255 270.552C238.311 270.424 239.383 270.248 240.327 270.024V268.04ZM238.103 275.064C237.975 275.672 237.831 276.44 237.831 277.176C237.831 278.776 239.191 279.704 241.863 279.704C243.127 279.704 244.199 279.592 245.095 279.48L245.175 277.448C244.039 277.64 242.935 277.768 241.879 277.768C240.183 277.768 239.783 277.24 239.783 276.552C239.783 276.2 239.879 275.688 240.007 275.224L238.103 275.064ZM243.879 266.664C244.327 267.272 244.839 268.2 245.175 268.872L246.439 268.328C246.167 267.768 245.575 266.76 245.143 266.152L243.879 266.664ZM250.071 273.8C249.815 274.712 249.623 275.704 249.623 276.408C249.623 278.616 251.335 279.816 254.519 279.816C256.583 279.816 257.911 279.592 258.791 279.432L258.839 277.336C257.671 277.576 256.727 277.8 254.519 277.8C252.279 277.8 251.687 277.016 251.687 275.864C251.687 275.4 251.927 274.488 252.119 273.976L250.071 273.8ZM260.407 267.576C259.399 267.912 258.407 268.168 257.303 268.376C256.951 267.544 256.647 266.792 256.375 265.96L254.135 266.392C254.471 266.952 254.631 267.272 254.919 267.912C255.015 268.152 255.127 268.408 255.255 268.664C253.575 268.824 251.607 268.792 249.335 268.504L249.399 270.536C251.911 270.744 254.135 270.744 256.071 270.536C256.535 271.528 257.079 272.632 257.463 273.432C256.983 273.4 256.119 273.304 255.591 273.256L255.415 274.888C256.583 275.032 258.151 275.288 259.015 275.464L260.135 274.264C259.447 273 258.695 271.496 258.087 270.216C259.047 270.024 259.975 269.8 260.775 269.576L260.407 267.576ZM267.223 267.608L264.791 267.576C264.887 268.056 264.903 268.728 264.903 269.176C264.903 270.152 264.935 271.992 265.079 273.448C265.527 277.704 267.047 279.272 268.775 279.272C270.055 279.272 271.047 278.296 272.103 275.544L270.503 273.624C270.199 274.872 269.575 276.728 268.823 276.728C267.831 276.728 267.351 275.176 267.127 272.888C267.031 271.752 267.015 270.552 267.031 269.528C267.031 269.096 267.111 268.168 267.223 267.608ZM275.143 267.944L273.127 268.616C274.855 270.568 275.703 274.296 275.943 276.84L278.039 276.04C277.863 273.608 276.647 269.784 275.143 267.944ZM282.119 275.032C280.711 275.032 279.543 276.2 279.543 277.624C279.543 279.048 280.711 280.216 282.119 280.216C283.559 280.216 284.711 279.048 284.711 277.624C284.711 276.2 283.559 275.032 282.119 275.032ZM282.119 279.048C281.351 279.048 280.695 278.424 280.695 277.624C280.695 276.824 281.351 276.184 282.119 276.184C282.919 276.184 283.559 276.824 283.559 277.624C283.559 278.424 282.919 279.048 282.119 279.048Z" fill="black"/>
<rect x="311.25" y="404.25" width="39.5" height="34.5" fill="white" stroke="#AFAFAF" stroke-width="0.5"/>
<rect x="24.25" y="404.25" width="46.5" height="34.5" fill="white" stroke="#AFAFAF" stroke-width="0.5"/>
<rect x="71.25" y="404.25" width="39.5" height="34.5" fill="white" stroke="#AFAFAF" stroke-width="0.5"/>
<rect x="111.25" y="404.25" width="39.5" height="34.5" fill="white" stroke="#AFAFAF" stroke-width="0.5"/>
<rect x="151.25" y="404.25" width="39.5" height="34.5" fill="white" stroke="#AFAFAF" stroke-width="0.5"/>
<rect x="191.25" y="404.25" width="39.5" height="34.5" fill="white" stroke="#AFAFAF" stroke-width="0.5"/>
<rect x="231.25" y="404.25" width="39.5" height="34.5" fill="white" stroke="#AFAFAF" stroke-width="0.5"/>
<rect x="271.25" y="404.25" width="39.5" height="34.5" fill="white" stroke="#AFAFAF" stroke-width="0.5"/>
<path d="M81.232 427H86.86V425.936H84.802V416.738H83.822C83.262 417.06 82.604 417.298 81.694 417.466V418.278H83.514V425.936H81.232V427ZM87.9196 429.506H88.8576L93.0436 415.898H92.1196L87.9196 429.506ZM97.154 427.182C99.086 427.182 100.374 426.02 100.374 424.522C100.374 423.122 99.534 422.352 98.638 421.834V421.764C99.254 421.288 100.01 420.364 100.01 419.286C100.01 417.704 98.946 416.584 97.196 416.584C95.586 416.584 94.382 417.62 94.382 419.188C94.382 420.266 95.012 421.036 95.768 421.554V421.624C94.83 422.128 93.878 423.08 93.878 424.452C93.878 426.034 95.264 427.182 97.154 427.182ZM97.854 421.428C96.65 420.952 95.544 420.42 95.544 419.188C95.544 418.194 96.23 417.522 97.168 417.522C98.274 417.522 98.918 418.348 98.918 419.356C98.918 420.112 98.554 420.812 97.854 421.428ZM97.182 426.23C95.95 426.23 95.04 425.432 95.04 424.34C95.04 423.36 95.614 422.548 96.44 422.016C97.896 422.604 99.156 423.122 99.156 424.494C99.156 425.516 98.358 426.23 97.182 426.23Z" fill="black"/>
<path d="M121.232 427H126.86V425.936H124.802V416.738H123.822C123.262 417.06 122.604 417.298 121.694 417.466V418.278H123.514V425.936H121.232V427ZM127.92 429.506H128.858L133.044 415.898H132.12L127.92 429.506ZM136.902 422.156C135.684 422.156 135.068 421.26 135.068 419.874C135.068 418.474 135.824 417.55 136.804 417.55C138.12 417.55 138.904 418.67 139.044 420.784C138.358 421.764 137.588 422.156 136.902 422.156ZM134.06 426.132C134.634 426.734 135.418 427.182 136.524 427.182C138.456 427.182 140.248 425.586 140.248 421.428C140.248 418.166 138.778 416.542 136.804 416.542C135.208 416.542 133.864 417.886 133.864 419.874C133.864 422.002 134.984 423.108 136.692 423.108C137.56 423.108 138.442 422.604 139.058 421.834C138.96 425.026 137.812 426.118 136.482 426.118C135.824 426.118 135.194 425.824 134.76 425.334L134.06 426.132Z" fill="black"/>
<path d="M158.232 427H163.86V425.936H161.802V416.738H160.822C160.262 417.06 159.604 417.298 158.694 417.466V418.278H160.514V425.936H158.232V427ZM164.92 429.506H165.858L170.044 415.898H169.12L164.92 429.506ZM171.48 427H177.108V425.936H175.05V416.738H174.07C173.51 417.06 172.852 417.298 171.942 417.466V418.278H173.762V425.936H171.48V427ZM181.906 427.182C183.852 427.182 185.098 425.404 185.098 421.834C185.098 418.278 183.852 416.542 181.906 416.542C179.946 416.542 178.7 418.264 178.7 421.834C178.7 425.404 179.946 427.182 181.906 427.182ZM181.906 426.16C180.73 426.16 179.946 424.858 179.946 421.834C179.946 418.838 180.73 417.578 181.906 417.578C183.068 417.578 183.852 418.838 183.852 421.834C183.852 424.858 183.068 426.16 181.906 426.16Z" fill="black"/>
<path d="M198.232 427H203.86V425.936H201.802V416.738H200.822C200.262 417.06 199.604 417.298 198.694 417.466V418.278H200.514V425.936H198.232V427ZM204.92 429.506H205.858L210.044 415.898H209.12L204.92 429.506ZM211.48 427H217.108V425.936H215.05V416.738H214.07C213.51 417.06 212.852 417.298 211.942 417.466V418.278H213.762V425.936H211.48V427ZM219.246 427H224.874V425.936H222.816V416.738H221.836C221.276 417.06 220.618 417.298 219.708 417.466V418.278H221.528V425.936H219.246V427Z" fill="black"/>
<path d="M238.232 427H243.86V425.936H241.802V416.738H240.822C240.262 417.06 239.604 417.298 238.694 417.466V418.278H240.514V425.936H238.232V427ZM244.92 429.506H245.858L250.044 415.898H249.12L244.92 429.506ZM251.48 427H257.108V425.936H255.05V416.738H254.07C253.51 417.06 252.852 417.298 251.942 417.466V418.278H253.762V425.936H251.48V427ZM258.63 427H265.084V425.894H262.242C261.724 425.894 261.094 425.95 260.562 425.992C262.97 423.71 264.58 421.624 264.58 419.58C264.58 417.746 263.432 416.542 261.598 416.542C260.296 416.542 259.414 417.144 258.574 418.054L259.316 418.782C259.876 418.11 260.604 417.592 261.444 417.592C262.718 417.592 263.334 418.446 263.334 419.622C263.334 421.386 261.85 423.43 258.63 426.244V427Z" fill="black"/>
<path d="M278.232 427H283.86V425.936H281.802V416.738H280.822C280.262 417.06 279.604 417.298 278.694 417.466V418.278H280.514V425.936H278.232V427ZM284.92 429.506H285.858L290.044 415.898H289.12L284.92 429.506ZM291.48 427H297.108V425.936H295.05V416.738H294.07C293.51 417.06 292.852 417.298 291.942 417.466V418.278H293.762V425.936H291.48V427ZM301.71 427.182C303.53 427.182 305 426.09 305 424.256C305 422.856 304.034 421.932 302.816 421.652V421.596C303.908 421.19 304.65 420.364 304.65 419.118C304.65 417.466 303.39 416.542 301.668 416.542C300.478 416.542 299.568 417.06 298.798 417.774L299.484 418.586C300.058 418.012 300.786 417.592 301.612 417.564C302.676 417.592 303.348 418.222 303.348 419.216C303.348 420.322 302.62 421.176 300.506 421.176V422.156C302.872 422.156 303.698 422.982 303.698 424.214C303.698 425.39 302.83 426.118 301.612 426.118C300.45 426.118 299.666 425.572 299.064 424.942L298.42 425.782C299.092 426.51 300.1 427.182 301.71 427.182Z" fill="black"/>
<path d="M318.232 427H323.86V425.936H321.802V416.738H320.822C320.262 417.06 319.604 417.298 318.694 417.466V418.278H320.514V425.936H318.232V427ZM324.92 429.506H325.858L330.044 415.898H329.12L324.92 429.506ZM331.48 427H337.108V425.936H335.05V416.738H334.07C333.51 417.06 332.852 417.298 331.942 417.466V418.278H333.762V425.936H331.48V427ZM339.624 423.15L341.962 419.65C342.256 419.146 342.536 418.642 342.788 418.138H342.844C342.816 418.67 342.76 419.496 342.76 420V423.15H339.624ZM345.336 423.15H343.978V416.738H342.564L338.294 423.332V424.172H342.76V427H343.978V424.172H345.336V423.15Z" fill="black"/>
<path d="M88.57 389.978V386.072H95.514V389.978H88.57ZM95.514 381.27V385.05H88.57V381.27H95.514ZM87.52 380.248V391.91H88.57V391H95.514V391.854H96.606V380.248H87.52Z" fill="#AC2524"/>
<path d="M128.822 386.716C128.934 385.89 128.976 385.092 128.976 384.364H135.374V386.716H128.822ZM135.374 381.046V383.37H128.976V381.046H135.374ZM136.452 380.024H127.926V384.308C127.926 386.534 127.702 389.376 125.476 391.336C125.686 391.49 126.106 391.868 126.246 392.092C127.604 390.902 128.304 389.32 128.654 387.738H135.374V390.538C135.374 390.846 135.262 390.944 134.94 390.958C134.618 390.958 133.498 390.972 132.322 390.93C132.504 391.224 132.7 391.714 132.77 392.008C134.268 392.008 135.192 391.994 135.724 391.812C136.242 391.644 136.452 391.28 136.452 390.552V380.024Z" fill="black"/>
<path d="M172.49 379.492H171.384V383.986C171.384 385.61 170.418 389.432 165.728 391.224C165.966 391.434 166.302 391.868 166.442 392.078C170.39 390.454 171.664 387.36 171.93 386.002C172.21 387.346 173.568 390.552 177.614 392.078C177.768 391.798 178.076 391.35 178.3 391.126C173.484 389.418 172.49 385.582 172.49 383.986V379.492ZM176.578 382.082C176.116 383.3 175.234 384.98 174.548 386.002L175.416 386.408C176.13 385.414 177.026 383.832 177.698 382.53L176.578 382.082ZM167.856 382.11C167.632 383.664 167.156 385.176 166.036 386.016L166.932 386.632C168.178 385.68 168.64 383.986 168.892 382.32L167.856 382.11Z" fill="black"/>
<path d="M210.054 382.81L209.844 382.852H205.812V383.888H209.452C208.78 386.674 207.296 388.76 205.476 389.894C205.714 390.062 206.134 390.468 206.302 390.72C208.346 389.334 210.04 386.744 210.74 383.076L210.054 382.81ZM217.054 381.55C216.228 382.642 214.856 384.042 213.736 385.022C213.246 384.028 212.854 382.964 212.56 381.858V379.324H211.482V390.594C211.482 390.874 211.384 390.958 211.104 390.972C210.824 390.972 209.928 390.986 208.92 390.944C209.088 391.252 209.298 391.77 209.34 392.078C210.628 392.078 211.44 392.05 211.902 391.868C212.364 391.672 212.56 391.336 212.56 390.594V384.588C213.666 387.458 215.346 389.81 217.768 391C217.936 390.692 218.3 390.272 218.552 390.062C216.704 389.264 215.248 387.738 214.17 385.848C215.374 384.91 216.886 383.44 217.992 382.222L217.054 381.55Z" fill="black"/>
<path d="M258.034 383.748V382.726H252.532V379.296H251.454V382.726H245.98V383.748H250.964C249.732 386.17 247.59 388.55 245.448 389.712C245.686 389.922 246.036 390.314 246.232 390.594C248.206 389.39 250.124 387.234 251.454 384.854V392.078H252.532V384.84C253.89 387.164 255.822 389.348 257.726 390.552C257.908 390.258 258.272 389.866 258.524 389.656C256.424 388.494 254.24 386.114 252.98 383.748H258.034Z" fill="black"/>
<path d="M288.668 383.524C290.04 382.488 291.216 381.326 291.944 380.276C292.756 381.368 294.016 382.53 295.388 383.524H288.668ZM292.476 387.234H297.278V386.324H292.476V384.448H295.472V383.58C296.242 384.14 297.04 384.644 297.81 385.036C297.978 384.728 298.23 384.378 298.482 384.112C296.312 383.146 293.89 381.27 292.406 379.268H291.37C290.278 381.018 287.982 383.076 285.574 384.294C285.798 384.504 286.092 384.868 286.204 385.106C287.002 384.686 287.786 384.182 288.514 383.65V384.448H291.398V386.324H286.708V387.234H291.398V390.692H286.078V391.616H297.95V390.692H292.476V387.234ZM287.87 387.934C288.416 388.732 288.962 389.81 289.144 390.51L290.04 390.104C289.844 389.418 289.284 388.382 288.71 387.612L287.87 387.934ZM294.408 390.51C294.94 389.852 295.598 388.844 296.116 387.962L295.136 387.584C294.786 388.368 294.142 389.474 293.638 390.16L294.408 390.51Z" fill="black"/>
<path d="M332.518 390.44V384.798H337.348V383.776H332.518V379.338H331.426V383.776H326.666V384.798H331.426V390.44H325.784V391.462H338.244V390.44H332.518Z" fill="#163FCF"/>
<rect x="151.25" y="807.25" width="39.5" height="45.5" fill="white" stroke="#AFAFAF" stroke-width="0.5"/>
<circle cx="171" cy="830" r="8" fill="white" stroke="#AC2524" stroke-width="2"/>
<rect x="191.25" y="807.25" width="39.5" height="45.5" fill="white" stroke="#AFAFAF" stroke-width="0.5"/>
<circle cx="211" cy="830" r="8" fill="white" stroke="#AC2524" stroke-width="2"/>
<rect x="231.25" y="807.25" width="39.5" height="45.5" fill="white" stroke="#AFAFAF" stroke-width="0.5"/>
<circle cx="251" cy="830" r="8" fill="white" stroke="#AC2524" stroke-width="2"/>
<rect x="271.25" y="807.25" width="39.5" height="45.5" fill="white" stroke="#AFAFAF" stroke-width="0.5"/>
<circle cx="291" cy="830" r="8" fill="white" stroke="#AC2524" stroke-width="2"/>
<rect x="311.25" y="807.25" width="39.5" height="45.5" fill="white" stroke="#AFAFAF" stroke-width="0.5"/>
<circle cx="331" cy="830" r="8" fill="white" stroke="#AC2524" stroke-width="2"/>
<rect x="111.25" y="807.25" width="39.5" height="45.5" fill="#555555" stroke="#AFAFAF" stroke-width="0.5"/>
<rect x="71.25" y="807.25" width="39.5" height="45.5" fill="white" stroke="#AFAFAF" stroke-width="0.5"/>
<circle cx="91" cy="830" r="8" fill="white" stroke="#AC2524" stroke-width="2"/>
<rect x="24.25" y="807.25" width="46.5" height="45.5" fill="white" stroke="#AFAFAF" stroke-width="0.5"/>
<path d="M31.232 836H36.86V834.936H34.802V825.738H33.822C33.262 826.06 32.604 826.298 31.694 826.466V827.278H33.514V834.936H31.232V836ZM39.3756 832.15L41.7136 828.65C42.0076 828.146 42.2876 827.642 42.5396 827.138H42.5956C42.5676 827.67 42.5116 828.496 42.5116 829V832.15H39.3756ZM45.0876 832.15H43.7296V825.738H42.3156L38.0456 832.332V833.172H42.5116V836H43.7296V833.172H45.0876V832.15ZM47.4773 830.54C47.9813 830.54 48.4013 830.134 48.4013 829.574C48.4013 828.986 47.9813 828.58 47.4773 828.58C46.9733 828.58 46.5533 828.986 46.5533 829.574C46.5533 830.134 46.9733 830.54 47.4773 830.54ZM47.4773 836.182C47.9813 836.182 48.4013 835.79 48.4013 835.216C48.4013 834.642 47.9813 834.222 47.4773 834.222C46.9733 834.222 46.5533 834.642 46.5533 835.216C46.5533 835.79 46.9733 836.182 47.4773 836.182ZM53.3197 836.182C55.2657 836.182 56.5117 834.404 56.5117 830.834C56.5117 827.278 55.2657 825.542 53.3197 825.542C51.3597 825.542 50.1137 827.264 50.1137 830.834C50.1137 834.404 51.3597 836.182 53.3197 836.182ZM53.3197 835.16C52.1437 835.16 51.3597 833.858 51.3597 830.834C51.3597 827.838 52.1437 826.578 53.3197 826.578C54.4817 826.578 55.2657 827.838 55.2657 830.834C55.2657 833.858 54.4817 835.16 53.3197 835.16ZM61.0854 836.182C63.0314 836.182 64.2774 834.404 64.2774 830.834C64.2774 827.278 63.0314 825.542 61.0854 825.542C59.1254 825.542 57.8794 827.264 57.8794 830.834C57.8794 834.404 59.1254 836.182 61.0854 836.182ZM61.0854 835.16C59.9094 835.16 59.1254 833.858 59.1254 830.834C59.1254 827.838 59.9094 826.578 61.0854 826.578C62.2474 826.578 63.0314 827.838 63.0314 830.834C63.0314 833.858 62.2474 835.16 61.0854 835.16Z" fill="black"/>
<rect x="24.25" y="485.25" width="46.5" height="45.5" fill="white" stroke="#AFAFAF" stroke-width="0.5"/>
<path d="M31.232 514H36.86V512.936H34.802V503.738H33.822C33.262 504.06 32.604 504.298 31.694 504.466V505.278H33.514V512.936H31.232V514ZM38.3816 514H44.8356V512.894H41.9936C41.4756 512.894 40.8456 512.95 40.3136 512.992C42.7216 510.71 44.3316 508.624 44.3316 506.58C44.3316 504.746 43.1836 503.542 41.3496 503.542C40.0476 503.542 39.1656 504.144 38.3256 505.054L39.0676 505.782C39.6276 505.11 40.3556 504.592 41.1956 504.592C42.4696 504.592 43.0856 505.446 43.0856 506.622C43.0856 508.386 41.6016 510.43 38.3816 513.244V514ZM47.4773 508.54C47.9813 508.54 48.4013 508.134 48.4013 507.574C48.4013 506.986 47.9813 506.58 47.4773 506.58C46.9733 506.58 46.5533 506.986 46.5533 507.574C46.5533 508.134 46.9733 508.54 47.4773 508.54ZM47.4773 514.182C47.9813 514.182 48.4013 513.79 48.4013 513.216C48.4013 512.642 47.9813 512.222 47.4773 512.222C46.9733 512.222 46.5533 512.642 46.5533 513.216C46.5533 513.79 46.9733 514.182 47.4773 514.182ZM50.6597 514H56.2877V512.936H54.2297V503.738H53.2497C52.6897 504.06 52.0317 504.298 51.1217 504.466V505.278H52.9417V512.936H50.6597V514ZM60.8474 514.182C62.5834 514.182 64.2074 512.908 64.2074 510.654C64.2074 508.4 62.8214 507.392 61.1134 507.392C60.4974 507.392 60.0354 507.546 59.5874 507.798L59.8394 504.83H63.7174V503.738H58.7194L58.3974 508.54L59.0834 508.96C59.6714 508.568 60.1054 508.358 60.7914 508.358C62.0794 508.358 62.9194 509.226 62.9194 510.696C62.9194 512.194 61.9394 513.118 60.7354 513.118C59.5454 513.118 58.8034 512.572 58.2154 511.984L57.5854 512.824C58.2714 513.51 59.2514 514.182 60.8474 514.182Z" fill="black"/>
<rect x="271.25" y="485.25" width="39.5" height="45.5" fill="white" stroke="#AFAFAF" stroke-width="0.5"/>
<circle cx="291" cy="508" r="8" fill="white" stroke="#AC2524" stroke-width="2"/>
<rect x="191.25" y="485.25" width="39.5" height="45.5" fill="white" stroke="#AFAFAF" stroke-width="0.5"/>
<circle cx="211" cy="508" r="8" fill="white" stroke="#AC2524" stroke-width="2"/>
<rect x="231.25" y="485.25" width="39.5" height="45.5" fill="white" stroke="#AFAFAF" stroke-width="0.5"/>
<circle cx="251" cy="508" r="8" fill="white" stroke="#AC2524" stroke-width="2"/>
<rect x="311.25" y="485.25" width="39.5" height="45.5" fill="white" stroke="#AFAFAF" stroke-width="0.5"/>
<circle cx="331" cy="508" r="8" fill="white" stroke="#AC2524" stroke-width="2"/>
<rect x="151.25" y="485.25" width="39.5" height="45.5" fill="white" stroke="#AFAFAF" stroke-width="0.5"/>
<circle cx="171" cy="508" r="8" fill="white" stroke="#AC2524" stroke-width="2"/>
<rect x="71.25" y="485.25" width="39.5" height="45.5" fill="white" stroke="#AFAFAF" stroke-width="0.5"/>
<line x1="85" y1="507.5" x2="97" y2="507.5" stroke="black"/>
<rect x="111.25" y="485.25" width="39.5" height="45.5" fill="#555555" stroke="#AFAFAF" stroke-width="0.5"/>
<rect x="111.25" y="899.25" width="39.5" height="45.5" fill="#555555" stroke="#AFAFAF" stroke-width="0.5"/>
<rect x="151.25" y="899.25" width="39.5" height="45.5" fill="white" stroke="#AFAFAF" stroke-width="0.5"/>
<circle cx="171" cy="922" r="8" fill="white" stroke="#AC2524" stroke-width="2"/>
<rect x="191.25" y="899.25" width="39.5" height="45.5" fill="white" stroke="#AFAFAF" stroke-width="0.5"/>
<circle cx="211" cy="922" r="8" fill="white" stroke="#AC2524" stroke-width="2"/>
<rect x="231.25" y="899.25" width="39.5" height="45.5" fill="white" stroke="#AFAFAF" stroke-width="0.5"/>
<circle cx="251" cy="922" r="8" fill="white" stroke="#AC2524" stroke-width="2"/>
<rect x="311.25" y="899.25" width="39.5" height="45.5" fill="white" stroke="#AFAFAF" stroke-width="0.5"/>
<circle cx="331" cy="922" r="8" fill="white" stroke="#AC2524" stroke-width="2"/>
<rect x="24.25" y="899.25" width="46.5" height="45.5" fill="white" stroke="#AFAFAF" stroke-width="0.5"/>
<path d="M31.232 928H36.86V926.936H34.802V917.738H33.822C33.262 918.06 32.604 918.298 31.694 918.466V919.278H33.514V926.936H31.232V928ZM39.3756 924.15L41.7136 920.65C42.0076 920.146 42.2876 919.642 42.5396 919.138H42.5956C42.5676 919.67 42.5116 920.496 42.5116 921V924.15H39.3756ZM45.0876 924.15H43.7296V917.738H42.3156L38.0456 924.332V925.172H42.5116V928H43.7296V925.172H45.0876V924.15ZM47.4773 922.54C47.9813 922.54 48.4013 922.134 48.4013 921.574C48.4013 920.986 47.9813 920.58 47.4773 920.58C46.9733 920.58 46.5533 920.986 46.5533 921.574C46.5533 922.134 46.9733 922.54 47.4773 922.54ZM47.4773 928.182C47.9813 928.182 48.4013 927.79 48.4013 927.216C48.4013 926.642 47.9813 926.222 47.4773 926.222C46.9733 926.222 46.5533 926.642 46.5533 927.216C46.5533 927.79 46.9733 928.182 47.4773 928.182ZM53.1237 928.182C54.9437 928.182 56.4137 927.09 56.4137 925.256C56.4137 923.856 55.4477 922.932 54.2297 922.652V922.596C55.3217 922.19 56.0637 921.364 56.0637 920.118C56.0637 918.466 54.8037 917.542 53.0817 917.542C51.8917 917.542 50.9817 918.06 50.2117 918.774L50.8977 919.586C51.4717 919.012 52.1997 918.592 53.0257 918.564C54.0897 918.592 54.7617 919.222 54.7617 920.216C54.7617 921.322 54.0337 922.176 51.9197 922.176V923.156C54.2857 923.156 55.1117 923.982 55.1117 925.214C55.1117 926.39 54.2437 927.118 53.0257 927.118C51.8637 927.118 51.0797 926.572 50.4777 925.942L49.8337 926.782C50.5057 927.51 51.5137 928.182 53.1237 928.182ZM61.0854 928.182C63.0314 928.182 64.2774 926.404 64.2774 922.834C64.2774 919.278 63.0314 917.542 61.0854 917.542C59.1254 917.542 57.8794 919.264 57.8794 922.834C57.8794 926.404 59.1254 928.182 61.0854 928.182ZM61.0854 927.16C59.9094 927.16 59.1254 925.858 59.1254 922.834C59.1254 919.838 59.9094 918.578 61.0854 918.578C62.2474 918.578 63.0314 919.838 63.0314 922.834C63.0314 925.858 62.2474 927.16 61.0854 927.16Z" fill="black"/>
<rect x="271.25" y="899.25" width="39.5" height="45.5" fill="white" stroke="#AFAFAF" stroke-width="0.5"/>
<circle cx="291" cy="922" r="8" fill="white" stroke="#AC2524" stroke-width="2"/>
<rect x="71.25" y="899.25" width="39.5" height="45.5" fill="white" stroke="#AFAFAF" stroke-width="0.5"/>
<circle cx="91" cy="922" r="8" fill="white" stroke="#AC2524" stroke-width="2"/>
<rect x="271.25" y="577.25" width="39.5" height="45.5" fill="white" stroke="#AFAFAF" stroke-width="0.5"/>
<circle cx="291" cy="600" r="8" fill="white" stroke="#AC2524" stroke-width="2"/>
<rect x="311.25" y="577.25" width="39.5" height="45.5" fill="white" stroke="#AFAFAF" stroke-width="0.5"/>
<circle cx="331" cy="600" r="8" fill="white" stroke="#AC2524" stroke-width="2"/>
<rect x="151.25" y="577.25" width="39.5" height="45.5" fill="white" stroke="#AFAFAF" stroke-width="0.5"/>
<line x1="165" y1="599.5" x2="177" y2="599.5" stroke="black"/>
<rect x="191.25" y="577.25" width="39.5" height="45.5" fill="white" stroke="#AFAFAF" stroke-width="0.5"/>
<line x1="205" y1="599.5" x2="217" y2="599.5" stroke="black"/>
<rect x="111.25" y="577.25" width="39.5" height="45.5" fill="#555555" stroke="#AFAFAF" stroke-width="0.5"/>
<rect x="231.25" y="577.25" width="39.5" height="45.5" fill="white" stroke="#AFAFAF" stroke-width="0.5"/>
<line x1="245" y1="599.5" x2="257" y2="599.5" stroke="black"/>
<rect x="24.25" y="577.25" width="46.5" height="45.5" fill="white" stroke="#AFAFAF" stroke-width="0.5"/>
<path d="M31.232 606H36.86V604.936H34.802V595.738H33.822C33.262 596.06 32.604 596.298 31.694 596.466V597.278H33.514V604.936H31.232V606ZM38.3816 606H44.8356V604.894H41.9936C41.4756 604.894 40.8456 604.95 40.3136 604.992C42.7216 602.71 44.3316 600.624 44.3316 598.58C44.3316 596.746 43.1836 595.542 41.3496 595.542C40.0476 595.542 39.1656 596.144 38.3256 597.054L39.0676 597.782C39.6276 597.11 40.3556 596.592 41.1956 596.592C42.4696 596.592 43.0856 597.446 43.0856 598.622C43.0856 600.386 41.6016 602.43 38.3816 605.244V606ZM47.4773 600.54C47.9813 600.54 48.4013 600.134 48.4013 599.574C48.4013 598.986 47.9813 598.58 47.4773 598.58C46.9733 598.58 46.5533 598.986 46.5533 599.574C46.5533 600.134 46.9733 600.54 47.4773 600.54ZM47.4773 606.182C47.9813 606.182 48.4013 605.79 48.4013 605.216C48.4013 604.642 47.9813 604.222 47.4773 604.222C46.9733 604.222 46.5533 604.642 46.5533 605.216C46.5533 605.79 46.9733 606.182 47.4773 606.182ZM51.0377 602.15L53.3757 598.65C53.6697 598.146 53.9497 597.642 54.2017 597.138H54.2577C54.2297 597.67 54.1737 598.496 54.1737 599V602.15H51.0377ZM56.7497 602.15H55.3917V595.738H53.9777L49.7077 602.332V603.172H54.1737V606H55.3917V603.172H56.7497V602.15ZM60.8474 606.182C62.5834 606.182 64.2074 604.908 64.2074 602.654C64.2074 600.4 62.8214 599.392 61.1134 599.392C60.4974 599.392 60.0354 599.546 59.5874 599.798L59.8394 596.83H63.7174V595.738H58.7194L58.3974 600.54L59.0834 600.96C59.6714 600.568 60.1054 600.358 60.7914 600.358C62.0794 600.358 62.9194 601.226 62.9194 602.696C62.9194 604.194 61.9394 605.118 60.7354 605.118C59.5454 605.118 58.8034 604.572 58.2154 603.984L57.5854 604.824C58.2714 605.51 59.2514 606.182 60.8474 606.182Z" fill="black"/>
<rect x="71.25" y="577.25" width="39.5" height="45.5" fill="white" stroke="#AFAFAF" stroke-width="0.5"/>
<line x1="85" y1="599.5" x2="97" y2="599.5" stroke="black"/>
<rect x="151.25" y="531.25" width="39.5" height="45.5" fill="white" stroke="#AFAFAF" stroke-width="0.5"/>
<circle cx="171" cy="554" r="8" fill="white" stroke="#AC2524" stroke-width="2"/>
<rect x="271.25" y="531.25" width="39.5" height="45.5" fill="white" stroke="#AFAFAF" stroke-width="0.5"/>
<circle cx="291" cy="554" r="8" fill="white" stroke="#AC2524" stroke-width="2"/>
<rect x="191.25" y="531.25" width="39.5" height="45.5" fill="white" stroke="#AFAFAF" stroke-width="0.5"/>
<circle cx="211" cy="554" r="8" fill="white" stroke="#AC2524" stroke-width="2"/>
<rect x="311.25" y="531.25" width="39.5" height="45.5" fill="white" stroke="#AFAFAF" stroke-width="0.5"/>
<circle cx="331" cy="554" r="8" fill="white" stroke="#AC2524" stroke-width="2"/>
<rect x="231.25" y="531.25" width="39.5" height="45.5" fill="white" stroke="#AFAFAF" stroke-width="0.5"/>
<line x1="245" y1="553.5" x2="257" y2="553.5" stroke="black"/>
<rect x="24.25" y="531.25" width="46.5" height="45.5" fill="white" stroke="#AFAFAF" stroke-width="0.5"/>
<path d="M31.232 560H36.86V558.936H34.802V549.738H33.822C33.262 550.06 32.604 550.298 31.694 550.466V551.278H33.514V558.936H31.232V560ZM38.3816 560H44.8356V558.894H41.9936C41.4756 558.894 40.8456 558.95 40.3136 558.992C42.7216 556.71 44.3316 554.624 44.3316 552.58C44.3316 550.746 43.1836 549.542 41.3496 549.542C40.0476 549.542 39.1656 550.144 38.3256 551.054L39.0676 551.782C39.6276 551.11 40.3556 550.592 41.1956 550.592C42.4696 550.592 43.0856 551.446 43.0856 552.622C43.0856 554.386 41.6016 556.43 38.3816 559.244V560ZM47.4773 554.54C47.9813 554.54 48.4013 554.134 48.4013 553.574C48.4013 552.986 47.9813 552.58 47.4773 552.58C46.9733 552.58 46.5533 552.986 46.5533 553.574C46.5533 554.134 46.9733 554.54 47.4773 554.54ZM47.4773 560.182C47.9813 560.182 48.4013 559.79 48.4013 559.216C48.4013 558.642 47.9813 558.222 47.4773 558.222C46.9733 558.222 46.5533 558.642 46.5533 559.216C46.5533 559.79 46.9733 560.182 47.4773 560.182ZM53.1237 560.182C54.9437 560.182 56.4137 559.09 56.4137 557.256C56.4137 555.856 55.4477 554.932 54.2297 554.652V554.596C55.3217 554.19 56.0637 553.364 56.0637 552.118C56.0637 550.466 54.8037 549.542 53.0817 549.542C51.8917 549.542 50.9817 550.06 50.2117 550.774L50.8977 551.586C51.4717 551.012 52.1997 550.592 53.0257 550.564C54.0897 550.592 54.7617 551.222 54.7617 552.216C54.7617 553.322 54.0337 554.176 51.9197 554.176V555.156C54.2857 555.156 55.1117 555.982 55.1117 557.214C55.1117 558.39 54.2437 559.118 53.0257 559.118C51.8637 559.118 51.0797 558.572 50.4777 557.942L49.8337 558.782C50.5057 559.51 51.5137 560.182 53.1237 560.182ZM61.0854 560.182C63.0314 560.182 64.2774 558.404 64.2774 554.834C64.2774 551.278 63.0314 549.542 61.0854 549.542C59.1254 549.542 57.8794 551.264 57.8794 554.834C57.8794 558.404 59.1254 560.182 61.0854 560.182ZM61.0854 559.16C59.9094 559.16 59.1254 557.858 59.1254 554.834C59.1254 551.838 59.9094 550.578 61.0854 550.578C62.2474 550.578 63.0314 551.838 63.0314 554.834C63.0314 557.858 62.2474 559.16 61.0854 559.16Z" fill="black"/>
<rect x="71.25" y="531.25" width="39.5" height="45.5" fill="white" stroke="#AFAFAF" stroke-width="0.5"/>
<line x1="85" y1="553.5" x2="97" y2="553.5" stroke="black"/>
<rect x="111.25" y="531.25" width="39.5" height="45.5" fill="#555555" stroke="#AFAFAF" stroke-width="0.5"/>
<rect x="24.25" y="439.25" width="46.5" height="45.5" fill="white" stroke="#AFAFAF" stroke-width="0.5"/>
<path d="M31.232 468H36.86V466.936H34.802V457.738H33.822C33.262 458.06 32.604 458.298 31.694 458.466V459.278H33.514V466.936H31.232V468ZM38.3816 468H44.8356V466.894H41.9936C41.4756 466.894 40.8456 466.95 40.3136 466.992C42.7216 464.71 44.3316 462.624 44.3316 460.58C44.3316 458.746 43.1836 457.542 41.3496 457.542C40.0476 457.542 39.1656 458.144 38.3256 459.054L39.0676 459.782C39.6276 459.11 40.3556 458.592 41.1956 458.592C42.4696 458.592 43.0856 459.446 43.0856 460.622C43.0856 462.386 41.6016 464.43 38.3816 467.244V468ZM47.4773 462.54C47.9813 462.54 48.4013 462.134 48.4013 461.574C48.4013 460.986 47.9813 460.58 47.4773 460.58C46.9733 460.58 46.5533 460.986 46.5533 461.574C46.5533 462.134 46.9733 462.54 47.4773 462.54ZM47.4773 468.182C47.9813 468.182 48.4013 467.79 48.4013 467.216C48.4013 466.642 47.9813 466.222 47.4773 466.222C46.9733 466.222 46.5533 466.642 46.5533 467.216C46.5533 467.79 46.9733 468.182 47.4773 468.182ZM53.3197 468.182C55.2657 468.182 56.5117 466.404 56.5117 462.834C56.5117 459.278 55.2657 457.542 53.3197 457.542C51.3597 457.542 50.1137 459.264 50.1137 462.834C50.1137 466.404 51.3597 468.182 53.3197 468.182ZM53.3197 467.16C52.1437 467.16 51.3597 465.858 51.3597 462.834C51.3597 459.838 52.1437 458.578 53.3197 458.578C54.4817 458.578 55.2657 459.838 55.2657 462.834C55.2657 465.858 54.4817 467.16 53.3197 467.16ZM61.0854 468.182C63.0314 468.182 64.2774 466.404 64.2774 462.834C64.2774 459.278 63.0314 457.542 61.0854 457.542C59.1254 457.542 57.8794 459.264 57.8794 462.834C57.8794 466.404 59.1254 468.182 61.0854 468.182ZM61.0854 467.16C59.9094 467.16 59.1254 465.858 59.1254 462.834C59.1254 459.838 59.9094 458.578 61.0854 458.578C62.2474 458.578 63.0314 459.838 63.0314 462.834C63.0314 465.858 62.2474 467.16 61.0854 467.16Z" fill="black"/>
<rect x="151.25" y="439.25" width="39.5" height="45.5" fill="white" stroke="#AFAFAF" stroke-width="0.5"/>
<circle cx="171" cy="462" r="8" fill="white" stroke="#AC2524" stroke-width="2"/>
<rect x="111.25" y="439.25" width="39.5" height="45.5" fill="#555555" stroke="#AFAFAF" stroke-width="0.5"/>
<rect x="271.25" y="439.25" width="39.5" height="45.5" fill="white" stroke="#AFAFAF" stroke-width="0.5"/>
<line x1="285" y1="461.5" x2="297" y2="461.5" stroke="black"/>
<rect x="191.25" y="439.25" width="39.5" height="45.5" fill="white" stroke="#AFAFAF" stroke-width="0.5"/>
<circle cx="211" cy="462" r="8" fill="white" stroke="#AC2524" stroke-width="2"/>
<rect x="231.25" y="439.25" width="39.5" height="45.5" fill="white" stroke="#AFAFAF" stroke-width="0.5"/>
<circle cx="251" cy="462" r="8" fill="white" stroke="#AC2524" stroke-width="2"/>
<rect x="71.25" y="439.25" width="39.5" height="45.5" fill="white" stroke="#AFAFAF" stroke-width="0.5"/>
<path d="M91 454.5L82.75 468.75H99.25M91 457.5L96.6475 467.25H85.3525" fill="#CD6709"/>
<rect x="311.25" y="439.25" width="39.5" height="45.5" fill="white" stroke="#AFAFAF" stroke-width="0.5"/>
<path d="M331 454.5L322.75 468.75H339.25M331 457.5L336.648 467.25H325.352" fill="#CD6709"/>
<rect x="231.25" y="669.25" width="39.5" height="45.5" fill="white" stroke="#AFAFAF" stroke-width="0.5"/>
<circle cx="251" cy="692" r="8" fill="white" stroke="#AC2524" stroke-width="2"/>
<rect x="271.25" y="669.25" width="39.5" height="45.5" fill="white" stroke="#AFAFAF" stroke-width="0.5"/>
<circle cx="291" cy="692" r="8" fill="white" stroke="#AC2524" stroke-width="2"/>
<rect x="311.25" y="669.25" width="39.5" height="45.5" fill="white" stroke="#AFAFAF" stroke-width="0.5"/>
<circle cx="331" cy="692" r="8" fill="white" stroke="#AC2524" stroke-width="2"/>
<rect x="24.25" y="669.25" width="46.5" height="45.5" fill="white" stroke="#AFAFAF" stroke-width="0.5"/>
<path d="M31.232 698H36.86V696.936H34.802V687.738H33.822C33.262 688.06 32.604 688.298 31.694 688.466V689.278H33.514V696.936H31.232V698ZM41.4616 698.182C43.2816 698.182 44.7516 697.09 44.7516 695.256C44.7516 693.856 43.7856 692.932 42.5676 692.652V692.596C43.6596 692.19 44.4016 691.364 44.4016 690.118C44.4016 688.466 43.1416 687.542 41.4196 687.542C40.2296 687.542 39.3196 688.06 38.5496 688.774L39.2356 689.586C39.8096 689.012 40.5376 688.592 41.3636 688.564C42.4276 688.592 43.0996 689.222 43.0996 690.216C43.0996 691.322 42.3716 692.176 40.2576 692.176V693.156C42.6236 693.156 43.4496 693.982 43.4496 695.214C43.4496 696.39 42.5816 697.118 41.3636 697.118C40.2016 697.118 39.4176 696.572 38.8156 695.942L38.1716 696.782C38.8436 697.51 39.8516 698.182 41.4616 698.182ZM47.4773 692.54C47.9813 692.54 48.4013 692.134 48.4013 691.574C48.4013 690.986 47.9813 690.58 47.4773 690.58C46.9733 690.58 46.5533 690.986 46.5533 691.574C46.5533 692.134 46.9733 692.54 47.4773 692.54ZM47.4773 698.182C47.9813 698.182 48.4013 697.79 48.4013 697.216C48.4013 696.642 47.9813 696.222 47.4773 696.222C46.9733 696.222 46.5533 696.642 46.5533 697.216C46.5533 697.79 46.9733 698.182 47.4773 698.182ZM50.6597 698H56.2877V696.936H54.2297V687.738H53.2497C52.6897 688.06 52.0317 688.298 51.1217 688.466V689.278H52.9417V696.936H50.6597V698ZM60.8474 698.182C62.5834 698.182 64.2074 696.908 64.2074 694.654C64.2074 692.4 62.8214 691.392 61.1134 691.392C60.4974 691.392 60.0354 691.546 59.5874 691.798L59.8394 688.83H63.7174V687.738H58.7194L58.3974 692.54L59.0834 692.96C59.6714 692.568 60.1054 692.358 60.7914 692.358C62.0794 692.358 62.9194 693.226 62.9194 694.696C62.9194 696.194 61.9394 697.118 60.7354 697.118C59.5454 697.118 58.8034 696.572 58.2154 695.984L57.5854 696.824C58.2714 697.51 59.2514 698.182 60.8474 698.182Z" fill="black"/>
<rect x="71.25" y="669.25" width="39.5" height="45.5" fill="white" stroke="#AFAFAF" stroke-width="0.5"/>
<line x1="85" y1="691.5" x2="97" y2="691.5" stroke="black"/>
<rect x="151.25" y="669.25" width="39.5" height="45.5" fill="white" stroke="#AFAFAF" stroke-width="0.5"/>
<line x1="165" y1="691.5" x2="177" y2="691.5" stroke="black"/>
<rect x="111.25" y="669.25" width="39.5" height="45.5" fill="#555555" stroke="#AFAFAF" stroke-width="0.5"/>
<rect x="191.25" y="669.25" width="39.5" height="45.5" fill="white" stroke="#AFAFAF" stroke-width="0.5"/>
<path d="M211 684.5L202.75 698.75H219.25M211 687.5L216.648 697.25H205.352" fill="#CD6709"/>
<rect x="231.25" y="715.25" width="39.5" height="45.5" fill="white" stroke="#AFAFAF" stroke-width="0.5"/>
<circle cx="251" cy="738" r="8" fill="white" stroke="#AC2524" stroke-width="2"/>
<rect x="271.25" y="715.25" width="39.5" height="45.5" fill="white" stroke="#AFAFAF" stroke-width="0.5"/>
<circle cx="291" cy="738" r="8" fill="white" stroke="#AC2524" stroke-width="2"/>
<rect x="311.25" y="715.25" width="39.5" height="45.5" fill="white" stroke="#AFAFAF" stroke-width="0.5"/>
<circle cx="331" cy="738" r="8" fill="white" stroke="#AC2524" stroke-width="2"/>
<rect x="111.25" y="715.25" width="39.5" height="45.5" fill="#555555" stroke="#AFAFAF" stroke-width="0.5"/>
<rect x="24.25" y="715.25" width="46.5" height="45.5" fill="white" stroke="#AFAFAF" stroke-width="0.5"/>
<path d="M31.232 744H36.86V742.936H34.802V733.738H33.822C33.262 734.06 32.604 734.298 31.694 734.466V735.278H33.514V742.936H31.232V744ZM41.4616 744.182C43.2816 744.182 44.7516 743.09 44.7516 741.256C44.7516 739.856 43.7856 738.932 42.5676 738.652V738.596C43.6596 738.19 44.4016 737.364 44.4016 736.118C44.4016 734.466 43.1416 733.542 41.4196 733.542C40.2296 733.542 39.3196 734.06 38.5496 734.774L39.2356 735.586C39.8096 735.012 40.5376 734.592 41.3636 734.564C42.4276 734.592 43.0996 735.222 43.0996 736.216C43.0996 737.322 42.3716 738.176 40.2576 738.176V739.156C42.6236 739.156 43.4496 739.982 43.4496 741.214C43.4496 742.39 42.5816 743.118 41.3636 743.118C40.2016 743.118 39.4176 742.572 38.8156 741.942L38.1716 742.782C38.8436 743.51 39.8516 744.182 41.4616 744.182ZM47.4773 738.54C47.9813 738.54 48.4013 738.134 48.4013 737.574C48.4013 736.986 47.9813 736.58 47.4773 736.58C46.9733 736.58 46.5533 736.986 46.5533 737.574C46.5533 738.134 46.9733 738.54 47.4773 738.54ZM47.4773 744.182C47.9813 744.182 48.4013 743.79 48.4013 743.216C48.4013 742.642 47.9813 742.222 47.4773 742.222C46.9733 742.222 46.5533 742.642 46.5533 743.216C46.5533 743.79 46.9733 744.182 47.4773 744.182ZM53.1237 744.182C54.9437 744.182 56.4137 743.09 56.4137 741.256C56.4137 739.856 55.4477 738.932 54.2297 738.652V738.596C55.3217 738.19 56.0637 737.364 56.0637 736.118C56.0637 734.466 54.8037 733.542 53.0817 733.542C51.8917 733.542 50.9817 734.06 50.2117 734.774L50.8977 735.586C51.4717 735.012 52.1997 734.592 53.0257 734.564C54.0897 734.592 54.7617 735.222 54.7617 736.216C54.7617 737.322 54.0337 738.176 51.9197 738.176V739.156C54.2857 739.156 55.1117 739.982 55.1117 741.214C55.1117 742.39 54.2437 743.118 53.0257 743.118C51.8637 743.118 51.0797 742.572 50.4777 741.942L49.8337 742.782C50.5057 743.51 51.5137 744.182 53.1237 744.182ZM61.0854 744.182C63.0314 744.182 64.2774 742.404 64.2774 738.834C64.2774 735.278 63.0314 733.542 61.0854 733.542C59.1254 733.542 57.8794 735.264 57.8794 738.834C57.8794 742.404 59.1254 744.182 61.0854 744.182ZM61.0854 743.16C59.9094 743.16 59.1254 741.858 59.1254 738.834C59.1254 735.838 59.9094 734.578 61.0854 734.578C62.2474 734.578 63.0314 735.838 63.0314 738.834C63.0314 741.858 62.2474 743.16 61.0854 743.16Z" fill="black"/>
<rect x="71.25" y="715.25" width="39.5" height="45.5" fill="white" stroke="#AFAFAF" stroke-width="0.5"/>
<line x1="85" y1="737.5" x2="97" y2="737.5" stroke="black"/>
<rect x="151.25" y="715.25" width="39.5" height="45.5" fill="white" stroke="#AFAFAF" stroke-width="0.5"/>
<line x1="165" y1="737.5" x2="177" y2="737.5" stroke="black"/>
<rect x="191.25" y="715.25" width="39.5" height="45.5" fill="white" stroke="#AFAFAF" stroke-width="0.5"/>
<path d="M211 730.5L202.75 744.75H219.25M211 733.5L216.648 743.25H205.352" fill="#CD6709"/>
<rect x="151.25" y="853.25" width="39.5" height="45.5" fill="white" stroke="#AFAFAF" stroke-width="0.5"/>
<circle cx="171" cy="876" r="8" fill="white" stroke="#AC2524" stroke-width="2"/>
<rect x="191.25" y="853.25" width="39.5" height="45.5" fill="white" stroke="#AFAFAF" stroke-width="0.5"/>
<circle cx="211" cy="876" r="8" fill="white" stroke="#AC2524" stroke-width="2"/>
<rect x="271.25" y="853.25" width="39.5" height="45.5" fill="white" stroke="#AFAFAF" stroke-width="0.5"/>
<circle cx="291" cy="876" r="8" fill="white" stroke="#AC2524" stroke-width="2"/>
<rect x="311.25" y="853.25" width="39.5" height="45.5" fill="white" stroke="#AFAFAF" stroke-width="0.5"/>
<circle cx="331" cy="876" r="8" fill="white" stroke="#AC2524" stroke-width="2"/>
<rect x="111.25" y="853.25" width="39.5" height="45.5" fill="#555555" stroke="#AFAFAF" stroke-width="0.5"/>
<rect x="71.25" y="853.25" width="39.5" height="45.5" fill="white" stroke="#AFAFAF" stroke-width="0.5"/>
<circle cx="91" cy="876" r="8" fill="white" stroke="#AC2524" stroke-width="2"/>
<rect x="24.25" y="853.25" width="46.5" height="45.5" fill="white" stroke="#AFAFAF" stroke-width="0.5"/>
<path d="M31.232 882H36.86V880.936H34.802V871.738H33.822C33.262 872.06 32.604 872.298 31.694 872.466V873.278H33.514V880.936H31.232V882ZM39.3756 878.15L41.7136 874.65C42.0076 874.146 42.2876 873.642 42.5396 873.138H42.5956C42.5676 873.67 42.5116 874.496 42.5116 875V878.15H39.3756ZM45.0876 878.15H43.7296V871.738H42.3156L38.0456 878.332V879.172H42.5116V882H43.7296V879.172H45.0876V878.15ZM47.4773 876.54C47.9813 876.54 48.4013 876.134 48.4013 875.574C48.4013 874.986 47.9813 874.58 47.4773 874.58C46.9733 874.58 46.5533 874.986 46.5533 875.574C46.5533 876.134 46.9733 876.54 47.4773 876.54ZM47.4773 882.182C47.9813 882.182 48.4013 881.79 48.4013 881.216C48.4013 880.642 47.9813 880.222 47.4773 880.222C46.9733 880.222 46.5533 880.642 46.5533 881.216C46.5533 881.79 46.9733 882.182 47.4773 882.182ZM50.6597 882H56.2877V880.936H54.2297V871.738H53.2497C52.6897 872.06 52.0317 872.298 51.1217 872.466V873.278H52.9417V880.936H50.6597V882ZM60.8474 882.182C62.5834 882.182 64.2074 880.908 64.2074 878.654C64.2074 876.4 62.8214 875.392 61.1134 875.392C60.4974 875.392 60.0354 875.546 59.5874 875.798L59.8394 872.83H63.7174V871.738H58.7194L58.3974 876.54L59.0834 876.96C59.6714 876.568 60.1054 876.358 60.7914 876.358C62.0794 876.358 62.9194 877.226 62.9194 878.696C62.9194 880.194 61.9394 881.118 60.7354 881.118C59.5454 881.118 58.8034 880.572 58.2154 879.984L57.5854 880.824C58.2714 881.51 59.2514 882.182 60.8474 882.182Z" fill="black"/>
<rect x="231.25" y="853.25" width="39.5" height="45.5" fill="white" stroke="#AFAFAF" stroke-width="0.5"/>
<path d="M251 868.5L242.75 882.75H259.25M251 871.5L256.648 881.25H245.352" fill="#CD6709"/>
<rect x="151.25" y="623.25" width="39.5" height="45.5" fill="white" stroke="#AFAFAF" stroke-width="0.5"/>
<circle cx="171" cy="646" r="8" fill="white" stroke="#AC2524" stroke-width="2"/>
<rect x="24.25" y="623.25" width="46.5" height="45.5" fill="white" stroke="#AFAFAF" stroke-width="0.5"/>
<path d="M31.232 652H36.86V650.936H34.802V641.738H33.822C33.262 642.06 32.604 642.298 31.694 642.466V643.278H33.514V650.936H31.232V652ZM41.4616 652.182C43.2816 652.182 44.7516 651.09 44.7516 649.256C44.7516 647.856 43.7856 646.932 42.5676 646.652V646.596C43.6596 646.19 44.4016 645.364 44.4016 644.118C44.4016 642.466 43.1416 641.542 41.4196 641.542C40.2296 641.542 39.3196 642.06 38.5496 642.774L39.2356 643.586C39.8096 643.012 40.5376 642.592 41.3636 642.564C42.4276 642.592 43.0996 643.222 43.0996 644.216C43.0996 645.322 42.3716 646.176 40.2576 646.176V647.156C42.6236 647.156 43.4496 647.982 43.4496 649.214C43.4496 650.39 42.5816 651.118 41.3636 651.118C40.2016 651.118 39.4176 650.572 38.8156 649.942L38.1716 650.782C38.8436 651.51 39.8516 652.182 41.4616 652.182ZM47.4773 646.54C47.9813 646.54 48.4013 646.134 48.4013 645.574C48.4013 644.986 47.9813 644.58 47.4773 644.58C46.9733 644.58 46.5533 644.986 46.5533 645.574C46.5533 646.134 46.9733 646.54 47.4773 646.54ZM47.4773 652.182C47.9813 652.182 48.4013 651.79 48.4013 651.216C48.4013 650.642 47.9813 650.222 47.4773 650.222C46.9733 650.222 46.5533 650.642 46.5533 651.216C46.5533 651.79 46.9733 652.182 47.4773 652.182ZM53.3197 652.182C55.2657 652.182 56.5117 650.404 56.5117 646.834C56.5117 643.278 55.2657 641.542 53.3197 641.542C51.3597 641.542 50.1137 643.264 50.1137 646.834C50.1137 650.404 51.3597 652.182 53.3197 652.182ZM53.3197 651.16C52.1437 651.16 51.3597 649.858 51.3597 646.834C51.3597 643.838 52.1437 642.578 53.3197 642.578C54.4817 642.578 55.2657 643.838 55.2657 646.834C55.2657 649.858 54.4817 651.16 53.3197 651.16ZM61.0854 652.182C63.0314 652.182 64.2774 650.404 64.2774 646.834C64.2774 643.278 63.0314 641.542 61.0854 641.542C59.1254 641.542 57.8794 643.264 57.8794 646.834C57.8794 650.404 59.1254 652.182 61.0854 652.182ZM61.0854 651.16C59.9094 651.16 59.1254 649.858 59.1254 646.834C59.1254 643.838 59.9094 642.578 61.0854 642.578C62.2474 642.578 63.0314 643.838 63.0314 646.834C63.0314 649.858 62.2474 651.16 61.0854 651.16Z" fill="black"/>
<rect x="71.25" y="623.25" width="39.5" height="45.5" fill="white" stroke="#AFAFAF" stroke-width="0.5"/>
<line x1="85" y1="645.5" x2="97" y2="645.5" stroke="black"/>
<rect x="111.25" y="623.25" width="39.5" height="45.5" fill="#555555" stroke="#AFAFAF" stroke-width="0.5"/>
<rect x="271.25" y="623.25" width="39.5" height="45.5" fill="white" stroke="#AFAFAF" stroke-width="0.5"/>
<line x1="285" y1="645.5" x2="297" y2="645.5" stroke="black"/>
<rect x="231.25" y="623.25" width="39.5" height="45.5" fill="white" stroke="#AFAFAF" stroke-width="0.5"/>
<line x1="245" y1="645.5" x2="257" y2="645.5" stroke="black"/>
<rect x="191.25" y="623.25" width="39.5" height="45.5" fill="white" stroke="#AFAFAF" stroke-width="0.5"/>
<path d="M211 638.5L202.75 652.75H219.25M211 641.5L216.648 651.25H205.352" fill="#CD6709"/>
<rect x="311.25" y="623.25" width="39.5" height="45.5" fill="white" stroke="#AFAFAF" stroke-width="0.5"/>
<path d="M331 638.5L322.75 652.75H339.25M331 641.5L336.648 651.25H325.352" fill="#CD6709"/>
<rect x="151.25" y="761.25" width="39.5" height="45.5" fill="white" stroke="#AFAFAF" stroke-width="0.5"/>
<circle cx="171" cy="784" r="8" fill="white" stroke="#AC2524" stroke-width="2"/>
<rect x="191.25" y="761.25" width="39.5" height="45.5" fill="white" stroke="#AFAFAF" stroke-width="0.5"/>
<circle cx="211" cy="784" r="8" fill="white" stroke="#AC2524" stroke-width="2"/>
<rect x="231.25" y="761.25" width="39.5" height="45.5" fill="white" stroke="#AFAFAF" stroke-width="0.5"/>
<circle cx="251" cy="784" r="8" fill="white" stroke="#AC2524" stroke-width="2"/>
<rect x="271.25" y="761.25" width="39.5" height="45.5" fill="white" stroke="#AFAFAF" stroke-width="0.5"/>
<circle cx="291" cy="784" r="8" fill="white" stroke="#AC2524" stroke-width="2"/>
<rect x="311.25" y="761.25" width="39.5" height="45.5" fill="white" stroke="#AFAFAF" stroke-width="0.5"/>
<circle cx="331" cy="784" r="8" fill="white" stroke="#AC2524" stroke-width="2"/>
<rect x="24.25" y="761.25" width="46.5" height="45.5" fill="white" stroke="#AFAFAF" stroke-width="0.5"/>
<path d="M31.232 790H36.86V788.936H34.802V779.738H33.822C33.262 780.06 32.604 780.298 31.694 780.466V781.278H33.514V788.936H31.232V790ZM41.4616 790.182C43.2816 790.182 44.7516 789.09 44.7516 787.256C44.7516 785.856 43.7856 784.932 42.5676 784.652V784.596C43.6596 784.19 44.4016 783.364 44.4016 782.118C44.4016 780.466 43.1416 779.542 41.4196 779.542C40.2296 779.542 39.3196 780.06 38.5496 780.774L39.2356 781.586C39.8096 781.012 40.5376 780.592 41.3636 780.564C42.4276 780.592 43.0996 781.222 43.0996 782.216C43.0996 783.322 42.3716 784.176 40.2576 784.176V785.156C42.6236 785.156 43.4496 785.982 43.4496 787.214C43.4496 788.39 42.5816 789.118 41.3636 789.118C40.2016 789.118 39.4176 788.572 38.8156 787.942L38.1716 788.782C38.8436 789.51 39.8516 790.182 41.4616 790.182ZM47.4773 784.54C47.9813 784.54 48.4013 784.134 48.4013 783.574C48.4013 782.986 47.9813 782.58 47.4773 782.58C46.9733 782.58 46.5533 782.986 46.5533 783.574C46.5533 784.134 46.9733 784.54 47.4773 784.54ZM47.4773 790.182C47.9813 790.182 48.4013 789.79 48.4013 789.216C48.4013 788.642 47.9813 788.222 47.4773 788.222C46.9733 788.222 46.5533 788.642 46.5533 789.216C46.5533 789.79 46.9733 790.182 47.4773 790.182ZM51.0377 786.15L53.3757 782.65C53.6697 782.146 53.9497 781.642 54.2017 781.138H54.2577C54.2297 781.67 54.1737 782.496 54.1737 783V786.15H51.0377ZM56.7497 786.15H55.3917V779.738H53.9777L49.7077 786.332V787.172H54.1737V790H55.3917V787.172H56.7497V786.15ZM60.8474 790.182C62.5834 790.182 64.2074 788.908 64.2074 786.654C64.2074 784.4 62.8214 783.392 61.1134 783.392C60.4974 783.392 60.0354 783.546 59.5874 783.798L59.8394 780.83H63.7174V779.738H58.7194L58.3974 784.54L59.0834 784.96C59.6714 784.568 60.1054 784.358 60.7914 784.358C62.0794 784.358 62.9194 785.226 62.9194 786.696C62.9194 788.194 61.9394 789.118 60.7354 789.118C59.5454 789.118 58.8034 788.572 58.2154 787.984L57.5854 788.824C58.2714 789.51 59.2514 790.182 60.8474 790.182Z" fill="black"/>
<rect x="71.25" y="761.25" width="39.5" height="45.5" fill="white" stroke="#AFAFAF" stroke-width="0.5"/>
<line x1="85" y1="783.5" x2="97" y2="783.5" stroke="black"/>
<rect x="111.25" y="761.25" width="39.5" height="45.5" fill="white" stroke="#AFAFAF" stroke-width="0.5"/>
<rect x="111.25" y="761.25" width="39.5" height="45.5" fill="#555555" stroke="#AFAFAF" stroke-width="0.5"/>
<path d="M143.76 355H151.8V353.48H148.86V340.34H147.46C146.66 340.8 145.72 341.14 144.42 341.38V342.54H147.02V353.48H143.76V355ZM153.314 358.58H154.654L160.634 339.14H159.314L153.314 358.58ZM166.506 355.26C169.266 355.26 171.106 353.6 171.106 351.46C171.106 349.46 169.906 348.36 168.626 347.62V347.52C169.506 346.84 170.586 345.52 170.586 343.98C170.586 341.72 169.066 340.12 166.566 340.12C164.266 340.12 162.546 341.6 162.546 343.84C162.546 345.38 163.446 346.48 164.526 347.22V347.32C163.186 348.04 161.826 349.4 161.826 351.36C161.826 353.62 163.806 355.26 166.506 355.26ZM167.506 347.04C165.786 346.36 164.206 345.6 164.206 343.84C164.206 342.42 165.186 341.46 166.526 341.46C168.106 341.46 169.026 342.64 169.026 344.08C169.026 345.16 168.506 346.16 167.506 347.04ZM166.546 353.9C164.786 353.9 163.486 352.76 163.486 351.2C163.486 349.8 164.306 348.64 165.486 347.88C167.566 348.72 169.366 349.46 169.366 351.42C169.366 352.88 168.226 353.9 166.546 353.9ZM185.96 350.1C188.08 350.1 189.92 348.88 191.18 346.6L189.76 345.84C188.94 347.42 187.56 348.48 185.98 348.48C184.54 348.48 183.66 347.86 182.58 346.84C181.18 345.44 179.9 344.7 178.08 344.7C175.96 344.7 174.12 345.92 172.86 348.2L174.28 348.96C175.1 347.38 176.48 346.32 178.06 346.32C179.52 346.32 180.38 346.94 181.46 347.96C182.86 349.34 184.14 350.1 185.96 350.1ZM193.78 355H201.82V353.48H198.88V340.34H197.48C196.68 340.8 195.74 341.14 194.44 341.38V342.54H197.04V353.48H193.78V355ZM203.333 358.58H204.673L210.653 339.14H209.333L203.333 358.58ZM212.705 355H220.745V353.48H217.805V340.34H216.405C215.605 340.8 214.665 341.14 213.365 341.38V342.54H215.965V353.48H212.705V355ZM224.339 349.5L227.679 344.5C228.099 343.78 228.499 343.06 228.859 342.34H228.939C228.899 343.1 228.819 344.28 228.819 345V349.5H224.339ZM232.499 349.5H230.559V340.34H228.539L222.439 349.76V350.96H228.819V355H230.559V350.96H232.499V349.5Z" fill="black"/>
<path d="M278.1 356L276 353.9L282.9 347L276 340.1L278.1 338L287.1 347L278.1 356Z" fill="#606060"/>
<path d="M290.1 356L288 353.9L294.9 347L288 340.1L290.1 338L299.1 347L290.1 356Z" fill="#606060"/>
<path d="M97.9 338L100 340.1L93.1 347L100 353.9L97.9 356L88.9 347L97.9 338Z" fill="#606060"/>
<path d="M85.9 338L88 340.1L81.1 347L88 353.9L85.9 356L76.9 347L85.9 338Z" fill="#606060"/>
<path d="M260.212 303.44C260.212 303.884 260.56 304.232 261.004 304.232C261.448 304.232 261.796 303.884 261.796 303.44C261.796 302.996 261.448 302.648 261.004 302.648C260.56 302.648 260.212 302.996 260.212 303.44ZM264.208 303.44C264.208 303.884 264.556 304.232 265 304.232C265.444 304.232 265.792 303.884 265.792 303.44C265.792 302.996 265.444 302.648 265 302.648C264.556 302.648 264.208 302.996 264.208 303.44ZM268.204 303.44C268.204 303.884 268.552 304.232 268.996 304.232C269.44 304.232 269.788 303.884 269.788 303.44C269.788 302.996 269.44 302.648 268.996 302.648C268.552 302.648 268.204 302.996 268.204 303.44ZM276.508 301.16H272.932V301.952H281.14V301.16H277.42V299.972H282.208V299.144H277.42V297.968H276.508V299.144H271.816V299.972H276.508V301.16ZM281.884 305.204V302.912H272.128V305.204H272.992V303.728H280.984V305.204H281.884ZM274.96 304.34C274.792 306.416 274.312 307.58 271.564 308.168C271.756 308.348 271.996 308.696 272.068 308.924C275.044 308.192 275.668 306.776 275.872 304.34H274.96ZM279.34 307.88C278.872 307.88 278.788 307.82 278.788 307.496V304.328H277.9V307.508C277.9 308.432 278.176 308.696 279.256 308.696H281.008C281.944 308.696 282.184 308.288 282.292 306.68C282.04 306.608 281.68 306.476 281.476 306.332C281.44 307.676 281.368 307.88 280.924 307.88H279.34ZM286.036 298.532C286.024 298.82 285.988 299.18 285.94 299.552C285.796 300.512 285.58 302.264 285.58 303.392C285.58 304.16 285.64 304.832 285.7 305.276L286.636 305.204C286.552 304.616 286.552 304.208 286.612 303.752C286.756 302.192 288.124 300.044 289.6 300.044C290.86 300.044 291.484 301.388 291.484 303.26C291.484 306.248 289.468 307.28 286.888 307.676L287.452 308.54C290.404 308 292.48 306.548 292.48 303.248C292.48 300.752 291.34 299.168 289.756 299.168C288.256 299.168 287.008 300.644 286.54 301.868C286.612 301.04 286.84 299.444 287.092 298.568L286.036 298.532ZM298.084 305.804C297.76 305.804 297.712 305.732 297.712 305.3V302.144L300.58 301.532L300.412 300.728L297.712 301.304V298.292H296.836V301.484L295.396 301.796L295.552 302.612L296.836 302.336V305.288C296.836 306.356 297.076 306.644 297.964 306.644H299.224C300.04 306.644 300.256 306.128 300.352 304.472C300.112 304.412 299.752 304.256 299.548 304.088C299.524 305.492 299.464 305.804 299.152 305.804H298.084ZM299.824 299.012V299.864H301.912C301.864 303.332 301.672 306.608 298.72 308.252C298.936 308.42 299.236 308.732 299.368 308.96C302.452 307.124 302.728 303.596 302.812 299.864H305.332C305.188 305.288 305.02 307.28 304.66 307.724C304.528 307.892 304.396 307.94 304.192 307.928C303.916 307.928 303.28 307.928 302.584 307.868C302.74 308.132 302.86 308.516 302.872 308.78C303.496 308.816 304.168 308.828 304.552 308.78C304.96 308.732 305.224 308.624 305.476 308.252C305.956 307.64 306.076 305.624 306.232 299.504C306.232 299.384 306.244 299.012 306.244 299.012H299.824ZM318.472 306.008C317.92 306.608 317.284 306.992 316.684 306.992C316.264 306.992 316.072 306.68 316.072 306.272C316.072 305.072 316.516 303.02 316.516 301.832C316.516 300.86 315.952 300.236 314.836 300.236C313.648 300.236 312.124 301.376 311.2 302.228C311.224 302 311.236 301.772 311.26 301.556C311.44 301.268 311.644 300.944 311.788 300.728L311.44 300.308L311.38 300.332C311.464 299.504 311.56 298.832 311.62 298.544L310.48 298.508C310.54 298.808 310.528 299.12 310.528 299.396C310.528 299.528 310.504 299.948 310.468 300.512C309.856 300.608 309.16 300.68 308.776 300.704C308.488 300.728 308.26 300.728 307.996 300.716L308.092 301.712C308.836 301.616 309.868 301.472 310.408 301.412C310.384 301.784 310.36 302.168 310.336 302.552C309.736 303.488 308.368 305.336 307.708 306.164L308.308 306.992C308.884 306.2 309.664 305.06 310.24 304.184C310.24 304.364 310.228 304.52 310.228 304.64C310.204 305.96 310.204 306.548 310.192 307.688C310.192 307.88 310.168 308.228 310.156 308.396H311.2C311.176 308.18 311.152 307.88 311.14 307.676C311.092 306.608 311.092 305.888 311.092 304.808C311.092 304.388 311.104 303.92 311.128 303.416C312.22 302.24 313.66 301.124 314.62 301.124C315.22 301.124 315.568 301.412 315.568 302.096C315.568 303.248 315.124 305.204 315.124 306.524C315.124 307.508 315.664 308.036 316.444 308.036C317.26 308.036 318.004 307.676 318.628 307.04L318.472 306.008Z" fill="black"/>
<line x1="242" y1="302.5" x2="254" y2="302.5" stroke="black"/>
<path d="M48.212 303.44C48.212 303.884 48.56 304.232 49.004 304.232C49.448 304.232 49.796 303.884 49.796 303.44C49.796 302.996 49.448 302.648 49.004 302.648C48.56 302.648 48.212 302.996 48.212 303.44ZM52.208 303.44C52.208 303.884 52.556 304.232 53 304.232C53.444 304.232 53.792 303.884 53.792 303.44C53.792 302.996 53.444 302.648 53 302.648C52.556 302.648 52.208 302.996 52.208 303.44ZM56.204 303.44C56.204 303.884 56.552 304.232 56.996 304.232C57.44 304.232 57.788 303.884 57.788 303.44C57.788 302.996 57.44 302.648 56.996 302.648C56.552 302.648 56.204 302.996 56.204 303.44ZM69.692 302.348L69.512 302.42H67.04L67.244 302.108C66.908 301.928 66.44 301.7 65.948 301.484C67.028 300.812 68.216 299.9 69.068 299.048L68.42 298.556L68.216 298.604H60.812V299.432H67.352C66.704 300.02 65.828 300.644 65.072 301.076C64.34 300.752 63.56 300.428 62.9 300.164L62.444 300.824C63.512 301.28 64.88 301.904 65.9 302.42H59.684V303.272H64.628V307.784C64.628 307.964 64.556 308.012 64.34 308.024C64.1 308.036 63.296 308.048 62.468 308.012C62.588 308.264 62.744 308.624 62.804 308.876C63.848 308.876 64.544 308.864 64.964 308.732C65.384 308.6 65.528 308.348 65.528 307.796V303.272H68.936C68.504 303.968 67.976 304.664 67.532 305.144L68.252 305.6C68.984 304.868 69.764 303.728 70.4 302.684L69.692 302.348ZM72.128 304.76C71.996 305.816 71.744 306.884 71.348 307.616C71.54 307.676 71.9 307.844 72.044 307.952C72.44 307.184 72.728 306.032 72.896 304.904L72.128 304.76ZM74.732 304.928C75.056 305.672 75.392 306.632 75.5 307.256L76.208 307.016C76.1 306.392 75.752 305.444 75.404 304.712L74.732 304.928ZM74.432 302.084C74.636 302.408 74.84 302.78 75.02 303.152C74.36 303.176 73.7 303.212 73.1 303.236C73.928 302.204 74.888 300.788 75.584 299.66L74.816 299.324C74.48 299.972 74.024 300.752 73.532 301.508C73.34 301.256 73.088 300.968 72.8 300.68C73.256 300.032 73.76 299.072 74.168 298.268L73.376 297.968C73.124 298.628 72.704 299.528 72.308 300.2C72.188 300.092 72.068 299.984 71.948 299.888L71.492 300.464C72.056 300.968 72.704 301.652 73.064 302.192C72.8 302.576 72.524 302.948 72.26 303.26C71.984 303.272 71.708 303.284 71.468 303.284L71.54 304.088L73.496 303.992V308.936H74.312V303.944L75.344 303.884C75.452 304.136 75.524 304.364 75.572 304.568L76.28 304.232C76.112 303.584 75.596 302.564 75.092 301.796L74.432 302.084ZM82.232 300.116H77.828C78.116 299.492 78.356 298.832 78.56 298.16L77.66 297.956C77.216 299.54 76.448 301.112 75.524 302.108C75.74 302.228 76.136 302.492 76.304 302.636C76.7 302.168 77.084 301.592 77.42 300.956H81.356C81.176 305.636 80.972 307.46 80.576 307.868C80.444 308.024 80.288 308.048 80.06 308.048C79.76 308.048 79.028 308.048 78.224 307.976C78.392 308.216 78.488 308.6 78.512 308.852C79.232 308.9 79.964 308.912 80.36 308.876C80.816 308.828 81.08 308.744 81.356 308.396C81.848 307.808 82.016 305.948 82.232 300.572V300.116ZM79.544 305.444C79.256 304.688 78.536 303.548 77.864 302.708L77.144 303.056C77.816 303.932 78.488 305.12 78.764 305.852L79.544 305.444ZM88.928 302.312V305.048H85.796V302.312H88.928ZM89.804 305.9V301.448H84.932V306.86H85.796V305.9H89.804ZM94.328 298.808H83.708V299.696H91.94V307.628C91.94 307.88 91.856 307.964 91.592 307.976C91.316 307.988 90.332 308 89.372 307.952C89.516 308.204 89.696 308.648 89.756 308.9C90.932 308.9 91.76 308.9 92.24 308.732C92.696 308.6 92.852 308.288 92.852 307.64V299.696H94.328V298.808ZM105.104 303.188C106.052 303.188 106.328 302.804 106.436 301.352C106.172 301.292 105.824 301.148 105.62 301.004C105.572 302.192 105.488 302.384 105.032 302.384H103.124C102.584 302.384 102.488 302.312 102.488 301.928V300.716C103.64 300.38 104.912 299.948 105.86 299.504L105.26 298.856C104.576 299.216 103.508 299.648 102.488 299.984V297.98H101.612V301.94C101.612 302.924 101.912 303.188 103.052 303.188H105.104ZM97.076 305.78V304.676H99.608V305.78H97.076ZM99.608 302.948V303.98H97.076V302.948H99.608ZM100.484 302.204H96.248V308.9H97.076V306.464H99.608V307.88C99.608 308.036 99.572 308.072 99.416 308.072C99.248 308.084 98.744 308.096 98.18 308.072C98.3 308.288 98.42 308.648 98.468 308.876C99.224 308.876 99.74 308.864 100.076 308.732C100.4 308.588 100.484 308.336 100.484 307.892V302.204ZM99.008 299.084C99.284 299.456 99.56 299.888 99.812 300.32L97.352 300.428C97.724 299.744 98.108 298.904 98.432 298.172L97.532 297.956C97.28 298.688 96.836 299.708 96.428 300.464C96.092 300.476 95.792 300.488 95.516 300.5L95.6 301.34C96.824 301.268 98.552 301.184 100.232 301.088C100.364 301.352 100.472 301.592 100.544 301.796L101.3 301.46C101.048 300.728 100.364 299.624 99.74 298.796L99.008 299.084ZM103.16 308.024C102.596 308.024 102.488 307.952 102.488 307.556V306.164C103.7 305.816 105.068 305.36 105.992 304.832L105.404 304.16C104.72 304.604 103.58 305.072 102.488 305.42V303.524H101.612V307.556C101.612 308.54 101.924 308.804 103.076 308.804H105.2C106.196 308.804 106.46 308.384 106.58 306.776C106.328 306.728 105.98 306.584 105.776 306.44C105.716 307.784 105.632 308.024 105.128 308.024H103.16Z" fill="black"/>
<circle cx="33" cy="303" r="8" stroke="#AC2524" stroke-width="2"/>
<path d="M151.212 303.44C151.212 303.884 151.56 304.232 152.004 304.232C152.448 304.232 152.796 303.884 152.796 303.44C152.796 302.996 152.448 302.648 152.004 302.648C151.56 302.648 151.212 302.996 151.212 303.44ZM155.208 303.44C155.208 303.884 155.556 304.232 156 304.232C156.444 304.232 156.792 303.884 156.792 303.44C156.792 302.996 156.444 302.648 156 302.648C155.556 302.648 155.208 302.996 155.208 303.44ZM159.204 303.44C159.204 303.884 159.552 304.232 159.996 304.232C160.44 304.232 160.788 303.884 160.788 303.44C160.788 302.996 160.44 302.648 159.996 302.648C159.552 302.648 159.204 302.996 159.204 303.44ZM172.692 298.832C172.32 298.484 171.564 298.076 170.928 297.836L170.448 298.352C171.072 298.616 171.816 299.048 172.176 299.408L172.692 298.832ZM166.008 301.76C165.876 302.672 165.684 303.512 165.444 304.256C165.024 303.872 164.424 303.452 163.872 303.116C164.064 302.684 164.232 302.24 164.388 301.76H166.008ZM166.392 300.92L166.236 300.956H164.628C164.76 300.428 164.892 299.888 164.988 299.324H167.256V298.508H162.624V299.324H164.124C163.776 301.208 163.2 302.96 162.312 304.088C162.504 304.22 162.864 304.52 162.996 304.676C163.188 304.412 163.368 304.124 163.536 303.812C164.112 304.208 164.736 304.7 165.144 305.12C164.556 306.548 163.752 307.604 162.78 308.312C162.984 308.432 163.272 308.744 163.416 308.936C165.18 307.592 166.452 305 166.908 301.088L166.392 300.92ZM172.308 304.088C171.924 304.712 171.384 305.312 170.736 305.864C170.58 305.36 170.424 304.796 170.304 304.172L173.388 303.848L173.304 303.116L170.172 303.44C170.112 303.068 170.052 302.696 170.004 302.3L172.872 302.012L172.788 301.304L169.932 301.58C169.896 301.232 169.86 300.86 169.836 300.488L173.028 300.212L172.98 299.48L169.8 299.756C169.776 299.156 169.764 298.544 169.764 297.908H168.888C168.9 298.556 168.912 299.204 168.948 299.84L167.112 299.996L167.172 300.728L168.996 300.572C169.02 300.944 169.044 301.304 169.08 301.664L167.4 301.832L167.472 302.552L169.164 302.384C169.2 302.78 169.26 303.152 169.32 303.524L167.1 303.752L167.172 304.496L169.452 304.256C169.608 305.06 169.8 305.78 170.028 306.416C168.984 307.148 167.76 307.736 166.536 308.06C166.728 308.252 166.944 308.576 167.04 308.804C168.18 308.456 169.32 307.868 170.34 307.16C170.844 308.228 171.504 308.864 172.332 308.864C173.148 308.864 173.424 308.42 173.58 306.92C173.388 306.836 173.1 306.644 172.944 306.452C172.872 307.64 172.74 308.024 172.404 308.024C171.888 308.024 171.432 307.52 171.036 306.632C171.816 305.996 172.476 305.276 172.956 304.544L172.308 304.088ZM177.036 298.532C177.024 298.82 176.988 299.18 176.94 299.552C176.796 300.512 176.58 302.264 176.58 303.392C176.58 304.16 176.64 304.832 176.7 305.276L177.636 305.204C177.552 304.616 177.552 304.208 177.612 303.752C177.756 302.192 179.124 300.044 180.6 300.044C181.86 300.044 182.484 301.388 182.484 303.26C182.484 306.248 180.468 307.28 177.888 307.676L178.452 308.54C181.404 308 183.48 306.548 183.48 303.248C183.48 300.752 182.34 299.168 180.756 299.168C179.256 299.168 178.008 300.644 177.54 301.868C177.612 301.04 177.84 299.444 178.092 298.568L177.036 298.532ZM190.44 300.308L190.38 300.332C190.464 299.504 190.56 298.832 190.62 298.544L189.48 298.508C189.54 298.808 189.528 299.12 189.528 299.396C189.528 299.528 189.504 299.948 189.468 300.512C188.856 300.608 188.16 300.68 187.776 300.704C187.488 300.728 187.26 300.728 186.996 300.716L187.092 301.712C187.836 301.616 188.868 301.472 189.408 301.412C189.384 301.784 189.36 302.168 189.336 302.552C188.736 303.488 187.368 305.336 186.708 306.164L187.308 306.992C187.884 306.2 188.664 305.06 189.24 304.184C189.24 304.364 189.228 304.52 189.228 304.64C189.204 305.96 189.204 306.548 189.192 307.688C189.192 307.88 189.168 308.228 189.156 308.396H190.2C190.176 308.18 190.152 307.88 190.14 307.676C190.092 306.608 190.092 305.888 190.092 304.808C190.092 304.388 190.104 303.908 190.128 303.416C191.208 302.396 192.468 301.712 193.836 301.712C195.408 301.712 196.128 302.9 196.128 303.812C196.14 305.864 194.34 306.788 192.336 307.088L192.768 307.988C195.36 307.496 197.112 306.224 197.1 303.836C197.088 301.988 195.624 300.836 193.968 300.836C192.84 300.836 191.508 301.244 190.2 302.312C190.224 302.06 190.236 301.796 190.26 301.556C190.44 301.268 190.644 300.944 190.788 300.728L190.44 300.308ZM209.196 299.516C208.944 299.048 208.572 298.484 208.296 298.076L207.624 298.364C207.936 298.772 208.26 299.324 208.512 299.816L209.196 299.516ZM207.732 299.84C207.492 299.396 207.12 298.784 206.832 298.388L206.172 298.664C206.472 299.084 206.796 299.66 207.048 300.14L207.732 299.84ZM203.412 305.324C202.764 305.324 202.212 304.892 202.212 304.148C202.212 303.38 202.788 302.9 203.412 302.9C203.88 302.9 204.264 303.116 204.456 303.632C204.576 304.76 204.12 305.324 203.412 305.324ZM205.104 300.176C205.104 299.864 205.116 299.588 205.116 299.408C205.116 299.264 205.152 298.796 205.176 298.664H204.072C204.108 298.808 204.144 299.168 204.156 299.408C204.168 299.576 204.168 299.852 204.18 300.188C202.404 300.212 200.184 300.284 198.852 300.308L198.888 301.244C200.364 301.136 202.38 301.052 204.192 301.04L204.204 302.216C203.964 302.132 203.7 302.084 203.412 302.084C202.284 302.084 201.312 302.984 201.312 304.16C201.312 305.456 202.272 306.164 203.268 306.164C203.652 306.164 204 306.068 204.276 305.864C203.784 306.92 202.692 307.556 201.144 307.916L201.96 308.72C204.732 307.892 205.5 306.104 205.5 304.496C205.5 303.908 205.368 303.392 205.128 302.984C205.116 302.432 205.104 301.712 205.104 301.028H205.26C207 301.028 208.068 301.052 208.74 301.088L208.752 300.188C208.188 300.188 206.724 300.176 205.272 300.176H205.104ZM214.152 298.556C214.152 299.36 214.02 300.284 213.852 301.136C213.132 301.196 212.436 301.256 212.04 301.268C211.668 301.28 211.356 301.292 210.984 301.268L211.08 302.312C211.392 302.264 211.872 302.204 212.148 302.168C212.46 302.132 213.036 302.072 213.648 302.012C213.252 303.596 212.364 306.284 211.152 307.904L212.136 308.3C213.396 306.284 214.2 303.62 214.632 301.916C215.148 301.868 215.616 301.832 215.904 301.832C216.66 301.832 217.152 302.024 217.152 303.104C217.152 304.4 216.972 305.936 216.6 306.74C216.348 307.256 216 307.352 215.556 307.352C215.232 307.352 214.596 307.244 214.104 307.088L214.26 308.096C214.632 308.18 215.208 308.276 215.652 308.276C216.432 308.276 217.02 308.072 217.392 307.28C217.884 306.284 218.088 304.412 218.088 302.996C218.088 301.388 217.212 300.98 216.156 300.98C215.868 300.98 215.376 301.016 214.824 301.052C214.956 300.416 215.064 299.72 215.124 299.372C215.172 299.144 215.22 298.892 215.268 298.676L214.152 298.556ZM218.472 300.32C219.312 301.316 220.248 303.404 220.596 304.628L221.532 304.184C221.124 303.08 220.104 300.896 219.36 299.936L218.472 300.32Z" fill="black"/>
<path d="M136 295.5L127.75 309.75H144.25M136 298.5L141.648 308.25H130.352" fill="#CD6709"/>
</g>
<defs>
<clipPath id="clip0_23_187">
<rect width="375" height="1015" fill="white"/>
</clipPath>
</defs>
</svg>
