<svg width="375" height="812" viewBox="0 0 375 812" fill="none" xmlns="http://www.w3.org/2000/svg">
<g clip-path="url(#clip0_5_881)">
<rect width="375" height="812" fill="white"/>
<rect width="375" height="812" fill="#F4EFED"/>
<path d="M317.667 37H344.333C345.25 37 346 36.25 346 35.3333C346 34.4167 345.25 33.6667 344.333 33.6667H317.667C316.75 33.6667 316 34.4167 316 35.3333C316 36.25 316.75 37 317.667 37ZM317.667 28.6667H344.333C345.25 28.6667 346 27.9167 346 27C346 26.0833 345.25 25.3333 344.333 25.3333H317.667C316.75 25.3333 316 26.0833 316 27C316 27.9167 316.75 28.6667 317.667 28.6667ZM316 18.6667C316 19.5833 316.75 20.3333 317.667 20.3333H344.333C345.25 20.3333 346 19.5833 346 18.6667C346 17.75 345.25 17 344.333 17H317.667C316.75 17 316 17.75 316 18.6667Z" fill="#552600"/>
<rect x="24" y="85" width="327" height="30" fill="#AC2524"/>
<path d="M139.66 98.54V95.36C140.86 95.18 142.04 94.96 143.02 94.7C143.36 94.62 143.88 94.48 144.56 94.32L142.92 92.12C141.92 92.58 139.88 93.04 137.88 93.32C135.68 93.64 132.58 93.68 131.06 93.64L131.68 95.96C133.02 95.92 135.12 95.86 137.04 95.7V98.54H131.4C130.78 98.54 130.1 98.48 129.56 98.42V101C130.08 100.96 130.82 100.92 131.44 100.92H136.94C136.56 103.88 134.96 106.02 131.92 107.42L134.46 109.14C137.84 107.12 139.28 104.28 139.58 100.92H144.76C145.3 100.92 145.98 100.96 146.52 101V98.42C146.08 98.46 145.12 98.54 144.7 98.54H139.66ZM159.26 106.04V99.6H162.68C163.12 99.6 163.74 99.64 164.24 99.68V97.16C163.76 97.22 163.16 97.26 162.68 97.26H153.52C153.08 97.26 152.38 97.24 151.94 97.16V99.68C152.38 99.64 153.1 99.6 153.52 99.6H156.64V106.04H152.56C152.06 106.04 151.44 105.98 150.92 105.92V108.54C151.46 108.46 152.08 108.44 152.56 108.44H163.6C163.96 108.44 164.7 108.46 165.12 108.54V105.92C164.72 105.96 164.16 106.04 163.6 106.04H159.26ZM178.1 96.1L175.72 96.88C176.22 97.92 177.1 100.34 177.34 101.32L179.74 100.48C179.46 99.56 178.48 96.96 178.1 96.1ZM182.66 96.66C182.44 99.16 181.48 101.82 180.12 103.52C178.46 105.6 175.68 107.12 173.48 107.7L175.58 109.84C177.92 108.96 180.42 107.28 182.28 104.88C183.64 103.12 184.48 101.04 185 99.02C185.12 98.62 185.24 98.2 185.48 97.56L182.66 96.66ZM173.46 97.16L171.06 98.02C171.54 98.9 172.54 101.56 172.88 102.64L175.32 101.72C174.92 100.6 173.96 98.18 173.46 97.16ZM203.94 94.3C203.48 94.44 202.82 94.54 202.2 94.54H198.18L198.24 94.44C198.48 94 198.98 93.1 199.46 92.4L196.54 91.44C196.36 92.12 195.94 93.04 195.64 93.54C194.64 95.26 192.9 97.84 189.4 99.98L191.64 101.64C193.6 100.3 195.34 98.54 196.68 96.8H202.3C201.98 98.3 200.82 100.7 199.46 102.26C197.72 104.24 195.5 105.98 191.4 107.2L193.76 109.32C197.52 107.82 199.94 106 201.84 103.68C203.64 101.44 204.78 98.78 205.32 97C205.48 96.5 205.76 95.94 205.98 95.56L203.94 94.3ZM220.4 98.08C222.38 96.8 224.18 95.3 225.7 93.78L223.56 91.84C222.44 93.32 220.36 95.1 218.34 96.36C216.1 97.74 212.74 99.22 209.24 99.98L210.68 102.42C213 101.78 215.5 100.74 217.56 99.7V106.26C217.56 107.14 217.5 108.4 217.42 108.88H220.58C220.44 108.38 220.4 107.14 220.4 106.26V98.08ZM232.82 92.8L230.94 94.8C232.4 95.82 234.9 98 235.94 99.12L237.98 97.02C236.82 95.82 234.22 93.74 232.82 92.8ZM230.32 106.12L232 108.76C234.82 108.28 237.4 107.16 239.42 105.94C242.64 104 245.3 101.24 246.82 98.54L245.26 95.72C244 98.42 241.38 101.48 237.98 103.5C236.04 104.66 233.44 105.68 230.32 106.12Z" fill="white"/>
<rect y="777" width="375" height="35" fill="#552600"/>
<path d="M30.288 802.224C31.824 802.224 33.088 801.616 34.064 800.48L32.816 799.008C32.176 799.696 31.376 800.176 30.368 800.176C28.496 800.176 27.28 798.624 27.28 796.048C27.28 793.504 28.624 791.968 30.416 791.968C31.312 791.968 32 792.384 32.592 792.96L33.84 791.456C33.072 790.656 31.872 789.936 30.368 789.936C27.376 789.936 24.864 792.224 24.864 796.128C24.864 800.08 27.296 802.224 30.288 802.224ZM35.9716 802H43.1396V800.016H38.3396V790.16H35.9716V802ZM49.125 802.224C52.021 802.224 53.701 800.608 53.701 796.672V790.16H51.429V796.88C51.429 799.344 50.533 800.176 49.125 800.176C47.733 800.176 46.885 799.344 46.885 796.88V790.16H44.517V796.672C44.517 800.608 46.245 802.224 49.125 802.224ZM56.5498 802H60.7738C63.3818 802 65.3658 800.896 65.3658 798.512C65.3658 796.912 64.4218 796.016 63.1418 795.712V795.632C64.1498 795.28 64.7578 794.16 64.7578 793.072C64.7578 790.864 62.9018 790.16 60.4698 790.16H56.5498V802ZM58.9178 794.976V791.968H60.3258C61.7498 791.968 62.4538 792.384 62.4538 793.424C62.4538 794.368 61.7978 794.976 60.2938 794.976H58.9178ZM58.9178 800.176V796.736H60.5658C62.1978 796.736 63.0618 797.216 63.0618 798.368C63.0618 799.6 62.1818 800.176 60.5658 800.176H58.9178ZM67.4404 802H69.8084V796.88H74.2884V802H76.6404V790.16H74.2884V794.816H69.8084V790.16H67.4404V802ZM84.2538 802.224C87.3898 802.224 89.5498 799.872 89.5498 796.032C89.5498 792.192 87.3898 789.936 84.2538 789.936C81.1178 789.936 78.9578 792.176 78.9578 796.032C78.9578 799.872 81.1178 802.224 84.2538 802.224ZM84.2538 800.176C82.4938 800.176 81.3738 798.56 81.3738 796.032C81.3738 793.488 82.4938 791.968 84.2538 791.968C86.0138 791.968 87.1337 793.488 87.1337 796.032C87.1337 798.56 86.0138 800.176 84.2538 800.176ZM96.4063 802.224C99.3023 802.224 100.982 800.608 100.982 796.672V790.16H98.7103V796.88C98.7103 799.344 97.8143 800.176 96.4063 800.176C95.0143 800.176 94.1663 799.344 94.1663 796.88V790.16H91.7983V796.672C91.7983 800.608 93.5263 802.224 96.4063 802.224ZM107.18 802.224C109.916 802.224 111.532 800.576 111.532 798.64C111.532 796.928 110.588 796.016 109.148 795.424L107.596 794.768C106.588 794.368 105.74 794.064 105.74 793.216C105.74 792.432 106.411 791.968 107.452 791.968C108.428 791.968 109.212 792.32 109.964 792.944L111.164 791.456C110.204 790.48 108.828 789.936 107.452 789.936C105.052 789.936 103.356 791.424 103.356 793.36C103.356 795.088 104.556 796.048 105.756 796.544L107.34 797.216C108.396 797.664 109.116 797.936 109.116 798.816C109.116 799.648 108.46 800.176 107.228 800.176C106.188 800.176 105.068 799.648 104.22 798.864L102.86 800.496C104.012 801.6 105.596 802.224 107.18 802.224ZM113.628 802H121.068V800.016H115.996V796.848H120.156V794.864H115.996V792.128H120.892V790.16H113.628V802Z" fill="white"/>
<rect x="24" y="217" width="327" height="235" rx="8" fill="white"/>
<path d="M72.56 425.26C75.34 425.26 77.12 422.72 77.12 417.62C77.12 412.54 75.34 410.06 72.56 410.06C69.76 410.06 67.98 412.52 67.98 417.62C67.98 422.72 69.76 425.26 72.56 425.26ZM72.56 423.8C70.88 423.8 69.76 421.94 69.76 417.62C69.76 413.34 70.88 411.54 72.56 411.54C74.22 411.54 75.34 413.34 75.34 417.62C75.34 421.94 74.22 423.8 72.56 423.8ZM83.6538 425.26C86.4338 425.26 88.2138 422.72 88.2138 417.62C88.2138 412.54 86.4338 410.06 83.6538 410.06C80.8538 410.06 79.0738 412.52 79.0738 417.62C79.0738 422.72 80.8538 425.26 83.6538 425.26ZM83.6538 423.8C81.9738 423.8 80.8538 421.94 80.8538 417.62C80.8538 413.34 81.9738 411.54 83.6538 411.54C85.3138 411.54 86.4338 413.34 86.4338 417.62C86.4338 421.94 85.3138 423.8 83.6538 423.8ZM98.1675 408.88C98.0275 411.52 98.0275 421.06 89.9275 425.2C90.3875 425.52 90.8675 425.98 91.1275 426.34C96.1875 423.6 98.2475 418.78 99.1275 414.78C100.088 418.78 102.288 423.9 107.448 426.34C107.668 425.94 108.128 425.44 108.548 425.12C101.028 421.68 99.9475 412.44 99.7675 409.8C99.7875 409.46 99.7875 409.14 99.8075 408.88H98.1675Z" fill="black"/>
<path d="M75.34 373.52C75.2 376.16 75.48 385.24 67.5 389.66C68.3 390.22 69.08 390.94 69.5 391.56C73.72 388.98 75.82 385.12 76.9 381.52C78.02 385.2 80.26 389.32 84.78 391.56C85.16 390.92 85.88 390.1 86.62 389.54C79.16 386.04 78.16 377.42 78 374.66C78.02 374.24 78.04 373.84 78.06 373.52H75.34ZM97.72 385.36V383.44C97.84 383.56 97.92 383.66 98 383.74C98.32 383.3 98.64 382.82 98.92 382.3C99.28 383.74 99.72 385.06 100.28 386.24C99.4 387.48 98.24 388.48 96.76 389.26C96.3 388.92 95.72 388.56 95.1 388.2C95.6 387.42 95.94 386.48 96.16 385.36H97.72ZM91.98 385.36H93.92C93.74 386.08 93.48 386.68 93.16 387.18C92.58 386.9 92 386.66 91.4 386.42L91.98 385.36ZM102.74 378.86C102.52 380.62 102.16 382.2 101.66 383.56C101.12 382.12 100.72 380.54 100.44 378.86H102.74ZM106.32 378.86V376.66H101C101.26 375.6 101.48 374.5 101.64 373.38L99.24 373.06C98.76 376.62 97.8 380.02 96.1 382.06C96.54 382.36 97.26 382.98 97.72 383.44H92.96L93.44 382.48L92.58 382.3H93.86V379.88C94.64 380.5 95.48 381.2 95.92 381.62L97.18 379.98C96.74 379.68 95.32 378.84 94.36 378.3H97.64V376.42H95.74C96.22 375.8 96.84 374.96 97.46 374.1L95.46 373.3C95.14 374.06 94.58 375.12 94.12 375.84L95.44 376.42H93.86V373.06H91.68V376.42H90L91.28 375.86C91.12 375.16 90.6 374.14 90.08 373.38L88.36 374.1C88.78 374.82 89.22 375.74 89.4 376.42H87.88V378.3H91C90.04 379.34 88.7 380.3 87.48 380.8C87.92 381.22 88.42 382 88.68 382.52C89.68 381.96 90.76 381.12 91.68 380.2V382.12L91.24 382.02C91.04 382.46 90.8 382.94 90.56 383.44H87.66V385.36H89.56C89.06 386.32 88.56 387.22 88.12 387.92L90.2 388.56L90.42 388.18C90.8 388.34 91.18 388.52 91.54 388.72C90.6 389.24 89.34 389.58 87.74 389.78C88.12 390.28 88.54 391.08 88.68 391.76C90.82 391.32 92.42 390.74 93.6 389.86C94.42 390.38 95.14 390.9 95.68 391.36L96.58 390.44C96.9 390.92 97.2 391.46 97.34 391.8C99.08 390.92 100.46 389.84 101.56 388.52C102.46 389.82 103.56 390.88 104.92 391.7C105.28 391.04 106.02 390.12 106.56 389.64C105.1 388.88 103.94 387.74 103.02 386.32C104.1 384.3 104.78 381.82 105.2 378.86H106.32Z" fill="black"/>
<path d="M72.56 345.26C75.34 345.26 77.12 342.72 77.12 337.62C77.12 332.54 75.34 330.06 72.56 330.06C69.76 330.06 67.98 332.52 67.98 337.62C67.98 342.72 69.76 345.26 72.56 345.26ZM72.56 343.8C70.88 343.8 69.76 341.94 69.76 337.62C69.76 333.34 70.88 331.54 72.56 331.54C74.22 331.54 75.34 333.34 75.34 337.62C75.34 341.94 74.22 343.8 72.56 343.8ZM83.6538 345.26C86.4338 345.26 88.2138 342.72 88.2138 337.62C88.2138 332.54 86.4338 330.06 83.6538 330.06C80.8538 330.06 79.0738 332.52 79.0738 337.62C79.0738 342.72 80.8538 345.26 83.6538 345.26ZM83.6538 343.8C81.9738 343.8 80.8538 341.94 80.8538 337.62C80.8538 333.34 81.9738 331.54 83.6538 331.54C85.3138 331.54 86.4338 333.34 86.4338 337.62C86.4338 341.94 85.3138 343.8 83.6538 343.8ZM94.6475 338.88C94.8075 337.7 94.8675 336.56 94.8675 335.52H104.008V338.88H94.6475ZM104.008 330.78V334.1H94.8675V330.78H104.008ZM105.548 329.32H93.3675V335.44C93.3675 338.62 93.0475 342.68 89.8675 345.48C90.1675 345.7 90.7675 346.24 90.9675 346.56C92.9075 344.86 93.9075 342.6 94.4075 340.34H104.008V344.34C104.008 344.78 103.848 344.92 103.388 344.94C102.928 344.94 101.328 344.96 99.6475 344.9C99.9075 345.32 100.188 346.02 100.288 346.44C102.428 346.44 103.748 346.42 104.508 346.16C105.248 345.92 105.548 345.4 105.548 344.36V329.32ZM114.748 345.26C117.528 345.26 119.308 342.72 119.308 337.62C119.308 332.54 117.528 330.06 114.748 330.06C111.948 330.06 110.168 332.52 110.168 337.62C110.168 342.72 111.948 345.26 114.748 345.26ZM114.748 343.8C113.068 343.8 111.948 341.94 111.948 337.62C111.948 333.34 113.068 331.54 114.748 331.54C116.408 331.54 117.528 333.34 117.528 337.62C117.528 341.94 116.408 343.8 114.748 343.8ZM125.841 345.26C128.621 345.26 130.401 342.72 130.401 337.62C130.401 332.54 128.621 330.06 125.841 330.06C123.041 330.06 121.261 332.52 121.261 337.62C121.261 342.72 123.041 345.26 125.841 345.26ZM125.841 343.8C124.161 343.8 123.041 341.94 123.041 337.62C123.041 333.34 124.161 331.54 125.841 331.54C127.501 331.54 128.621 333.34 128.621 337.62C128.621 341.94 127.501 343.8 125.841 343.8ZM136.475 343.54V337.96H146.395V343.54H136.475ZM146.395 331.1V336.5H136.475V331.1H146.395ZM134.975 329.64V346.3H136.475V345H146.395V346.22H147.955V329.64H134.975Z" fill="black"/>
<path d="M72.56 307.8V303.32H81.44V307.8H72.56ZM81.44 296.66V300.96H72.56V296.66H81.44ZM70.1 294.26V311.5H72.56V310.2H81.44V311.46H84V294.26H70.1ZM92.34 296.4V299.92H90.5V296.4H92.34ZM90.5 305.76V302H92.34V305.76H90.5ZM94.56 294.28H88.3V309.64H90.5V307.88H94.56V294.28ZM95.74 306.2C96.64 307.22 97.66 308.64 98.02 309.56L100.06 308.38C99.64 307.4 98.56 306.08 97.64 305.1L95.74 306.2ZM106.32 301.08V299H101.76V297.24H105.76V295.16H101.76V293.06H99.42V295.16H95.58V297.24H99.42V299H94.9V301.08H101.96V302.8H94.94V304.86H101.96V309.16C101.96 309.44 101.86 309.52 101.54 309.52C101.24 309.52 100.12 309.52 99.16 309.48C99.48 310.12 99.84 311.06 99.92 311.72C101.4 311.72 102.48 311.66 103.26 311.32C104.04 310.96 104.26 310.36 104.26 309.22V304.86H106.18V302.8H104.26V301.08H106.32Z" fill="black"/>
<path d="M177.56 345.26C180.34 345.26 182.12 342.72 182.12 337.62C182.12 332.54 180.34 330.06 177.56 330.06C174.76 330.06 172.98 332.52 172.98 337.62C172.98 342.72 174.76 345.26 177.56 345.26ZM177.56 343.8C175.88 343.8 174.76 341.94 174.76 337.62C174.76 333.34 175.88 331.54 177.56 331.54C179.22 331.54 180.34 333.34 180.34 337.62C180.34 341.94 179.22 343.8 177.56 343.8ZM188.654 345.26C191.434 345.26 193.214 342.72 193.214 337.62C193.214 332.54 191.434 330.06 188.654 330.06C185.854 330.06 184.074 332.52 184.074 337.62C184.074 342.72 185.854 345.26 188.654 345.26ZM188.654 343.8C186.974 343.8 185.854 341.94 185.854 337.62C185.854 333.34 186.974 331.54 188.654 331.54C190.314 331.54 191.434 333.34 191.434 337.62C191.434 341.94 190.314 343.8 188.654 343.8ZM196.968 337.2C197.688 337.2 198.288 336.62 198.288 335.82C198.288 334.98 197.688 334.4 196.968 334.4C196.248 334.4 195.648 334.98 195.648 335.82C195.648 336.62 196.248 337.2 196.968 337.2ZM196.968 345.26C197.688 345.26 198.288 344.7 198.288 343.88C198.288 343.06 197.688 342.46 196.968 342.46C196.248 342.46 195.648 343.06 195.648 343.88C195.648 344.7 196.248 345.26 196.968 345.26ZM205.314 345.26C208.094 345.26 209.874 342.72 209.874 337.62C209.874 332.54 208.094 330.06 205.314 330.06C202.514 330.06 200.734 332.52 200.734 337.62C200.734 342.72 202.514 345.26 205.314 345.26ZM205.314 343.8C203.634 343.8 202.514 341.94 202.514 337.62C202.514 333.34 203.634 331.54 205.314 331.54C206.974 331.54 208.094 333.34 208.094 337.62C208.094 341.94 206.974 343.8 205.314 343.8ZM216.408 345.26C219.188 345.26 220.968 342.72 220.968 337.62C220.968 332.54 219.188 330.06 216.408 330.06C213.608 330.06 211.828 332.52 211.828 337.62C211.828 342.72 213.608 345.26 216.408 345.26ZM216.408 343.8C214.728 343.8 213.608 341.94 213.608 337.62C213.608 333.34 214.728 331.54 216.408 331.54C218.068 331.54 219.188 333.34 219.188 337.62C219.188 341.94 218.068 343.8 216.408 343.8ZM235.881 340.1C238.001 340.1 239.841 338.88 241.101 336.6L239.681 335.84C238.861 337.42 237.481 338.48 235.901 338.48C234.461 338.48 233.581 337.86 232.501 336.84C231.101 335.44 229.821 334.7 228.001 334.7C225.881 334.7 224.041 335.92 222.781 338.2L224.201 338.96C225.021 337.38 226.401 336.32 227.981 336.32C229.441 336.32 230.301 336.94 231.381 337.96C232.781 339.34 234.061 340.1 235.881 340.1Z" fill="black"/>
<path d="M139.04 253.86C138.88 254.62 138.66 255.58 138.66 256.72C138.66 259.44 140.92 260.96 145.46 260.96C148.24 260.96 150.62 260.7 152.34 260.3L152.32 257.5C150.56 257.98 148.04 258.28 145.36 258.28C142.5 258.28 141.32 257.36 141.32 256.1C141.32 255.44 141.46 254.82 141.64 254.1L139.04 253.86ZM150.1 244.24C150.38 244.64 150.68 245.16 150.96 245.68C149.44 245.82 147.26 245.94 145.36 245.94C143.28 245.94 141.44 245.86 139.98 245.7V248.34C141.58 248.46 143.3 248.56 145.38 248.56C147.26 248.56 149.72 248.42 151.1 248.32V245.94C151.3 246.34 151.5 246.72 151.66 247.04L153.28 246.34C152.9 245.6 152.18 244.34 151.68 243.6L150.1 244.24ZM152.46 243.34C153.02 244.1 153.66 245.26 154.08 246.1L155.66 245.42C155.32 244.72 154.58 243.44 154.04 242.7L152.46 243.34ZM173.32 250.5L172.88 250.66H169.72L170.2 249.88C169.74 249.66 169.14 249.44 168.48 249.18C170.16 248.04 171.82 246.66 173.1 245.38L171.4 244.04L170.86 244.18H158.9V246.36H168.56C167.78 247.04 166.88 247.7 166.02 248.24C164.9 247.82 163.78 247.44 162.88 247.12L161.7 248.92C162.98 249.4 164.6 250.04 166.08 250.66H156.98V252.92H164.88V259.06C164.88 259.36 164.76 259.44 164.38 259.46C163.98 259.46 162.5 259.46 161.32 259.42C161.68 260.04 162.06 261.02 162.18 261.7C163.9 261.7 165.2 261.68 166.12 261.34C167.08 261 167.36 260.4 167.36 259.14V252.92H171.58C171.08 253.82 170.5 254.72 170.02 255.38L172.06 256.56C173.18 255.22 174.36 253.22 175.26 251.34L173.32 250.5ZM177.42 254.76C177.26 256.44 176.94 258.22 176.36 259.4C176.88 259.58 177.76 260 178.18 260.26C178.76 258.98 179.18 256.98 179.38 255.1L177.42 254.76ZM181.88 255.2C182.38 256.42 182.9 258.04 183.06 259.06L184.94 258.4C184.7 257.38 184.18 255.82 183.64 254.64L181.88 255.2ZM188.12 246.44C188.5 245.52 188.84 244.56 189.1 243.58L186.66 243.06C186.02 245.58 184.84 248.14 183.36 249.72L183.22 249.48L181.54 250.22C181.78 250.64 182.02 251.12 182.24 251.6L180.22 251.68C181.52 250.06 182.92 248.02 184.04 246.26L182.02 245.42C181.54 246.42 180.9 247.58 180.18 248.7C179.98 248.44 179.74 248.14 179.48 247.86C180.2 246.74 181.02 245.2 181.74 243.82L179.64 243.08C179.32 244.12 178.74 245.46 178.18 246.56C178.02 246.42 177.86 246.28 177.7 246.14L176.58 247.78C177.42 248.58 178.4 249.66 178.98 250.52C178.68 250.96 178.36 251.38 178.06 251.76L176.58 251.82L176.78 253.9L179.74 253.7V261.76H181.84V253.54L182.98 253.46C183.1 253.86 183.2 254.22 183.26 254.54L185.06 253.7C184.84 252.7 184.2 251.22 183.5 249.96C184.1 250.32 184.98 250.92 185.38 251.28C185.98 250.56 186.54 249.68 187.08 248.7H192.6C192.38 255.52 192.08 258.44 191.48 259.06C191.24 259.32 191.02 259.4 190.64 259.4C190.1 259.4 188.96 259.4 187.7 259.28C188.14 259.96 188.46 261 188.5 261.68C189.66 261.72 190.9 261.74 191.62 261.62C192.46 261.5 192.98 261.28 193.54 260.52C194.38 259.46 194.66 256.3 194.92 247.54C194.94 247.24 194.94 246.44 194.94 246.44H188.12ZM190.38 255.58C189.96 254.32 188.82 252.48 187.78 251.1L185.88 252.06C186.9 253.5 187.94 255.42 188.32 256.68L190.38 255.58ZM200.2 248.7H204.76C204.66 251.16 203.98 254.12 200.2 256.08V248.7ZM214.24 246.38H207.24V243.06H204.78V246.38H197.82V261.78H200.2V256.14C200.78 256.58 201.52 257.42 201.86 257.9C204.04 256.62 205.38 254.98 206.16 253.3C207.62 254.76 209.12 256.38 209.92 257.48L211.88 255.94C210.8 254.56 208.64 252.5 206.94 250.96C207.1 250.18 207.18 249.44 207.22 248.7H211.88V258.96C211.88 259.32 211.76 259.42 211.38 259.44C211 259.44 209.66 259.46 208.48 259.4C208.82 260.02 209.18 261.08 209.26 261.76C211.04 261.76 212.32 261.72 213.14 261.34C213.98 260.96 214.24 260.3 214.24 259.02V246.38ZM219.8 246.82H232.1V248.96H234.54V244.66H227.16V243.06H224.72V244.66H217.48V248.96H219.8V246.82ZM227.22 248.56C228.96 249.64 231.1 251.26 232.12 252.38L233.92 250.82C232.82 249.7 230.58 248.16 228.9 247.16L227.22 248.56ZM222.38 247.2C221.38 248.58 219.66 249.86 217.94 250.64C218.42 251.08 219.24 252.04 219.58 252.54C221.42 251.48 223.42 249.78 224.68 247.98L222.38 247.2ZM222.88 254.88C224.2 253.9 225.32 252.84 226.08 251.86C226.9 252.88 228.1 253.92 229.46 254.88H222.88ZM222.72 259.08V256.96H229.3V259.08H222.72ZM224.76 249.7C223.26 251.82 220.14 254.32 216.88 255.6C217.34 256.12 217.92 257.04 218.22 257.62C218.96 257.3 219.7 256.92 220.42 256.5V261.74H222.72V261.18H229.3V261.72H231.72V256.32C232.48 256.74 233.24 257.12 233.96 257.44C234.36 256.76 234.9 255.88 235.44 255.28C232.38 254.28 229.3 252.28 227.18 249.7H224.76Z" fill="black"/>
<rect x="25" y="548" width="327" height="126" rx="8" fill="#EAD3B8"/>
<path d="M135.82 638.72C135.2 638.14 133.94 637.46 132.88 637.06L132.08 637.92C133.12 638.36 134.36 639.08 134.96 639.68L135.82 638.72ZM124.68 643.6C124.46 645.12 124.14 646.52 123.74 647.76C123.04 647.12 122.04 646.42 121.12 645.86C121.44 645.14 121.72 644.4 121.98 643.6H124.68ZM125.32 642.2L125.06 642.26H122.38C122.6 641.38 122.82 640.48 122.98 639.54H126.76V638.18H119.04V639.54H121.54C120.96 642.68 120 645.6 118.52 647.48C118.84 647.7 119.44 648.2 119.66 648.46C119.98 648.02 120.28 647.54 120.56 647.02C121.52 647.68 122.56 648.5 123.24 649.2C122.26 651.58 120.92 653.34 119.3 654.52C119.64 654.72 120.12 655.24 120.36 655.56C123.3 653.32 125.42 649 126.18 642.48L125.32 642.2ZM135.18 647.48C134.54 648.52 133.64 649.52 132.56 650.44C132.3 649.6 132.04 648.66 131.84 647.62L136.98 647.08L136.84 645.86L131.62 646.4C131.52 645.78 131.42 645.16 131.34 644.5L136.12 644.02L135.98 642.84L131.22 643.3C131.16 642.72 131.1 642.1 131.06 641.48L136.38 641.02L136.3 639.8L131 640.26C130.96 639.26 130.94 638.24 130.94 637.18H129.48C129.5 638.26 129.52 639.34 129.58 640.4L126.52 640.66L126.62 641.88L129.66 641.62C129.7 642.24 129.74 642.84 129.8 643.44L127 643.72L127.12 644.92L129.94 644.64C130 645.3 130.1 645.92 130.2 646.54L126.5 646.92L126.62 648.16L130.42 647.76C130.68 649.1 131 650.3 131.38 651.36C129.64 652.58 127.6 653.56 125.56 654.1C125.88 654.42 126.24 654.96 126.4 655.34C128.3 654.76 130.2 653.78 131.9 652.6C132.74 654.38 133.84 655.44 135.22 655.44C136.58 655.44 137.04 654.7 137.3 652.2C136.98 652.06 136.5 651.74 136.24 651.42C136.12 653.4 135.9 654.04 135.34 654.04C134.48 654.04 133.72 653.2 133.06 651.72C134.36 650.66 135.46 649.46 136.26 648.24L135.18 647.48ZM143.06 638.22C143.04 638.7 142.98 639.3 142.9 639.92C142.66 641.52 142.3 644.44 142.3 646.32C142.3 647.6 142.4 648.72 142.5 649.46L144.06 649.34C143.92 648.36 143.92 647.68 144.02 646.92C144.26 644.32 146.54 640.74 149 640.74C151.1 640.74 152.14 642.98 152.14 646.1C152.14 651.08 148.78 652.8 144.48 653.46L145.42 654.9C150.34 654 153.8 651.58 153.8 646.08C153.8 641.92 151.9 639.28 149.26 639.28C146.76 639.28 144.68 641.74 143.9 643.78C144.02 642.4 144.4 639.74 144.82 638.28L143.06 638.22Z" fill="black"/>
<path d="M182.16 654.672C189.36 654.672 194.16 648.336 194.16 636.096C194.16 623.856 189.36 617.808 182.16 617.808C174.912 617.808 170.112 623.808 170.112 636.096C170.112 648.336 174.912 654.672 182.16 654.672ZM182.16 649.152C179.088 649.152 176.784 646.08 176.784 636.096C176.784 626.16 179.088 623.28 182.16 623.28C185.184 623.28 187.488 626.16 187.488 636.096C187.488 646.08 185.184 649.152 182.16 649.152ZM210.426 654.672C217.626 654.672 222.426 648.336 222.426 636.096C222.426 623.856 217.626 617.808 210.426 617.808C203.178 617.808 198.378 623.808 198.378 636.096C198.378 648.336 203.178 654.672 210.426 654.672ZM210.426 649.152C207.354 649.152 205.05 646.08 205.05 636.096C205.05 626.16 207.354 623.28 210.426 623.28C213.45 623.28 215.754 626.16 215.754 636.096C215.754 646.08 213.45 649.152 210.426 649.152Z" fill="black"/>
<path d="M247.36 648.58H242.52V644.02H247.36V648.58ZM241.1 642.68V649.9H248.82V642.68H241.1ZM238.22 653.04V639.58H251.72V653.04H238.22ZM236.72 638.1V655.52H238.22V654.44H251.72V655.52H253.3V638.1H236.72Z" fill="black"/>
<path d="M148.62 585.06H145.1V581.6H148.62V585.06ZM142.86 579.52V587.12H151.02V579.52H142.86ZM140.94 589.44V577.16H152.96V589.44H140.94ZM138.46 574.72V592.72H140.94V591.66H152.96V592.72H155.56V574.72H138.46ZM167.72 586.36V584.44C167.84 584.56 167.92 584.66 168 584.74C168.32 584.3 168.64 583.82 168.92 583.3C169.28 584.74 169.72 586.06 170.28 587.24C169.4 588.48 168.24 589.48 166.76 590.26C166.3 589.92 165.72 589.56 165.1 589.2C165.6 588.42 165.94 587.48 166.16 586.36H167.72ZM161.98 586.36H163.92C163.74 587.08 163.48 587.68 163.16 588.18C162.58 587.9 162 587.66 161.4 587.42L161.98 586.36ZM172.74 579.86C172.52 581.62 172.16 583.2 171.66 584.56C171.12 583.12 170.72 581.54 170.44 579.86H172.74ZM176.32 579.86V577.66H171C171.26 576.6 171.48 575.5 171.64 574.38L169.24 574.06C168.76 577.62 167.8 581.02 166.1 583.06C166.54 583.36 167.26 583.98 167.72 584.44H162.96L163.44 583.48L162.58 583.3H163.86V580.88C164.64 581.5 165.48 582.2 165.92 582.62L167.18 580.98C166.74 580.68 165.32 579.84 164.36 579.3H167.64V577.42H165.74C166.22 576.8 166.84 575.96 167.46 575.1L165.46 574.3C165.14 575.06 164.58 576.12 164.12 576.84L165.44 577.42H163.86V574.06H161.68V577.42H160L161.28 576.86C161.12 576.16 160.6 575.14 160.08 574.38L158.36 575.1C158.78 575.82 159.22 576.74 159.4 577.42H157.88V579.3H161C160.04 580.34 158.7 581.3 157.48 581.8C157.92 582.22 158.42 583 158.68 583.52C159.68 582.96 160.76 582.12 161.68 581.2V583.12L161.24 583.02C161.04 583.46 160.8 583.94 160.56 584.44H157.66V586.36H159.56C159.06 587.32 158.56 588.22 158.12 588.92L160.2 589.56L160.42 589.18C160.8 589.34 161.18 589.52 161.54 589.72C160.6 590.24 159.34 590.58 157.74 590.78C158.12 591.28 158.54 592.08 158.68 592.76C160.82 592.32 162.42 591.74 163.6 590.86C164.42 591.38 165.14 591.9 165.68 592.36L166.58 591.44C166.9 591.92 167.2 592.46 167.34 592.8C169.08 591.92 170.46 590.84 171.56 589.52C172.46 590.82 173.56 591.88 174.92 592.7C175.28 592.04 176.02 591.12 176.56 590.64C175.1 589.88 173.94 588.74 173.02 587.32C174.1 585.3 174.78 582.82 175.2 579.86H176.32ZM183.02 584.86C183.52 584.34 183.96 583.78 184.38 583.18H189.72C190.1 583.78 190.54 584.34 191 584.86H183.02ZM187.86 579.44C188.06 580 188.28 580.52 188.52 581.04H185.68C185.94 580.52 186.2 579.98 186.42 579.44H187.86ZM195.92 583.18V581.04H191.02C190.72 580.52 190.44 580 190.2 579.44H194.82V577.34H192.06C192.5 576.64 193.04 575.76 193.52 574.88L191.16 574.18C190.82 575.12 190.16 576.4 189.66 577.24L189.96 577.34H187.18C187.48 576.4 187.74 575.42 187.96 574.44L185.46 574.02C185.26 575.14 185 576.26 184.64 577.34H183.16L183.8 577.1C183.52 576.32 182.88 575.14 182.24 574.28L180.26 575C180.72 575.72 181.22 576.62 181.5 577.34H179.34V579.44H183.82C183.56 580 183.28 580.52 182.96 581.04H178.04V583.18H181.32C180.28 584.26 179.04 585.18 177.54 585.88C178 586.34 178.68 587.26 179 587.82C179.9 587.36 180.72 586.84 181.46 586.26V587H184.44C183.98 588.74 182.9 590 179.4 590.74C179.9 591.22 180.5 592.18 180.72 592.78C185.08 591.66 186.4 589.72 186.94 587H190.08C189.92 589.1 189.72 590.04 189.44 590.32C189.24 590.5 189.06 590.54 188.72 590.54C188.32 590.54 187.5 590.52 186.6 590.46C187 591.06 187.28 592 187.3 592.68C188.34 592.72 189.32 592.72 189.9 592.64C190.54 592.56 191.02 592.38 191.48 591.88C192.02 591.28 192.3 589.74 192.52 586.34C193.24 586.92 194.02 587.42 194.86 587.84C195.2 587.22 195.9 586.32 196.42 585.88C194.96 585.26 193.68 584.34 192.62 583.18H195.92ZM203.18 581.12C203.02 582.2 202.82 583.22 202.56 584.16C202.02 583.68 201.38 583.2 200.78 582.78C201 582.26 201.2 581.7 201.38 581.12H203.18ZM204.16 578.94L203.78 579H201.96C202.1 578.42 202.24 577.8 202.34 577.2H205.7V575.04H197.98V577.2H200.06C199.52 580.06 198.62 582.7 197.3 584.42C197.8 584.78 198.7 585.58 199.08 585.96C199.36 585.58 199.62 585.18 199.86 584.72C200.54 585.26 201.24 585.88 201.76 586.46C200.88 588.48 199.72 590.04 198.26 591.1C198.74 591.42 199.56 592.24 199.9 592.74C202.84 590.44 204.82 585.88 205.52 579.32L204.16 578.94ZM213.96 584.32C213.44 585.1 212.8 585.84 212.02 586.52C211.86 585.92 211.72 585.28 211.58 584.58L213.96 584.32ZM214.4 584.28L216.06 584.1L215.9 582.24L211.26 582.7C211.22 582.38 211.18 582.02 211.12 581.68L215.22 581.3L215.04 579.48L210.92 579.84C210.9 579.5 210.86 579.16 210.84 578.82L215.42 578.42L215.26 576.54L214.12 576.64L215.2 575.5C214.64 574.94 213.52 574.24 212.58 573.82L211.28 575.14C212.04 575.54 212.96 576.16 213.54 576.68L210.74 576.92C210.7 575.94 210.68 574.96 210.7 573.98H208.34C208.34 575.02 208.38 576.06 208.42 577.12L205.5 577.36L205.66 579.28L208.54 579.02C208.56 579.38 208.58 579.72 208.62 580.06L206.06 580.28L206.24 582.14L208.82 581.9C208.86 582.24 208.9 582.6 208.96 582.94L205.54 583.28L205.74 585.2L209.26 584.82C209.48 585.98 209.74 587.08 210.06 588.04C208.36 589.16 206.38 590.02 204.38 590.5C204.88 591.04 205.38 591.9 205.66 592.48C207.44 591.92 209.22 591.06 210.84 590.02C211.64 591.64 212.68 592.64 213.96 592.64C215.56 592.64 216.18 591.94 216.56 589.4C216.04 589.16 215.36 588.64 214.9 588.1C214.8 589.8 214.6 590.36 214.22 590.36C213.7 590.36 213.18 589.72 212.72 588.64C213.98 587.62 215.04 586.46 215.82 585.28L214.4 584.28ZM227.72 586.36V584.44C227.84 584.56 227.92 584.66 228 584.74C228.32 584.3 228.64 583.82 228.92 583.3C229.28 584.74 229.72 586.06 230.28 587.24C229.4 588.48 228.24 589.48 226.76 590.26C226.3 589.92 225.72 589.56 225.1 589.2C225.6 588.42 225.94 587.48 226.16 586.36H227.72ZM221.98 586.36H223.92C223.74 587.08 223.48 587.68 223.16 588.18C222.58 587.9 222 587.66 221.4 587.42L221.98 586.36ZM232.74 579.86C232.52 581.62 232.16 583.2 231.66 584.56C231.12 583.12 230.72 581.54 230.44 579.86H232.74ZM236.32 579.86V577.66H231C231.26 576.6 231.48 575.5 231.64 574.38L229.24 574.06C228.76 577.62 227.8 581.02 226.1 583.06C226.54 583.36 227.26 583.98 227.72 584.44H222.96L223.44 583.48L222.58 583.3H223.86V580.88C224.64 581.5 225.48 582.2 225.92 582.62L227.18 580.98C226.74 580.68 225.32 579.84 224.36 579.3H227.64V577.42H225.74C226.22 576.8 226.84 575.96 227.46 575.1L225.46 574.3C225.14 575.06 224.58 576.12 224.12 576.84L225.44 577.42H223.86V574.06H221.68V577.42H220L221.28 576.86C221.12 576.16 220.6 575.14 220.08 574.38L218.36 575.1C218.78 575.82 219.22 576.74 219.4 577.42H217.88V579.3H221C220.04 580.34 218.7 581.3 217.48 581.8C217.92 582.22 218.42 583 218.68 583.52C219.68 582.96 220.76 582.12 221.68 581.2V583.12L221.24 583.02C221.04 583.46 220.8 583.94 220.56 584.44H217.66V586.36H219.56C219.06 587.32 218.56 588.22 218.12 588.92L220.2 589.56L220.42 589.18C220.8 589.34 221.18 589.52 221.54 589.72C220.6 590.24 219.34 590.58 217.74 590.78C218.12 591.28 218.54 592.08 218.68 592.76C220.82 592.32 222.42 591.74 223.6 590.86C224.42 591.38 225.14 591.9 225.68 592.36L226.58 591.44C226.9 591.92 227.2 592.46 227.34 592.8C229.08 591.92 230.46 590.84 231.56 589.52C232.46 590.82 233.56 591.88 234.92 592.7C235.28 592.04 236.02 591.12 236.56 590.64C235.1 589.88 233.94 588.74 233.02 587.32C234.1 585.3 234.78 582.82 235.2 579.86H236.32Z" fill="black"/>
<path d="M88.504 173.448H93.568V175.704H96.424V173.448H101.632V170.712H96.424V168.672H93.568V170.712H88.504V168.672H85.672V170.712H80.368V173.448H85.672V175.416C84.328 178.248 81.952 181.08 79.456 182.808C80.128 183.264 81.28 184.272 81.808 184.824C82.504 184.248 83.224 183.576 83.92 182.832V191.088H86.752V179.28C87.4 178.32 88 177.312 88.504 176.28L86.464 175.656H88.504V173.448ZM95.2 188.088C94.144 188.088 94 187.944 94 186.888V183.168C96.496 182.184 99.256 180.936 101.368 179.64L99.232 177.48C97.888 178.464 95.968 179.616 94 180.552V175.824H91.168V186.888C91.168 189.864 91.936 190.728 94.84 190.728H98.584C101.152 190.728 101.896 189.576 102.232 185.688C101.464 185.496 100.264 185.064 99.64 184.56C99.496 187.536 99.328 188.088 98.344 188.088H95.2ZM126.016 179.136H116.512V177.6C119.224 176.04 122.152 173.736 124.192 171.624L122.008 169.992L121.36 170.136H106.504V172.944H118.384C117.352 173.784 116.128 174.648 114.952 175.344H113.536V179.136H104.008V181.992H113.536V187.704C113.536 188.136 113.368 188.256 112.864 188.256C112.312 188.256 110.464 188.256 108.808 188.184C109.264 188.976 109.816 190.296 110.008 191.136C112.192 191.16 113.872 191.088 115 190.632C116.152 190.176 116.512 189.408 116.512 187.752V181.992H126.016V179.136Z" fill="black"/>
<path d="M143.408 181.488C143 180.84 141.272 178.2 140.624 177.312V176.256H143.024V173.616H140.624V168.672H138.032V173.616H135.152V176.256H137.816C137.216 179.088 135.944 182.424 134.6 184.296C135.008 184.944 135.584 186.024 135.848 186.816C136.664 185.616 137.408 183.936 138.032 182.088V191.064H140.624V180.72C141.152 181.752 141.656 182.832 141.944 183.528L143.408 181.488ZM147.752 184.464C145.712 185.52 143.6 186.6 142.184 187.248L143.408 189.648C144.944 188.808 146.816 187.752 148.496 186.768L147.752 184.464ZM143.552 181.848C144.416 182.784 145.4 184.08 145.832 184.92L147.872 183.48C147.392 182.664 146.384 181.44 145.496 180.576L143.552 181.848ZM154.808 180.504C154.256 181.296 153.32 182.304 152.48 183.096C152.096 182.424 151.76 181.728 151.496 180.984V180.048H157.088V177.72H151.496V176.664H156.152V174.528H151.496V173.568H156.656V171.336H154.328C154.712 170.736 155.144 170.016 155.576 169.296L152.744 168.648C152.504 169.416 152.024 170.52 151.664 171.336H148.688C148.448 170.616 147.872 169.512 147.32 168.696L145.064 169.464C145.4 170.04 145.76 170.712 146 171.336H143.552V173.568H148.736V174.528H144.2V176.664H148.736V177.72H143.096V180.048H148.736V188.232C148.736 188.52 148.64 188.64 148.352 188.64C148.064 188.64 147.128 188.64 146.312 188.592C146.672 189.288 146.984 190.392 147.08 191.136C148.568 191.136 149.696 191.064 150.488 190.656C151.256 190.224 151.496 189.552 151.496 188.256V185.76C152.576 187.56 153.992 189.024 155.744 189.984C156.152 189.264 156.944 188.208 157.544 187.68C156.08 187.08 154.808 186.144 153.8 184.968C154.736 184.2 155.96 183.048 156.968 182.016L154.808 180.504Z" fill="black"/>
<path d="M42.84 174.432V186.264H37.392V169.32H34.416V186.264H29.208V174.48H26.28V190.8H29.208V189.216H42.84V190.728H45.816V174.432H42.84ZM61.296 186.48V181.152H67.056V186.48H61.296ZM52.872 181.152H58.392V186.48H52.872V181.152ZM58.392 173.016V178.296H52.872V173.016H58.392ZM67.056 178.296H61.296V173.016H67.056V178.296ZM50.016 170.256V190.824H52.872V189.36H67.056V190.824H70.032V170.256H50.016Z" fill="black"/>
<path d="M35.33 151.312C34.812 150.766 33.986 150.094 33.524 149.744L32.712 150.332C33.314 150.766 33.986 151.41 34.518 151.942L35.33 151.312ZM29.212 151.396C29.436 151.676 29.716 152.082 29.884 152.376C30.122 152.768 30.388 153.286 30.668 153.902C30.066 154.168 29.506 154.42 29.044 154.602C28.792 154.7 28.302 154.868 27.896 154.98L28.442 156.128C29.072 155.848 30.038 155.344 31.102 154.826C31.27 155.19 31.452 155.582 31.62 155.974C32.418 157.78 33.076 160.02 33.51 161.658L34.714 161.336C34.238 159.81 33.37 157.22 32.614 155.512C32.446 155.134 32.264 154.742 32.082 154.364C33.678 153.622 35.386 152.964 36.59 152.964C37.962 152.964 38.606 153.706 38.606 154.546C38.606 155.526 37.99 156.352 36.464 156.352C35.722 156.352 35.022 156.142 34.504 155.89L34.462 157.01C34.98 157.206 35.764 157.402 36.534 157.402C38.704 157.402 39.726 156.184 39.726 154.588C39.726 153.076 38.55 151.97 36.632 151.97C35.19 151.97 33.314 152.712 31.648 153.454C31.368 152.88 31.088 152.32 30.85 151.858C30.71 151.62 30.472 151.172 30.36 150.948L29.212 151.396ZM48.014 159.376C48.014 160.328 47.342 160.566 46.544 160.566C45.172 160.566 44.626 160.09 44.626 159.446C44.626 158.816 45.34 158.312 46.656 158.312C47.118 158.312 47.566 158.354 48 158.438C48 158.816 48.014 159.138 48.014 159.376ZM53.068 159.852C52.284 159.222 50.87 158.2 49.036 157.696C49.008 157.038 48.966 156.31 48.938 155.596C50.254 155.54 51.486 155.442 52.788 155.274L52.774 154.224C51.528 154.406 50.254 154.532 48.924 154.588V154.434V152.6C50.226 152.53 51.416 152.418 52.508 152.306L52.494 151.284C51.276 151.466 50.142 151.578 48.938 151.62C48.938 151.284 48.938 151.018 48.952 150.85C48.966 150.444 48.98 150.178 49.022 149.926H47.832C47.86 150.122 47.874 150.528 47.874 150.752V151.662C47.636 151.662 47.398 151.662 47.16 151.662C46.236 151.662 44.752 151.55 43.912 151.396V152.432C44.738 152.53 46.208 152.642 47.174 152.642C47.412 152.642 47.636 152.642 47.86 152.642V154.434V154.63C47.622 154.63 47.37 154.63 47.118 154.63C46.208 154.63 44.57 154.532 43.632 154.364V155.428C44.626 155.54 46.166 155.624 47.118 155.624C47.384 155.624 47.636 155.624 47.888 155.624C47.902 156.198 47.93 156.856 47.958 157.472C47.58 157.416 47.202 157.388 46.796 157.388C44.794 157.388 43.576 158.242 43.576 159.502C43.576 160.846 44.682 161.56 46.67 161.56C48.476 161.56 49.12 160.566 49.12 159.614C49.12 159.404 49.106 159.096 49.092 158.746C50.478 159.25 51.626 160.09 52.438 160.832L53.068 159.852ZM66.718 152.544C66.438 151.97 65.934 151.116 65.57 150.612L64.828 150.934C65.206 151.466 65.682 152.306 65.962 152.88L66.718 152.544ZM62.098 155.484C62.952 155.386 63.792 155.344 64.66 155.344C65.472 155.344 66.298 155.414 66.998 155.498L67.026 154.434C66.284 154.35 65.43 154.322 64.632 154.322C63.736 154.322 62.826 154.378 62.098 154.434V155.484ZM62.994 151.844C62.154 152.068 61.244 152.236 60.348 152.348L60.558 151.326C60.614 151.06 60.712 150.528 60.81 150.234L59.452 150.122C59.48 150.402 59.452 150.864 59.41 151.256C59.368 151.536 59.298 151.97 59.2 152.474C58.668 152.502 58.178 152.53 57.716 152.53C57.212 152.53 56.708 152.516 56.05 152.432L56.092 153.524C56.582 153.566 57.086 153.58 57.702 153.58C58.094 153.58 58.514 153.566 58.962 153.538C58.85 154.042 58.738 154.546 58.612 155.008C58.094 156.968 57.114 159.782 56.288 161.21L57.52 161.616C58.248 160.118 59.186 157.248 59.69 155.274C59.844 154.672 59.998 154.042 60.124 153.426C61.09 153.328 62.084 153.16 62.994 152.964V151.844ZM61.398 157.71C61.272 158.298 61.188 158.83 61.188 159.348C61.188 160.72 62.336 161.406 64.52 161.406C65.528 161.406 66.452 161.308 67.194 161.21L67.236 160.076C66.396 160.244 65.43 160.342 64.534 160.342C62.56 160.342 62.252 159.712 62.252 159.068C62.252 158.704 62.322 158.27 62.448 157.808L61.398 157.71ZM66.382 150.36C66.774 150.892 67.236 151.69 67.544 152.306L68.3 151.97C68.034 151.438 67.488 150.57 67.11 150.038L66.382 150.36Z" fill="black"/>
<path d="M84.38 150.248C84.38 150.542 84.338 150.906 84.282 151.228C84.114 152.376 83.652 155.022 83.652 157.052C83.652 158.928 83.904 160.454 84.184 161.448L85.178 161.364C85.164 161.224 85.136 161.028 85.136 160.888C85.122 160.72 85.164 160.454 85.206 160.272C85.346 159.586 85.836 158.172 86.186 157.206L85.598 156.744C85.36 157.304 85.038 158.13 84.814 158.76C84.716 158.088 84.688 157.542 84.688 156.87C84.688 155.316 85.094 152.572 85.374 151.284C85.416 151.032 85.528 150.57 85.612 150.346L84.38 150.248ZM91.45 158.844C91.45 159.768 91.114 160.342 89.938 160.342C88.944 160.342 88.272 159.95 88.272 159.264C88.272 158.62 88.986 158.158 90.022 158.158C90.512 158.158 90.988 158.228 91.436 158.382C91.45 158.55 91.45 158.718 91.45 158.844ZM95.23 159.53C94.502 158.886 93.62 158.172 92.5 157.724C92.444 156.562 92.346 155.176 92.332 153.79C93.158 153.734 93.97 153.65 94.726 153.524V152.432C93.984 152.586 93.172 152.698 92.332 152.754C92.346 152.11 92.36 151.466 92.374 151.088C92.388 150.808 92.416 150.528 92.458 150.262H91.184C91.226 150.5 91.254 150.864 91.254 151.102V152.824C90.82 152.838 90.386 152.852 89.952 152.852C89.14 152.852 88.384 152.81 87.6 152.726V153.79C88.412 153.832 89.14 153.874 89.924 153.874C90.372 153.874 90.806 153.86 91.254 153.846C91.268 154.994 91.352 156.324 91.394 157.388C91.002 157.304 90.568 157.262 90.106 157.262C88.286 157.262 87.25 158.214 87.25 159.376C87.25 160.608 88.272 161.378 90.134 161.378C92.01 161.378 92.542 160.258 92.542 159.11V158.858C93.256 159.25 93.942 159.796 94.628 160.44L95.23 159.53ZM108.992 153.664C108.334 153.16 106.752 152.264 105.744 151.816L105.198 152.684C106.122 153.104 107.62 153.958 108.362 154.588L108.992 153.664ZM103.952 151.564C103.252 151.788 102.524 151.956 101.796 152.068C102.02 151.27 102.202 150.43 102.342 149.926L101.096 149.814C101.068 150.556 100.872 151.438 100.662 152.208C100.13 152.25 99.612 152.278 99.122 152.278C98.52 152.278 97.932 152.25 97.414 152.18L97.498 153.23C98.016 153.258 98.59 153.272 99.108 153.272C99.514 153.272 99.92 153.258 100.326 153.23C99.696 154.854 98.52 157.066 97.358 158.41L98.45 158.97C99.556 157.472 100.788 155.064 101.474 153.104C102.384 152.992 103.252 152.81 103.98 152.6L103.952 151.564ZM104.68 159.306C104.68 159.992 104.302 160.622 103.168 160.622C102.09 160.622 101.572 160.188 101.572 159.544C101.572 158.914 102.244 158.452 103.266 158.452C103.756 158.452 104.232 158.522 104.666 158.648C104.68 158.9 104.68 159.124 104.68 159.306ZM104.484 154.21C104.512 155.176 104.582 156.534 104.624 157.668C104.218 157.584 103.77 157.542 103.308 157.542C101.74 157.542 100.536 158.368 100.536 159.642C100.536 161.014 101.782 161.644 103.308 161.644C105.016 161.644 105.744 160.734 105.744 159.628C105.744 159.474 105.744 159.278 105.73 159.068C106.626 159.502 107.368 160.118 107.956 160.65L108.558 159.698C107.844 159.082 106.878 158.396 105.688 157.962C105.66 157.122 105.604 156.212 105.59 155.708C105.576 155.19 105.562 154.784 105.604 154.21H104.484ZM113.318 152.334C114.424 152.432 115.6 152.488 116.986 152.488C118.26 152.488 119.786 152.39 120.724 152.32V151.172C119.73 151.27 118.316 151.368 116.986 151.368C115.6 151.368 114.326 151.312 113.318 151.186V152.334ZM112.744 156.674C112.618 157.248 112.464 157.892 112.464 158.62C112.464 160.356 114.102 161.28 116.916 161.28C118.89 161.28 120.654 161.07 121.648 160.804L121.634 159.6C120.584 159.922 118.806 160.132 116.888 160.132C114.676 160.132 113.612 159.404 113.612 158.368C113.612 157.85 113.724 157.346 113.892 156.786L112.744 156.674Z" fill="black"/>
<rect x="69" y="472" width="237" height="46" rx="8" fill="#AC2524"/>
<path d="M132.928 494.752V491.68C134.08 491.504 135.312 491.264 136.096 491.056L137.008 490.816L136.16 489.712C135.376 490.048 133.488 490.432 132.032 490.64C130.304 490.864 127.872 490.928 126.656 490.88L126.976 492.064C128.208 492.048 130.016 492 131.632 491.84V494.752H126.816C126.336 494.752 125.776 494.72 125.424 494.688V496.016C125.792 495.984 126.336 495.952 126.848 495.952H131.6C131.408 498.816 130.08 500.608 127.568 501.776L128.816 502.656C131.568 501.056 132.736 498.944 132.912 495.952H137.376C137.776 495.952 138.256 495.984 138.608 496.016V494.688C138.272 494.72 137.696 494.752 137.344 494.752H132.928ZM148.608 500.848V494.96H151.728C152.096 494.96 152.512 494.976 152.864 495.008V493.728C152.528 493.76 152.128 493.792 151.728 493.792H144.368C144.112 493.792 143.6 493.776 143.264 493.728V495.008C143.6 494.976 144.112 494.96 144.368 494.96H147.312V500.848H143.632C143.28 500.848 142.848 500.816 142.48 500.768V502.112C142.864 502.08 143.28 502.064 143.632 502.064H152.48C152.736 502.064 153.232 502.08 153.552 502.112V500.768C153.232 500.816 152.864 500.848 152.48 500.848H148.608ZM163.728 492.784L162.56 493.184C162.896 493.904 163.632 495.936 163.808 496.656L164.992 496.24C164.784 495.536 164 493.424 163.728 492.784ZM168.144 493.248C167.904 495.296 167.072 497.328 165.936 498.72C164.624 500.368 162.592 501.584 160.736 502.112L161.792 503.2C163.584 502.512 165.536 501.264 167.008 499.392C168.16 497.952 168.848 496.24 169.28 494.48C169.344 494.272 169.408 494.016 169.52 493.68L168.144 493.248ZM160.016 493.584L158.832 494.048C159.152 494.608 160.016 496.816 160.256 497.648L161.472 497.2C161.168 496.368 160.336 494.272 160.016 493.584ZM184.88 491.36C184.624 491.456 184.272 491.504 183.84 491.504H179.488C179.632 491.28 179.76 491.056 179.872 490.832C180.032 490.528 180.32 490 180.592 489.584L179.104 489.088C179.008 489.504 178.784 490.08 178.608 490.352C177.92 491.792 176.352 494.112 173.584 495.76L174.688 496.592C176.432 495.424 177.776 494 178.736 492.656H184.144C183.824 494.112 182.848 496.176 181.6 497.648C180.144 499.344 178.144 500.8 175.216 501.664L176.368 502.704C179.376 501.6 181.28 500.128 182.736 498.352C184.16 496.624 185.136 494.448 185.568 492.848C185.664 492.592 185.824 492.224 185.952 492L184.88 491.36ZM200.72 489.504C199.824 490.64 198.144 492.032 196.512 493.04C194.752 494.144 192.032 495.36 189.36 495.984L190.096 497.232C192.192 496.608 194.4 495.68 196.112 494.736V500.784C196.112 501.392 196.064 502.192 196.016 502.496H197.584C197.52 502.176 197.488 501.392 197.488 500.784V493.936C199.136 492.896 200.672 491.584 201.776 490.464L200.72 489.504ZM207.632 490.272L206.72 491.248C207.904 492.048 209.904 493.76 210.704 494.592L211.712 493.584C210.816 492.688 208.768 491.024 207.632 490.272ZM206.256 500.992L207.104 502.304C209.776 501.808 211.792 500.832 213.392 499.808C215.808 498.304 217.664 496.128 218.768 494.128L218 492.768C217.072 494.736 215.12 497.104 212.656 498.656C211.136 499.6 209.056 500.576 206.256 500.992ZM227.68 498.256C226.8 498.256 226.064 497.68 226.064 496.688C226.064 495.664 226.848 495.024 227.664 495.024C228.288 495.024 228.816 495.312 229.072 496C229.216 497.504 228.608 498.256 227.68 498.256ZM230.128 492.528C232.448 492.528 233.888 492.56 234.784 492.608L234.8 491.408C234.032 491.408 232.08 491.392 230.16 491.392H229.92C229.92 490.976 229.936 490.608 229.936 490.368L230.016 489.376H228.56C228.592 489.568 228.64 490.032 228.656 490.368C228.672 490.592 228.688 490.96 228.688 491.408C226.336 491.44 223.36 491.536 221.6 491.568L221.632 492.816C223.616 492.672 226.304 492.56 228.704 492.544C228.72 493.088 228.72 493.648 228.72 494.112C228.4 494 228.048 493.936 227.664 493.936C226.16 493.936 224.864 495.136 224.864 496.704C224.864 498.416 226.144 499.36 227.488 499.36C228.016 499.36 228.464 499.232 228.848 498.96C228.192 500.368 226.72 501.232 224.64 501.712L225.744 502.784C229.424 501.68 230.464 499.296 230.464 497.152C230.464 496.368 230.288 495.664 229.952 495.12C229.936 494.4 229.92 493.424 229.92 492.528H230.128ZM243.984 501.472C242.8 501.472 241.888 501.024 241.888 500.24C241.888 499.696 242.432 499.264 243.152 499.264C244.352 499.264 245.104 500.128 245.248 501.376C244.864 501.44 244.432 501.472 243.984 501.472ZM247.248 489.968C247.072 490.016 246.848 490.048 246.384 490.096C245.552 490.176 241.792 490.288 240.976 490.288C240.656 490.288 240.208 490.288 239.856 490.24L239.888 491.568C240.224 491.504 240.592 491.488 240.96 491.472C241.776 491.424 244.896 491.28 245.728 491.248C244.944 491.952 242.976 493.616 242.096 494.352C241.168 495.12 239.136 496.816 237.824 497.904L238.752 498.848C240.768 496.8 242.208 495.696 244.816 495.696C246.816 495.696 248.384 496.832 248.384 498.384C248.384 499.68 247.664 500.592 246.416 501.072C246.208 499.6 245.136 498.272 243.152 498.272C241.68 498.272 240.704 499.264 240.704 500.352C240.704 501.664 242.032 502.624 244.192 502.624C247.536 502.624 249.664 500.96 249.664 498.4C249.664 496.256 247.76 494.656 245.12 494.656C244.416 494.656 243.696 494.752 242.976 494.992C244.192 493.968 246.32 492.096 247.104 491.504C247.344 491.328 247.696 491.088 247.984 490.896L247.248 489.968Z" fill="white"/>
</g>
<defs>
<clipPath id="clip0_5_881">
<rect width="375" height="812" fill="white"/>
</clipPath>
</defs>
</svg>
