<?xml version="1.0" encoding="UTF-8"?><svg id="_レイヤー_1" xmlns="http://www.w3.org/2000/svg" viewBox="0 0 2500 1686"><defs><style>.cls-1,.cls-2{fill:#fff;}.cls-3{fill:#fff0dc;}.cls-4,.cls-5{fill:#ab2525;}.cls-5,.cls-2{stroke:#552600;stroke-width:3px;}.cls-5,.cls-2,.cls-6{stroke-miterlimit:10;}.cls-6{fill:none;stroke:#ac2524;stroke-width:.5px;}</style></defs><rect class="cls-3" width="2500" height="1686"/><line class="cls-6" x1="1168.46" y1="1366.49" x2="1543.46" y2="1366.49"/><rect class="cls-5" x="70" y="863" width="760" height="769.12"/><g><path class="cls-1" d="m272.59,1042.11c1.73,3.26.38,6.24-1.82,7.68-2.21,1.44-5.18,1.34-7.01-1.63-3.46-5.47-14.88-15.36-22.65-19.01-5.28-2.5-.67-10.75,6.05-7.3,3.65,1.82,7.87,4.32,11.9,7.1,5.47-3.36,15.36-10.94,19.77-15.36,1.25-1.25,2.02-3.26-.86-3.26-12-.1-35.42.29-50.3.86-7.2.29-7.87-9.5-.1-9.7,15.07-.29,38.69-.77,54.62-.48,8.64.1,14.88,7.39,9.02,14.01-5.76,6.62-15.74,14.59-24.29,20.16,2.4,2.3,4.42,4.61,5.66,6.91Z"/><path class="cls-1" d="m327.12,1040.47c-8.83,5.38-13.82-4.42-7.29-7.58,17.66-8.64,36-26.3,46.84-43.39,4.22-6.62,12.67-.48,8.54,5.09-4.32,5.76-8.45,10.94-12.58,15.74-.29,9.79-.48,34.94-.19,44.54.19,7.3-10.18,8.16-10.08.29.1-7.68.48-23.33.58-34.56-7.58,7.39-15.84,13.82-25.82,19.87Z"/><path class="cls-1" d="m482.35,1047.77c-11.52-7.49-22.27-18.24-34.65-27.74-4.51-3.46-8.06-3.46-11.71-.58-7.1,5.66-11.71,9.7-16.13,11.52-6.53,2.78-11.52-6.62-3.74-9.79,2.5-1.06,8.35-4.42,14.88-9.12,7.97-5.57,15.17-4.22,21.79.67,7.68,5.66,26.4,19.77,36.57,26.4,2.78,1.82,2.59,5.38.96,7.39-1.63,2.02-5.09,3.17-7.97,1.25Zm-12.67-33.41c-5.76,0-10.37-4.61-10.37-10.37s4.61-10.46,10.37-10.46,10.46,4.7,10.46,10.46-4.7,10.37-10.46,10.37Zm0-15.46c-2.78,0-5.09,2.3-5.09,5.09s2.3,5.09,5.09,5.09,5.09-2.3,5.09-5.09-2.3-5.09-5.09-5.09Z"/><path class="cls-1" d="m516.14,1024.73c-3.46,0-5.09-2.3-5.09-4.61s1.82-4.9,5.09-4.9h60.28c3.26,0,4.9,2.4,4.9,4.8s-1.63,4.7-4.9,4.7h-60.28Z"/><path class="cls-1" d="m623.85,1027.9c-3.55-2.3-7.97-4.22-11.9-4.9-5.76-.96-3.94-10.08,3.07-8.74,4.51.86,9.7,2.4,14.01,4.8,3.07,1.63,3.46,4.99,2.21,7.2-1.25,2.3-4.22,3.65-7.39,1.63Zm0,30.14c-7.58,2.5-10.75-7.87-3.17-9.89,19.1-5.18,40.41-26.3,50.49-45.4,3.17-5.95,12.77-2.02,8.54,5.57-12.29,21.98-34.08,42.53-55.87,49.72Zm11.14-47.23c-2.98-3.07-6.82-5.86-10.46-7.39-5.47-2.21-1.63-10.75,4.9-7.87,4.22,1.92,9.12,4.7,12.77,7.97,2.59,2.3,2.21,5.57.48,7.49-1.73,1.92-5.09,2.5-7.68-.19Zm20.83-17.47c-4.9-2.02-1.06-7.78,3.36-6.14,2.59.96,7.39,3.46,9.5,5.76,3.74,4.03-1.82,9.89-4.99,6.14-1.25-1.54-5.95-4.9-7.87-5.76Zm8.74-8.16c-4.9-1.92-1.44-7.78,3.07-6.34,2.59.86,7.49,3.26,9.7,5.47,3.84,3.84-1.54,9.89-4.8,6.24-1.34-1.44-6.05-4.61-7.97-5.38Z"/></g><g><path class="cls-1" d="m544.83,1234.62c0,52.16-42.67,94.83-94.83,94.83h0c-52.16,0-94.83-42.67-94.83-94.83v-16.6c0-52.16,42.67-94.83,94.83-94.83h0c52.16,0,94.83,42.67,94.83,94.83v16.6Z"/><path class="cls-1" d="m544.35,1374.15c-45.58-8.43-66.1-9.49-94.35-9.49s-48.77,1.06-94.35,9.49c-45.58,8.43-113.49,37.51-113.49,99.93v49.11h415.68v-49.11c0-62.42-67.92-91.5-113.49-99.93Z"/></g><rect class="cls-2" x="870" y="863" width="760" height="769.12"/><g><path class="cls-4" d="m1078.45,1060.92c-6.62,3.55-11.42-5.28-5.18-8.35,11.62-5.76,21.79-15.07,30.14-25.44-4.03-2.5-8.16-4.61-11.52-5.76-5.18-1.82-1.54-10.37,5.18-7.78,3.36,1.25,7.68,3.26,12.09,5.76,5.09-7.49,9.12-15.17,12.1-22.46,3.36-8.06,13.15-2.88,10.08,3.26-4.13,8.26-8.64,16.42-13.92,24.29,4.03,2.78,7.49,5.86,9.6,8.74,2.11,2.78.86,5.95-1.06,7.58s-4.8,1.82-6.82-.77c-1.73-2.21-4.51-4.8-7.78-7.29-8.54,10.94-19.1,20.64-32.93,28.22Z"/><path class="cls-4" d="m1171.18,1047.58c-6.14.19-6.82-9.89,0-9.98,15.93-.29,46.17-.29,62.4.1,7.2.19,5.57,10.18-.1,9.98-18.33-.58-45.12-.58-62.3-.1Zm11.14-32.16c-6.53-.1-6.72-9.79.58-9.6,10.46.29,26.3.29,37.73,0,6.05-.19,6.53,9.41-.48,9.6-10.08.19-27.84.19-37.82,0Z"/><path class="cls-4" d="m1321.51,1042.2c5.95.19,5.47,8.64-.19,8.45-14.11-.48-33.31-.58-45.98.29-5.66.38-6.24-8.35-.29-8.54,6.43-.19,15.84-.38,25.53-.38,1.15-4.32,2.5-9.79,2.98-12.77.29-1.44-.1-2.3-1.92-2.3-4.03,0-10.56-.1-16.9.19-6.14.29-6.24-8.06-.67-8.25,8.45-.29,17.18-.1,21.98.1,6.24.29,8.26,4.7,7.2,9.7-.96,4.22-2.21,9.22-3.46,13.34,4.13,0,8.06.1,11.71.19Z"/><path class="cls-4" d="m1364.14,1024.73c-3.46,0-5.09-2.3-5.09-4.61s1.82-4.9,5.09-4.9h60.28c3.26,0,4.9,2.4,4.9,4.8s-1.63,4.7-4.9,4.7h-60.28Z"/></g><path class="cls-4" d="m1258.97,1123.19c-110.46,0-200,89.54-200,200s89.54,200,200,200,200-89.53,200-200-89.54-200-200-200Zm145.66,163.46c.53,2.11,1.18,4.17,1.62,6.31.63,3.08.99,6.23,1.43,9.37.25,1.85.65,3.66.84,5.53.51,5.04.77,10.16.77,15.34s-.26,10.29-.77,15.33c-.19,1.87-.58,3.67-.84,5.53-.44,3.14-.8,6.29-1.43,9.36-.44,2.15-1.09,4.21-1.62,6.32-.67,2.7-1.26,5.42-2.07,8.05-.72,2.32-1.65,4.54-2.48,6.8-.85,2.33-1.59,4.7-2.55,6.97-1.01,2.38-2.22,4.65-3.34,6.97-.99,2.04-1.88,4.15-2.96,6.14-1.32,2.44-2.85,4.76-4.3,7.12-1.07,1.74-2.04,3.54-3.18,5.23-1.66,2.47-3.52,4.79-5.32,7.16-1.11,1.45-2.12,2.98-3.29,4.39-2,2.42-4.17,4.69-6.31,6.99-1.13,1.21-2.17,2.49-3.33,3.66-2.31,2.32-4.79,4.47-7.24,6.63-1.14,1-2.2,2.09-3.37,3.06-2.61,2.16-5.37,4.13-8.12,6.12-1.14.82-2.21,1.74-3.38,2.53-2.85,1.94-5.85,3.68-8.84,5.42-1.18.69-2.29,1.46-3.49,2.12-3.06,1.68-6.26,3.14-9.45,4.61-1.22.56-2.38,1.22-3.62,1.74-3.21,1.38-6.54,2.53-9.87,3.67-1.3.45-2.56,1-3.88,1.42-3.31,1.05-6.72,1.85-10.13,2.67-1.42.34-2.79.79-4.22,1.09-3.33.7-6.75,1.15-10.17,1.62-1.58.22-3.12.55-4.71.72-3.3.35-6.68.45-10.04.58-1.65.07-3.27.27-4.93.29v-.03c-.36,0-.72.05-1.08.05-83.02,0-150.32-67.29-150.32-150.31s67.3-150.32,150.32-150.32c.36,0,.72.05,1.08.05v-.03c1.35,0,2.66.18,4,.23,3.7.12,7.4.24,11.03.63,1.31.14,2.57.41,3.86.59,3.7.49,7.4.99,11,1.75,1.19.24,2.33.62,3.51.9,3.65.86,7.29,1.73,10.83,2.85,1.1.35,2.15.81,3.24,1.18,3.55,1.22,7.08,2.44,10.5,3.91,1.06.45,2.06,1.02,3.11,1.49,3.37,1.53,6.73,3.08,9.96,4.85,1.05.58,2.03,1.26,3.07,1.87,3.13,1.81,6.26,3.64,9.24,5.67,1.07.73,2.04,1.56,3.09,2.31,2.85,2.05,5.71,4.1,8.41,6.34,1.09.9,2.07,1.91,3.13,2.84,2.54,2.23,5.1,4.45,7.48,6.84,1.12,1.13,2.11,2.36,3.2,3.52,2.19,2.33,4.41,4.65,6.44,7.13,1.13,1.37,2.11,2.85,3.19,4.26,1.84,2.4,3.72,4.77,5.41,7.28,1.12,1.66,2.07,3.44,3.13,5.15,1.47,2.39,3.01,4.73,4.36,7.2,1.07,1.98,1.95,4.07,2.94,6.1,1.13,2.34,2.35,4.62,3.36,7.01.96,2.27,1.7,4.65,2.55,6.98.83,2.27,1.76,4.48,2.48,6.8.81,2.63,1.4,5.36,2.07,8.06Zm-4.25,36.54c0,78.1-63.31,141.41-141.42,141.41s-141.41-63.31-141.41-141.41,63.31-141.42,141.41-141.42,141.42,63.32,141.42,141.42Zm129.58-156.16v330.45c0,8.85-5.62,16.21-13.13,18.37v.08c-1.43.41-2.9.7-4.44.7-9.66,0-18.69-8.68-17.56-19.15,3.4-31.52,21.64-99.23,12.27-126.23-5.36-15.45-25.02-43.39-25.02-89.73,0-86.24,20.19-117.06,34.18-124.26.19-.1.39-.12.58-.2,6.15-2.64,13.13,2.39,13.13,9.98Zm-496.07-8.85c4.13,26.66,8.07,76.64,8.07,102.53,0,31.82-6.49,31.44-25.34,38.97l6.95,198.71c0,10.54-7.91,19.15-17.57,19.15-.87,0-1.7-.15-2.54-.28v-.1c-8.45-1.36-15.02-9.2-15.02-18.77l6.95-198.71c-18.86-7.52-25.35-7.15-25.35-38.97,0-25.9,3.91-76.46,7.97-102.53h4.44l1.01,112.39h9.23l2.32-112.39h4.34l2.02,112.39h9.23l2.22-112.39h4.78l2.06,112.39h9.23l.79-112.39h4.19Z"/><g><rect class="cls-5" x="870" y="53.88" width="760" height="769.12"/><g><g><path class="cls-1" d="m1162.33,381.11c-9.21,0-16.68-7.47-16.68-16.68v-33.68c0-9.21,7.47-16.68,16.68-16.68s16.68,7.47,16.68,16.68v33.68c0,9.21-7.47,16.68-16.68,16.68Z"/><path class="cls-1" d="m1373.4,346.53h-1.42v17.9c0,18.92-15.39,34.31-34.31,34.31s-34.31-15.39-34.31-34.31v-17.9h-106.7v17.9c0,18.92-15.39,34.31-34.31,34.31s-34.31-15.39-34.31-34.31v-17.9h-1.42c-34.97,0-63.42,28.45-63.42,63.42v240.7c0,34.97,28.45,63.42,63.42,63.42h246.81c34.97,0,63.42-28.45,63.42-63.42v-240.7c0-34.97-28.45-63.42-63.42-63.42Zm35.2,304.12c0,19.41-15.79,35.2-35.2,35.2h-246.81c-19.41,0-35.2-15.79-35.2-35.2v-211.16h317.21v211.16Z"/><path class="cls-1" d="m1337.67,381.11c-9.21,0-16.68-7.47-16.68-16.68v-33.68c0-9.21,7.47-16.68,16.68-16.68s16.68,7.47,16.68,16.68v33.68c0,9.21-7.47,16.68-16.68,16.68Z"/><g><rect class="cls-1" x="1192.87" y="469.11" width="42.5" height="42.5"/><rect class="cls-1" x="1264.62" y="469.11" width="42.5" height="42.5"/><rect class="cls-1" x="1336.38" y="469.11" width="42.5" height="42.5"/><rect class="cls-1" x="1121.12" y="540.86" width="42.5" height="42.5"/><rect class="cls-1" x="1192.87" y="540.86" width="42.5" height="42.5"/><rect class="cls-1" x="1264.62" y="540.86" width="42.5" height="42.5"/><rect class="cls-1" x="1336.38" y="540.86" width="42.5" height="42.5"/><rect class="cls-1" x="1121.12" y="612.62" width="42.5" height="42.5"/><rect class="cls-1" x="1192.87" y="612.62" width="42.5" height="42.5"/><rect class="cls-1" x="1264.62" y="612.62" width="42.5" height="42.5"/></g></g><g><path class="cls-1" d="m1127.98,237.01c-3.46-4.9,2.78-11.52,7.97-6.24,8.16,8.35,23.71,7.68,38.21,3.55,7.97-2.21,10.27,8.16,2.5,10.56-19.01,5.95-42.04,1.44-48.67-7.87Zm10.75-39.17c-7.58,1.44-8.83-8.74-.29-9.98,9.12-1.34,22.65-1.44,30.62.29,8.06,1.73,5.95,11.62-1.82,9.98-8.93-1.92-19.1-2.11-28.51-.29Zm39.55-9.41c-1.06-1.63-5.28-5.57-7.1-6.62-4.61-2.59-.19-7.87,4.03-5.66,2.4,1.25,6.91,4.32,8.74,6.82,3.26,4.42-2.98,9.6-5.66,5.47Zm3.84-12.67c-4.7-2.5-.38-7.97,3.94-5.95,2.5,1.15,7.01,4.22,8.93,6.62,3.36,4.32-2.69,9.6-5.47,5.57-1.15-1.63-5.57-5.28-7.39-6.24Z"/><path class="cls-1" d="m1256.04,240.57v.19c0,6.34-4.32,13.05-16.51,13.05-3.84,0-12.29-.1-12.29-5.86,0-2.21,1.54-4.32,4.22-4.32.38,0,.86.1,1.34.19,2.59.58,4.8.86,6.62.86,4.99,0,7.1-2.21,7.1-6.05v-28.61c-12.57.1-25.53.19-31.97.29h-.1c-2.5,0-3.84-2.02-3.84-4.03s1.34-4.03,3.84-4.03c6.91-.1,21.79-.19,35.9-.29-4.13-2.98-10.08-6.05-13.92-7.58-1.82-.67-2.5-1.92-2.5-3.26,0-2.02,1.92-4.22,4.61-4.22,2.3,0,9.12,3.26,12.38,4.99.19-.1,14.21-7.49,14.21-9.5,0-.48-.38-.67-8.74-.67-9.12,0-23.52.19-30.91.48h-.29c-3.07,0-4.7-2.02-4.7-4.03s1.63-4.22,4.9-4.32c4.51-.19,11.42-.19,18.53-.19,9.79,0,20.06.1,25.25.19,5.86.1,8.93,2.88,8.93,6.34,0,1.92-.96,4.03-2.98,5.95-2.59,2.59-10.27,7.58-16.32,10.66.19.19.38.38.58.48,1.06.96,1.44,2.11,1.44,3.26,0,.48,0,.96-.19,1.44,9.5,0,17.47,0,20.54.1,4.9.1,8.16,3.36,8.16,7.39,0,6.62-12.09,18.91-17.47,18.91-3.07,0-5.38-2.21-5.38-4.51,0-1.25.77-2.59,2.5-3.65,2.11-1.25,9.89-7.2,9.89-9.22,0-.58-.58-.96-1.82-.96h-21.12v21.89l.1,8.64Z"/><path class="cls-1" d="m1306.35,247.67c-2.21,0-4.32-1.54-4.32-3.84,0-.77.19-1.54.67-2.4,2.5-4.32,5.09-11.33,5.76-16.9.29-2.3,2.02-3.36,3.84-3.36,2.21,0,4.42,1.54,4.42,4.22,0,1.82-2.69,14.11-6.43,20.06-.96,1.54-2.4,2.21-3.94,2.21Zm12.48,1.82l.29-33.6c-.1,0-10.66,1.44-11.81,1.44-2.3,0-3.55-2.02-3.55-3.94,0-1.73,1.06-3.46,3.07-3.55,1.25-.1,2.59-.19,4.22-.29,1.73-2.02,3.65-4.51,5.57-7.2-2.88-3.17-8.06-7.1-10.75-8.83-1.34-.86-1.82-2.02-1.82-3.17,0-1.92,1.54-3.84,3.74-3.84.67,0,1.44.19,2.21.58l.48.19c2.69-4.22,6.05-11.33,7.39-16.51.48-1.92,2.11-2.78,3.84-2.78,2.3,0,4.8,1.63,4.8,3.94,0,1.92-4.99,12.96-9.79,19.87,1.54,1.25,3.07,2.59,4.32,3.84,3.07-4.99,5.76-10.18,7.29-13.92.67-1.73,2.11-2.4,3.55-2.4,2.4,0,4.8,1.73,4.8,4.22,0,2.69-8.26,15.84-15.26,25.05,3.46-.38,6.72-.77,9.12-1.06-2.21-3.07-2.4-3.36-2.4-4.32,0-1.73,1.73-3.07,3.55-3.07,4.8,0,10.08,11.33,10.08,13.82,0,2.69-2.02,4.51-4.03,4.51-1.44,0-2.78-.96-3.46-3.07-.19-.67-.38-1.25-.67-1.92-1.44.29-3.55.67-5.95,1.06l.19,34.94c0,2.98-2.3,4.51-4.61,4.51s-4.42-1.44-4.42-4.42v-.1Zm16.03-11.62c-.77-4.13-2.88-9.02-4.61-11.9-.48-.77-.67-1.44-.67-2.11,0-1.82,1.73-3.07,3.65-3.07,1.25,0,2.5.48,3.46,1.54,3.65,4.03,6.53,12.29,6.53,14.3,0,2.88-2.3,4.8-4.61,4.8-1.63,0-3.26-1.06-3.74-3.55Zm18.62-44.64c-6.62,12.29-8.74,12.58-10.66,12.58-2.4,0-4.51-1.63-4.51-3.94,0-.86.38-1.92,1.25-2.98,5.76-6.82,10.46-18.14,12.48-26.21.58-2.21,2.3-3.26,4.22-3.26,2.4,0,4.9,1.63,4.9,4.32,0,2.88-3.55,10.75-3.74,11.23,3.84-.1,8.93-.19,12.86-.19,4.61,0,14.01.1,14.69,11.33.19,3.36.38,7.87.38,12.86,0,29.95-6.91,43.87-24.29,43.87-2.88,0-5.95-.48-9.31-1.25-2.59-.67-3.84-2.88-3.84-4.99,0-2.3,1.44-4.51,4.32-4.51.48,0,.96.1,1.54.19,2.69.67,5.18,1.06,7.29,1.06,9.22,0,14.88-8.16,14.88-34.46,0-12.57-.19-15.65-4.8-15.65h-17.66Zm4.8,29.09c-2.59-3.36-6.91-6.62-10.94-8.64-1.73-.86-2.4-2.21-2.4-3.46,0-2.11,1.82-4.22,4.51-4.22,3.26,0,17.09,7.2,17.09,12.96,0,2.78-2.4,5.09-4.9,5.09-1.25,0-2.4-.48-3.36-1.73Z"/></g></g></g><g><rect class="cls-2" x="70" y="53.88" width="760" height="769.12"/><g><g><path class="cls-4" d="m188.78,251.41c-9.7,3.36-12.1-7.2-5.18-8.93,16.32-4.13,22.75-18.62,23.9-27.74-10.37,0-20.73.19-28.32.38-5.76.19-6.33-8.54,0-8.64,7.1-.19,17.76-.29,28.51-.29,0-4.03-.1-8.35-.1-11.52-7.01,1.15-13.73,1.73-18.81,1.63-7.1-.19-6.82-9.31.19-8.83,9.79.67,27.36-2.98,35.23-6.24,8.26-3.46,10.08,6.43,4.8,8.26-3.46,1.25-7.49,2.3-11.62,3.26.1,3.74.1,8.83,0,13.44,10.08,0,18.91.1,23.42.19,6.72.1,6.53,8.83-.19,8.64-5.28-.19-13.92-.29-23.42-.29-.77,12.19-8.64,29.85-28.41,36.67Z"/><path class="cls-4" d="m289.49,217.82c-2.78-.1-4.13-2.11-4.03-4.13.1-2.02,1.44-4.13,4.22-4.03,9.21.19,21.41.29,31.87-.29,2.98-.19,4.42,1.92,4.42,4.03s-1.34,4.03-4.22,4.13c-3.26.1-7.49.29-11.81.38,0,5.47.1,12.29.1,16.7,7.49-.1,14.88-.1,20.83-.1s5.66,8.74-.77,8.64c-14.97-.29-35.13-.19-48.48.19-6.53.19-6.14-8.26,0-8.35,5.28-.1,12.29-.19,19.68-.29.1-4.99.1-12.58.1-16.7-4.7,0-9.12-.1-11.9-.19Z"/><path class="cls-4" d="m385.29,223.38c-1.34-2.69-3.36-5.57-5.47-7.39-3.94-3.36,1.63-9.41,6.14-5.38,2.59,2.3,5.28,5.38,7.1,8.54,3.07,5.18-4.9,9.89-7.78,4.22Zm-1.92,26.01c-.86-2.02-.29-4.61,2.4-5.76,16.03-6.72,26.4-20.25,30.24-36.29,1.54-6.24,10.85-3.36,9.02,2.5-5.47,18.14-16.13,32.83-35.04,41.37-3.26,1.44-5.66.29-6.62-1.82Zm14.78-31.29c-.96-2.88-2.69-5.95-4.51-8.06-3.46-3.84,2.98-9.12,6.91-4.42,2.21,2.69,4.32,6.14,5.76,9.5,2.3,5.66-6.14,9.12-8.16,2.98Z"/><path class="cls-4" d="m502.7,186.71c4.13-.29,8.83-.67,12.67-.86,7.39-.38,13.82,4.8,10.27,11.62-11.71,22.37-24.96,41.85-51.93,52.51-8.16,3.17-12.09-6.24-4.13-9.02,21.31-7.39,37.15-26.59,44.25-42.91.77-1.82,0-3.65-2.3-3.55-4.03.1-11.04.77-15.36,1.25-6.53,8.64-14.98,18.72-21.6,23.23-6.43,4.32-12.09-3.94-5.57-7.97,9.21-5.66,21.69-23.33,26.11-30.91,3.17-5.38,12.77-.77,8.25,5.66l-.67.96Z"/><path class="cls-4" d="m567.12,231.35c-8.83,5.38-13.82-4.42-7.29-7.58,17.66-8.64,36-26.3,46.84-43.39,4.22-6.62,12.67-.48,8.54,5.09-4.32,5.76-8.45,10.94-12.58,15.74-.29,9.79-.48,34.94-.19,44.54.19,7.3-10.18,8.16-10.08.29.1-7.68.48-23.33.58-34.56-7.58,7.39-15.84,13.82-25.82,19.87Z"/><path class="cls-4" d="m677.23,206.68c-3.55-3.26-9.7-6.05-14.21-7.1-5.76-1.34-3.36-11.04,3.94-9.02,5.09,1.44,12.29,4.03,16.89,7.3,2.98,2.11,2.78,5.76,1.25,7.97-1.54,2.21-4.9,3.55-7.87.86Zm-5.95,39.65c-8.16,2.59-11.23-8.35-3.26-10.37,19.29-4.9,38.69-24.77,48.38-43.58,3.07-5.95,12.96-1.92,8.74,5.66-11.9,21.6-31.77,41.28-53.85,48.28Z"/></g><g><path class="cls-4" d="m474.8,334.32h-31.38v-8.88c0-6.25-5.12-11.37-11.37-11.37h-52.06c-6.25,0-11.37,5.12-11.37,11.37v8.88h-31.38c-4.82,0-8.1,3.89-7.29,8.64l6.6,38.66c.81,4.75,5.42,8.64,10.24,8.64h118.46c4.82,0,9.42-3.89,10.23-8.64l6.6-38.66c.81-4.75-2.47-8.64-7.29-8.64Z"/><path class="cls-4" d="m515.65,396.5v85.41c5.16-.62,10.41-.95,15.74-.95,5.01,0,9.95.29,14.81.85v-113.79c0-7.41-6.07-13.48-13.48-13.48h-35.53l-5.11,29.92c-.04.23-.09.45-.13.68h12.32c6.25,0,11.37,5.12,11.37,11.37Z"/><path class="cls-4" d="m405.07,643.44h-97.31c-6.25,0-11.37-5.12-11.37-11.37v-235.57c0-6.25,5.12-11.37,11.37-11.37h12.32c-.04-.22-.09-.45-.13-.67l-5.11-29.92h-35.53c-7.41,0-13.48,6.06-13.48,13.48v292.5c0,7.41,6.07,13.48,13.48,13.48h137.85c-5.25-9.53-9.34-19.77-12.09-30.56Z"/><path class="cls-4" d="m531.39,508.52c-56.67,0-102.77,46.1-102.77,102.77s46.1,102.77,102.77,102.77,102.77-46.1,102.77-102.77-46.1-102.77-102.77-102.77Zm-14.41,157.95l-52.29-52.29,19.49-19.49,32.81,32.81,61.63-61.63,19.49,19.49-81.12,81.11Z"/></g></g></g><g><rect class="cls-2" x="1670" y="55.65" width="760" height="769.12"/><g><path class="cls-4" d="m2061.87,347.4c91.9,0,166.67,74.77,166.67,166.67s-74.77,166.67-166.67,166.67-166.67-74.77-166.67-166.67,74.77-166.67,166.67-166.67Zm0-33.33c-110.45,0-200,89.55-200,200s89.55,200,200,200,200-89.55,200-200-89.55-200-200-200Zm16.67,200v-100h-33.33v133.33h116.67v-33.33h-83.33Z"/><g><path class="cls-4" d="m1892.24,238.65c-1.92,0-3.74-.1-5.47-.19-4.61-.38-7.87-3.94-7.87-9.02-.1-6.72-.1-16.8-.1-26.21,0-6.82,0-13.25.1-17.76.19-8.64,7.97-8.64,13.06-8.64,2.02,0,3.94,0,5.86.1,5.09.19,8.54,3.55,8.64,8.16.1,5.47.19,12.77.19,20.16,0,8.93-.1,18.05-.19,24.29-.19,9.12-8.45,9.12-14.21,9.12Zm5.95-35.61c0-6.05-.1-11.81-.29-15.84-.19-2.69-2.88-2.78-5.28-2.78-3.46,0-5.38.48-5.38,2.88-.1,3.65-.1,9.5-.1,15.74h11.04Zm-11.04,7.58c0,6.62,0,13.05.1,17.18,0,2.11,1.06,2.78,5.38,2.78,3.94,0,5.18-.67,5.28-2.88.19-4.42.29-10.66.29-17.09h-11.04Zm24.86-5.28c-2.88,0-4.22-1.82-4.22-3.74,0-2.02,1.54-4.13,4.22-4.13l16.7.1v-8.06h-12.38c-2.98,0-4.32-1.82-4.32-3.74,0-2.02,1.54-4.03,4.32-4.03h12.29v-8.74c0-2.78,2.3-4.13,4.51-4.13s4.61,1.34,4.61,4.13v8.74h13.63c2.78,0,4.13,1.92,4.13,3.84,0,2.02-1.34,3.94-4.13,3.94h-13.73v8.06l18.91-.1c2.69,0,4.03,1.92,4.03,3.94s-1.34,3.94-4.03,3.94h-44.54Zm35.52,16.22l.1,6.24.29,13.44v.29c0,5.28-4.13,12.1-15.36,12.1-7.87,0-10.17-1.73-10.17-5.18,0-2.3,1.54-4.51,4.13-4.51.29,0,.58,0,.96.1,1.82.38,3.74.67,5.47.67,3.36,0,5.86-1.15,5.86-5.18l-.1-17.95-26.69.1c-2.88,0-4.22-1.82-4.22-3.74,0-2.02,1.54-4.13,4.22-4.13l26.59.1v-3.65c0-2.59,2.21-3.94,4.42-3.94s4.42,1.34,4.42,3.94l.1,3.65,9.6-.1c2.69,0,4.03,1.92,4.03,3.94s-1.34,3.94-4.03,3.94l-9.6-.1Zm-22.75,16.7c-2.59-3.36-5.86-5.66-7.87-6.72-1.44-.77-2.11-1.82-2.11-2.98,0-2.02,1.92-4.03,4.42-4.03s13.25,5.47,13.25,10.56c0,2.59-2.21,4.99-4.51,4.99-1.06,0-2.21-.58-3.17-1.82Z"/><path class="cls-4" d="m1979.6,253.81c-2.3,0-4.61-1.34-4.61-3.94v-.19c.67-17.57.48-47.9.67-68.73,0-9.41,6.62-9.41,16.41-9.41,3.65,0,7.49,0,9.31.1,4.9.19,8.54,3.26,8.74,7.58.1,3.36.19,6.82.19,10.17,0,12.09-.19,14.5-19.1,14.5-2.5,0-4.9-.1-6.62-.19v8.64c0,10.37-.1,23.81-.38,37.34,0,2.78-2.3,4.13-4.61,4.13Zm22.27-69.21c0-1.06-.1-2.02-.1-2.98-.19-2.69-.67-2.98-8.35-2.98s-8.54.29-8.74,3.74c0,.67-.1,1.44-.1,2.21h17.28Zm-17.28,6.34v5.86c1.34.1,4.22.1,7.1.1,9.31,0,9.98-.38,10.08-3.07,0-.86.1-1.82.1-2.88h-17.28Zm37.25,52.22c-2.59.19-5.47.29-8.25.29s-5.76-.1-8.35-.29c-5.76-.48-9.31-3.94-9.5-8.93-.1-1.34-.1-2.98-.1-4.61,0-4.32.19-9.31.38-13.15.29-4.22,3.07-8.26,9.02-8.54,2.5-.1,5.18-.19,7.78-.19,3.17,0,6.34.1,9.12.19,4.7.19,8.45,3.84,8.74,7.87.29,3.36.38,7.58.38,11.52,0,2.5,0,4.8-.1,6.82-.19,4.8-3.94,8.64-9.12,9.02Zm-18.72-14.78c0,7.49.1,7.58,9.98,7.58,7.1,0,9.89-.1,10.08-3.84,0-1.06.1-2.4.1-3.74h-20.16Zm20.06-6.82c0-1.15-.19-2.11-.19-2.98-.19-3.55-2.02-3.84-8.54-3.84-2.4,0-4.99,0-7.29.1-2.69.1-3.65,2.02-3.74,3.84,0,.86-.19,1.82-.19,2.88h19.97Zm13.44-17.66c-11.33,0-19.29,0-19.58-8.45-.1-1.92-.1-4.03-.1-6.05,0-3.36.1-6.82.19-10.17.19-4.32,3.65-7.39,8.54-7.58,1.82-.1,5.86-.1,9.6-.1,2.78,0,5.47,0,7.1.1,7.1.38,10.08,4.22,10.08,8.54v7.2c0,14.4.19,29.28.19,41.47,0,4.51.1,8.54.1,11.9,0,6.82-3.36,12.77-14.3,12.77-6.72,0-10.17-.86-10.17-5.09,0-2.21,1.34-4.22,3.74-4.22.29,0,.48.1.77.1,1.82.29,3.55.58,5.09.58,3.17,0,5.57-1.15,5.66-5.86.1-3.84.19-7.97.19-12.29,0-6.43-.1-13.05-.1-19.1v-3.94c-1.73.1-4.22.19-7.01.19Zm6.82-19.29c0-5.86-.19-5.95-9.02-5.95-7.68,0-8.74,0-8.93,3.07,0,.86-.1,1.92-.1,2.88h18.05Zm.19,6.34h-18.24c0,1.06.1,2.02.1,2.88.1,2.69.38,3.07,10.56,3.07,3.17,0,6.24,0,7.58-.1v-5.86Z"/><path class="cls-4" d="m2081.94,253.43c-2.88,0-4.51-2.3-4.51-4.51,0-1.92,1.25-3.84,4.22-4.03,8.16-.67,15.65-3.07,21.98-6.43-2.78-2.4-5.18-5.09-7.01-7.87-11.13,10.37-21.21,14.98-23.33,14.98-2.59,0-4.22-2.11-4.22-4.22,0-1.44.86-2.98,2.69-3.74,8.83-3.74,18.62-11.04,27.45-22.37.96-1.25,2.4-1.82,3.74-1.82,2.3,0,4.51,1.54,4.51,3.74,0,.58-.1,1.15-.38,1.73,5.66-.1,14.01-.29,15.55-.29,4.99,0,7.49,2.69,7.49,5.76,0,3.36-2.78,6.53-11.33,13.82,6.82,2.69,15.74,4.42,27.26,4.42,2.59,0,3.94,2.02,3.94,4.13,0,3.74-2.88,5.09-6.53,5.09-12.77,0-23.81-3.17-32.25-8.06-13.54,8.54-29.18,9.7-29.28,9.7Zm-7.58-43.48c-2.88,0-4.8-2.21-4.8-4.51,0-1.44.77-2.78,2.69-3.65,5.28-2.3,9.22-5.28,13.34-9.89.96-1.06,2.11-1.44,3.17-1.44,2.4,0,4.61,2.02,4.61,4.42,0,.96-.38,2.02-1.25,2.98-5.18,5.47-13.54,12.1-17.76,12.1Zm48.19-23.42l.1,3.74.19,12.77v.19c0,5.38-2.88,11.23-11.04,11.23-2.69,0-7.68-.29-7.68-4.9,0-2.11,1.34-4.22,3.55-4.22.29,0,.58,0,.96.1.96.29,1.92.48,2.78.48,1.73,0,3.07-.96,3.07-4.03v-15.36h-7.97v.67c0,15.17-6.24,24.29-17.38,31.01-1.15.67-2.21.96-3.17.96-2.69,0-4.7-2.21-4.7-4.42,0-1.44.86-2.88,2.78-3.84,9.79-4.61,14.01-11.33,14.01-22.85v-1.54h-23.42c-2.98,0-4.51-2.02-4.51-4.13s1.63-4.32,4.51-4.32h30.53v-5.86c0-2.98,2.4-4.51,4.9-4.51s4.9,1.54,4.9,4.51v5.86h30.24c2.88,0,4.32,2.11,4.32,4.22s-1.44,4.22-4.32,4.22h-22.65Zm-11.81,47.32c2.5-1.92,4.7-3.94,6.62-6.05.48-.58.67-1.06.67-1.34,0-.67-.58-.86-1.15-.86h-.29c-.48.1-8.45.19-14.01.19,2.11,2.98,4.8,5.66,8.16,8.06Zm30.53-25.25c-3.65-4.03-9.02-7.49-13.63-9.41-1.63-.67-2.21-1.82-2.21-3.07,0-2.3,2.02-4.7,4.61-4.7,1.92,0,11.42,3.55,17.85,9.7,1.15,1.06,1.63,2.4,1.63,3.65,0,2.78-2.4,5.38-4.99,5.38-1.15,0-2.21-.48-3.26-1.54Z"/><path class="cls-4" d="m2210.96,181.82v5.86c5.86,0,11.42,0,15.65.1,6.05.19,10.27,4.03,10.46,7.78.19,2.69.29,6.43.29,10.08,0,3.17-.1,6.14-.29,8.35-.38,4.61-4.32,8.45-10.94,8.74-4.32.19-10.08.29-16.03.38-.77,4.99-2.21,9.31-4.42,13.06,8.83,4.42,21.31,7.2,37.44,7.2,2.69,0,4.13,2.11,4.13,4.42,0,4.9-4.9,4.9-7.29,4.9-15.46,0-29.18-3.74-39.55-9.98-10.18,9.31-28.89,11.33-30.62,11.33-3.17,0-4.99-2.21-4.99-4.42,0-1.92,1.34-3.74,4.42-4.13,11.33-1.44,18.91-4.03,23.81-8.06-1.73-1.44-3.17-2.98-4.61-4.51-6.62,6.62-9.12,6.72-9.7,6.72-2.4,0-4.42-1.92-4.42-4.03,0-1.34.77-2.78,2.78-3.84,4.13-2.21,7.1-5.47,8.64-8.06.19-.38.58-.67.96-.86-7.01-.48-10.56-3.84-10.85-8.64-.1-2.59-.19-5.95-.19-9.22s.1-6.53.19-8.74c.19-3.94,2.98-8.25,10.94-8.45,3.74-.1,9.02-.1,14.88-.1v-5.86l-28.32.19c-3.07,0-4.61-2.02-4.61-4.13s1.54-4.13,4.61-4.13h65.85c2.98,0,4.42,2.02,4.42,4.13s-1.44,4.13-4.42,4.13l-28.22-.19Zm-9.21,12.86c-4.9,0-9.41,0-12.48.1-4.9.1-4.9,2.5-4.9,7.01h17.38v-7.1Zm-17.38,13.82c0,1.34,0,2.59.1,3.46.38,4.03,1.06,4.03,17.09,4.03,0-.67.1-1.44.1-2.21,0-.96.1-2.88.1-5.28h-17.38Zm6.91,14.5c1.06.58,2.02,1.63,2.02,2.78,0,.19-.1.29-.1.48,1.34,1.73,2.98,3.46,4.9,4.99,1.25-2.4,2.11-5.09,2.69-8.16-3.46,0-6.72,0-9.5-.1Zm19.58-14.5l-.1,5.47v2.02c4.8,0,9.31-.1,12.57-.19,4.9-.19,4.9-2.78,4.9-7.3h-17.38Zm17.38-6.72c0-5.18-.86-6.91-4.99-7.01-3.07-.1-7.58-.1-12.38-.1v7.1h17.38Z"/></g></g></g><g><rect class="cls-5" x="1670" y="863" width="760" height="769.12"/><g><g><path class="cls-1" d="m1835.82,1058.62c-7.39.29-17.66.48-27.55.48-8.45,0-16.61-.19-22.56-.48-8.35-.38-12.48-4.51-12.77-11.62-.19-5.47-.38-15.55-.38-25.82s.19-21.02.38-27.45c.19-6.14,4.8-10.17,12-10.46,6.14-.19,16.61-.29,26.88-.29,9.22,0,18.33.1,24.19.29,5.86.29,11.52,4.32,11.71,11.23.19,6.91.38,18.43.38,29.28,0,9.02-.1,17.57-.38,22.94-.38,6.72-4.99,11.62-11.9,11.9Zm2.98-37.82c0-8.83-.1-17.76-.38-22.75-.29-5.47-2.11-6.43-6.82-6.53-7.2-.1-16.8-.19-25.44-.19-7.1,0-13.54.1-17.18.19-5.47.19-6.91,1.63-7.1,6.53-.19,4.99-.38,15.07-.38,24.96,0,8.06.1,15.93.38,20.54.29,5.47,2.11,6.34,8.06,6.53,5.47.19,13.06.29,20.64.29s15.17-.1,20.64-.29c5.38-.19,7.01-2.69,7.2-6.82.29-4.9.38-13.73.38-22.46Zm-19.58,18.05c-2.69.1-6.14.19-9.7.19s-6.91-.1-9.5-.19c-4.61-.29-7.87-3.94-8.06-8.74-.1-2.78-.1-6.14-.1-9.6s0-6.82.1-9.7c.19-4.03,2.98-7.97,7.87-8.26,2.3-.1,5.47-.19,8.64-.19,4.03,0,8.06.1,11.04.19,3.84.19,8.45,2.98,8.64,7.58.19,3.26.29,7.39.29,11.33,0,3.07-.1,6.05-.29,8.45-.38,4.8-3.84,8.64-8.93,8.93Zm.48-16.9c0-3.17-.1-6.43-.19-8.74-.1-1.82-1.63-2.88-3.26-2.98s-4.13-.1-6.62-.1-4.8,0-6.33.1c-1.82.1-2.88,1.54-2.98,3.07-.1,2.11-.1,4.9-.1,7.58s0,5.28.1,7.3c.19,2.88,2.4,2.98,10.18,2.98,9.21,0,9.21-.1,9.21-9.22Z"/><path class="cls-1" d="m1940.07,1006.59c-.96,11.9-4.22,23.04-9.98,32.64,4.22,5.38,9.7,9.79,16.61,13.05,1.92.86,2.69,2.4,2.69,4.03,0,2.69-2.21,5.47-4.99,5.47s-12.19-5.76-19.39-15.36c-8.74,10.75-19.2,16.13-21.41,16.13-2.69,0-4.61-2.4-4.61-4.8,0-1.06.29-2.02,1.15-2.88h-.38c-.77,0-1.54-.19-2.3-.77-1.73-1.25-3.55-2.4-5.38-3.36-7.01,8.74-17.09,10.94-24,10.94-2.5,0-3.84-1.92-3.84-3.84s1.25-3.65,3.84-3.74c7.68-.29,13.06-2.69,16.8-6.34-2.11-.67-4.22-1.06-6.53-1.44l-.38.77c-.77,1.63-2.3,2.3-3.84,2.3-2.11,0-4.22-1.34-4.22-3.36,0-.67.19-1.34.67-2.11,2.02-3.26,3.84-6.62,5.28-10.08l-6.62.1h-.1c-2.69,0-3.94-1.82-3.94-3.65,0-1.92,1.34-3.84,4.03-3.84h9.21c.48-1.54.77-3.07,1.06-4.61.29-1.73,1.92-2.5,3.65-2.5.29,0,.58.1.86.1-.58-.67-.86-1.54-.86-2.69l.19-5.76c-5.86,5.76-13.53,11.52-16.41,11.52-2.4,0-4.22-2.21-4.22-4.32,0-1.34.67-2.59,2.4-3.36,4.9-2.21,10.56-5.95,15.46-10.56l-10.75.19h-.1c-2.69,0-4.13-1.82-4.13-3.74s1.44-3.74,4.22-3.74h13.63l-.29-13.54v-.1c0-2.78,2.11-4.22,4.32-4.22s4.22,1.34,4.22,4.22v.1l-.29,13.54h11.71c2.69,0,4.03,1.82,4.03,3.74s-1.34,3.74-3.94,3.74h-.1l-11.71-.19.1,3.84c.58-.96,1.54-1.82,2.69-1.82,1.06,0,4.51,1.25,8.54,4.22,1.15.96,1.63,2.21,1.63,3.36,0,2.21-1.54,4.32-3.36,4.32-.77,0-1.54-.38-2.3-1.15-1.82-1.92-3.84-3.26-6.53-4.51-.29-.1-.38-.29-.58-.48l.1,4.7v.19c0,2.59-2.11,3.94-4.32,3.94h-.38c.48.38.67.96.67,1.63,0,.19,0,.38-.1.67-.19,1.06-.48,2.11-.86,3.26h18.05c2.69,0,4.03,1.82,4.03,3.74s-1.34,3.74-3.94,3.74h-.1l-5.38-.1c-.58,3.36-1.63,6.91-3.26,10.37,7.39,3.07,7.87,4.32,7.87,6.14,0,1.06-.48,2.11-1.15,2.98,7.49-3.74,13.25-8.64,17.57-14.4-3.74-6.91-6.24-14.4-7.68-21.69-1.63,3.26-3.36,4.32-5.09,4.32-2.02,0-3.84-1.63-3.84-3.65,0-.77.19-1.54.67-2.3,4.8-7.78,9.79-18.91,11.04-32.16.19-2.5,2.21-3.65,4.22-3.65,2.4,0,4.99,1.54,4.99,4.03s-2.59,11.42-3.65,14.78l23.61-.1c2.69,0,3.94,2.02,3.94,4.03s-1.25,4.03-3.94,4.03h-4.61Zm-66.24-12.09c-1.44-2.78-3.36-4.22-5.09-6.43-.48-.58-.67-1.15-.67-1.73,0-2.02,2.4-3.84,4.42-3.84,2.88,0,8.06,6.43,8.06,9.12,0,2.4-2.11,4.61-4.13,4.61-.96,0-1.92-.48-2.59-1.73Zm10.85,39.17h-.58c-.86,2.21-1.92,4.42-2.88,6.62,2.4.29,5.09.86,7.87,1.63,1.25-2.5,2.11-5.38,2.5-8.16l-6.91-.1Zm11.81-37.82c-1.82,0-3.74-1.34-3.74-3.17,0-.67.29-1.44.96-2.21,1.63-1.92,3.07-4.22,4.51-6.82.48-.96,1.34-1.34,2.3-1.34,2.11,0,4.7,2.11,4.7,4.32,0,.96-.29,1.82-6.24,8.16-.67.77-1.63,1.06-2.5,1.06Zm22.27,10.66c.67,9.02,2.69,17.47,6.34,24.77,3.55-7.2,5.38-15.46,6.05-24.67l-12.38-.1Z"/><path class="cls-1" d="m2037.9,1020.22l-13.25-.1c4.61,4.8,10.17,8.45,17.18,11.13,2.11.77,2.98,2.3,2.98,3.84,0,2.59-2.4,5.28-5.47,5.28-2.88,0-14.78-5.86-25.34-20.35h-23.13c-2.02,2.88-4.32,5.66-6.91,8.35,3.65-.1,7.97-.1,12.29-.1,5.95,0,12,0,17.18.1,5.95.1,10.17,2.69,10.17,9.79,0,1.82-.67,10.08-2.5,14.3-2.69,6.24-8.45,8.83-15.46,8.83-8.35,0-10.08-2.21-10.08-4.99,0-2.21,1.54-4.32,4.22-4.32.38,0,.86.1,1.34.19,1.63.38,3.36.67,4.9.67,3.17,0,5.86-.96,6.91-3.65,1.34-3.36,2.02-8.45,2.02-9.98,0-2.3-1.34-3.36-3.26-3.36-2.78-.1-6.05-.1-9.41-.1-6.62,24.77-28.7,27.84-29.76,27.84-2.98,0-4.7-2.3-4.7-4.51,0-1.73.96-3.36,3.17-3.94,12.67-3.36,19.58-9.31,22.46-19.29-3.74,0-7.2.1-10.17.19h-.19c-2.3,0-3.55-1.63-3.74-3.36-4.7,4.03-12.58,9.79-15.55,9.79-2.69,0-4.9-2.3-4.9-4.7,0-1.44.86-2.98,2.78-3.94,7.49-3.74,13.44-8.35,18.14-13.73l-13.54.1h-.1c-2.69,0-4.03-1.92-4.03-3.94s1.44-3.94,4.13-3.94l19.2.1c1.73-2.78,3.26-5.66,4.61-8.64l-18.82.19h-.1c-2.78,0-4.22-1.92-4.22-3.84s1.44-3.84,4.32-3.84h9.89c-.48-.38-.96-.96-1.34-1.63-1.44-2.98-3.65-5.28-5.86-7.39-.77-.77-1.15-1.54-1.15-2.3,0-2.02,2.4-3.94,4.9-3.94,4.22,0,10.37,8.35,10.37,11.13,0,1.73-1.15,3.36-2.69,4.13h7.58c1.54-4.8,2.69-9.7,3.55-14.59.48-2.5,2.3-3.55,4.22-3.55,2.5,0,5.09,1.73,5.09,4.13,0,.48-1.44,7.29-3.65,14.01h8.54l.1-.19c2.59-3.07,5.57-8.74,7.01-12.48.77-2.11,2.4-2.88,4.03-2.88,2.59,0,5.28,1.92,5.28,4.51,0,2.88-5.95,9.79-7.01,11.04h12c2.59,0,3.94,1.92,3.94,3.84s-1.34,3.84-3.94,3.84l-18.14-.19c1.54,3.17,3.07,6.05,4.7,8.64l19.2-.1c2.69,0,4.03,2.02,4.03,3.94,0,2.02-1.34,3.94-3.94,3.94h-.1Zm-38.4-16.42c-1.25,3.07-2.5,5.95-4.03,8.74h13.73c-1.63-2.88-3.07-5.76-4.22-8.74h-5.47Z"/><path class="cls-1" d="m2103.95,1006.97c-1.54,12.19-10.18,30.33-19.39,38.88-7.39,6.82-15.46,3.07-19.68-5.18-6.05-11.9.38-29.76,13.25-38.68,11.81-8.16,29.37-9.5,41.47-2.21,14.88,8.93,17.28,26.59,8.93,40.32-4.51,7.39-13.92,13.34-23.42,15.84-8.45,2.21-11.42-7.49-3.17-9.41,7.29-1.63,14.69-5.76,17.85-10.75,6.82-10.75,4.22-23.33-5.28-29.37-3.74-2.4-7.78-3.55-11.9-3.84,1.06.96,1.63,2.5,1.34,4.42Zm-21.31,1.82c-8.93,6.91-13.73,19.68-9.7,27.07,1.44,2.78,3.94,4.22,6.34,2.11,7.2-6.34,13.92-21.6,14.88-31.97.1-1.15.38-2.21.86-2.98-4.42.96-8.74,2.98-12.38,5.76Z"/><path class="cls-1" d="m2149.65,1057.56c0-.96.48-2.02,1.54-2.98,3.65-3.17,6.05-6.82,7.97-11.33.58-1.44,1.82-2.02,3.07-2.02,2.11,0,4.51,1.82,4.51,4.22,0,2.21-7.1,16.03-12.48,16.03-2.4,0-4.61-1.82-4.61-3.94Zm17.95-17.76c-1.73,0-3.46-.1-5.09-.19-4.42-.38-7.1-3.84-7.1-8.83-.1-6.72-.1-16.03-.1-24.77,0-6.33,0-12.38.1-16.89.1-4.7,2.4-8.06,7.01-8.35,1.44-.1,3.07-.1,4.61-.1,2.11,0,4.22,0,6.05.1,4.32.19,7.49,3.55,7.58,7.97.1,5.47.19,12.29.19,19.1,0,8.35-.1,16.8-.19,23.04-.19,8.83-6.91,8.93-13.05,8.93Zm5.18-34.56h-9.6v9.41h9.6v-9.41Zm-.1-7.2c-.1-2.69-.1-5.18-.19-7.29-.1-2.02-1.25-2.88-4.61-2.88-4.51,0-4.51,1.54-4.51,2.98-.1,1.92-.1,4.42-.1,7.2h9.41Zm-9.41,23.81c0,2.78.1,5.38.1,7.39,0,1.54.19,2.88,4.61,2.88,2.11,0,4.32,0,4.51-2.98.1-2.11.1-4.61.19-7.3h-9.41Zm11.9,34.46c-1.15-3.65-3.17-7.49-5.09-9.98-.48-.67-.77-1.34-.77-2.02,0-1.82,1.92-3.36,4.03-3.36,4.51,0,9.7,10.85,9.7,13.25,0,2.78-2.4,4.8-4.61,4.8-1.34,0-2.69-.77-3.26-2.69Zm55-8.64v2.59c0,5.38-2.5,12.38-13.34,12.38-4.99,0-9.02-.38-9.02-4.7,0-2.11,1.34-4.13,3.65-4.13.29,0,.58,0,.86.1,1.73.38,3.36.67,4.8.67,2.98,0,4.9-1.25,4.99-5.76v-1.54h-26.69v11.9c0,2.78-2.02,4.13-4.03,4.13s-4.13-1.34-4.13-4.13c0-3.84.1-7.78.1-11.52h-2.59c-2.21,0-3.26-1.82-3.26-3.65s1.06-3.65,3.26-3.65h2.59c.1-5.09.19-9.79.38-13.92.19-3.84,2.4-7.97,9.22-8.16,2.3-.1,4.99-.1,7.78-.1v-3.84l-19.29.19h-.1c-2.4,0-3.65-1.73-3.65-3.55,0-1.73,1.25-3.55,3.74-3.55l10.37.1v-3.94h-6.05c-2.21,0-3.36-1.54-3.36-3.17,0-1.54,1.15-3.07,3.36-3.07h6.05v-3.94l-8.25.1c-2.4,0-3.65-1.73-3.65-3.46s1.25-3.46,3.65-3.46h8.25v-4.61c0-2.5,2.02-3.74,4.03-3.74s4.03,1.25,4.03,3.74v4.61l4.7.1,4.99-.1v-4.61c0-2.59,2.02-3.84,4.03-3.84s4.03,1.25,4.03,3.84v4.61h9.6c2.5,0,3.74,1.73,3.74,3.46s-1.25,3.46-3.74,3.46l-9.6-.1v3.94h5.76c2.3,0,3.46,1.54,3.46,3.17,0,1.54-1.15,3.07-3.46,3.07h-5.76v3.94l12.09-.1c2.5,0,3.74,1.82,3.74,3.55,0,1.82-1.25,3.55-3.65,3.55h-.1l-21.02-.19v3.84c2.88,0,5.66,0,8.06.1,7.01.19,9.02,3.74,9.22,7.97,0,.38.1,1.82.1,14.11h4.32c2.5,0,3.74,1.82,3.74,3.65s-1.25,3.65-3.74,3.65h-4.22Zm-25.44-11.42h-9.22c0,1.44-.1,2.98-.1,4.51h9.31v-4.51Zm0-11.23c-8.06,0-8.93,0-9.02,3.65l-.1,1.06h9.12v-4.7Zm8.83-31.58h-9.7v4.03h9.7v-4.03Zm0,10.08h-9.7v4.13h9.7v-4.13Zm8.54,25.15c-.1-3.55-1.06-3.74-9.41-3.74v4.8h9.41v-1.06Zm.1,7.58h-9.5v4.51h9.5v-4.51Z"/><path class="cls-1" d="m2294.89,996.7c2.78,19.2,15.65,42.62,34.84,53.08,2.02,1.15,2.88,2.78,2.88,4.42,0,2.98-2.78,6.05-6.33,6.05-1.06,0-2.3-.29-3.46-1.06-14.88-9.41-26.01-26.11-32.16-42.81-5.66,17.85-16.51,34.46-35.23,44.45-1.06.58-2.11.77-3.07.77-3.17,0-5.47-2.59-5.47-5.28,0-1.73.96-3.55,3.26-4.7,23.33-12,33.5-34.75,35.52-55.2-.29-3.65-.58-4.99-3.17-4.99h-.29l-13.63.67h-.29c-2.88,0-4.42-2.3-4.42-4.7s1.44-4.7,4.51-4.7c3.84-.1,8.16-.19,12.48-.19h3.07c5.76.1,10.27,3.26,10.46,8.45.1,1.73.19,3.55.48,5.38h.1l-.1.38Z"/></g><g><path class="cls-1" d="m2186.2,1303.71h-272.39c-23.2,0-42.08,18.88-42.08,42.08v51.45l12.35,1.77c7.14,1.02,12.52,7.23,12.52,14.44s-5.38,13.42-12.52,14.44l-12.35,1.77v51.46c0,23.2,18.87,42.07,42.08,42.07h272.39c23.2,0,42.08-18.88,42.08-42.07v-52.46l-13.73-.64c-7.8-.36-13.91-6.76-13.91-14.57s6.11-14.2,13.92-14.57l13.72-.65v-52.45c0-23.2-18.88-42.08-42.08-42.08Zm27.68,80.79c-15.38.73-27.63,13.39-27.63,28.95s12.25,28.23,27.63,28.95v38.72c0,15.29-12.39,27.68-27.68,27.68h-272.39c-15.29,0-27.68-12.39-27.68-27.68v-38.98c14.06-2.01,24.87-14.07,24.87-28.69s-10.82-26.67-24.87-28.69v-38.97c0-15.29,12.39-27.68,27.68-27.68h272.39c15.28,0,27.68,12.39,27.68,27.68v38.71Z"/><rect class="cls-1" x="1954.39" y="1466.49" width="9.52" height="24.84"/><rect class="cls-1" x="1954.39" y="1422.85" width="9.52" height="24.84"/><rect class="cls-1" x="1954.39" y="1379.21" width="9.52" height="24.84"/><rect class="cls-1" x="1954.39" y="1335.57" width="9.52" height="24.84"/><polygon class="cls-1" points="1936.91 1264.41 1928.59 1269.04 1940.67 1290.74 1948.99 1286.12 1936.91 1264.41"/><path class="cls-1" d="m2238.69,1263.06l-18.82-33.84-6.69-12-12.3,6.11c-6.99,3.47-15.44.85-19.23-5.97-3.8-6.81-1.56-15.38,5.07-19.49l11.68-7.24-6.69-12.01-18.82-33.82c-11.28-20.27-36.95-27.59-57.23-16.31l-238.03,132.43c-20.28,11.28-27.59,36.96-16.31,57.23l.68,1.23c2.55-5,5.8-9.56,9.63-13.6-3.75-12.22,1.38-25.82,13-32.29l238.03-132.43c13.36-7.44,30.21-2.63,37.65,10.73l18.82,33.83c-13.09,8.11-17.64,25.14-10.07,38.74,7.56,13.59,24.43,18.7,38.22,11.85l18.82,33.84c5.68,10.2,4.17,22.42-2.79,30.94,3.73,3.09,7.02,6.69,9.88,10.6,11.64-13,14.44-32.46,5.49-48.54Z"/></g></g></g></svg>