<svg width="376" height="812" viewBox="0 0 376 812" fill="none" xmlns="http://www.w3.org/2000/svg">
<g clip-path="url(#clip0_23_1637)">
<rect width="375" height="812" transform="translate(0.5)" fill="white"/>
<rect x="0.5" width="375" height="777" fill="#F4EFED"/>
<path d="M318.167 37H344.833C345.75 37 346.5 36.25 346.5 35.3333C346.5 34.4167 345.75 33.6667 344.833 33.6667H318.167C317.25 33.6667 316.5 34.4167 316.5 35.3333C316.5 36.25 317.25 37 318.167 37ZM318.167 28.6667H344.833C345.75 28.6667 346.5 27.9167 346.5 27C346.5 26.0833 345.75 25.3333 344.833 25.3333H318.167C317.25 25.3333 316.5 26.0833 316.5 27C316.5 27.9167 317.25 28.6667 318.167 28.6667ZM316.5 18.6667C316.5 19.5833 317.25 20.3333 318.167 20.3333H344.833C345.75 20.3333 346.5 19.5833 346.5 18.6667C346.5 17.75 345.75 17 344.833 17H318.167C317.25 17 316.5 17.75 316.5 18.6667Z" fill="#552600"/>
<rect x="24.5" y="85" width="327" height="30" fill="#AC2524"/>
<path d="M141.54 101.86C141.38 102.62 141.16 103.58 141.16 104.72C141.16 107.44 143.42 108.96 147.96 108.96C150.74 108.96 153.12 108.7 154.84 108.3L154.82 105.5C153.06 105.98 150.54 106.28 147.86 106.28C145 106.28 143.82 105.36 143.82 104.1C143.82 103.44 143.96 102.82 144.14 102.1L141.54 101.86ZM152.6 92.24C152.88 92.64 153.18 93.16 153.46 93.68C151.94 93.82 149.76 93.94 147.86 93.94C145.78 93.94 143.94 93.86 142.48 93.7V96.34C144.08 96.46 145.8 96.56 147.88 96.56C149.76 96.56 152.22 96.42 153.6 96.32V93.94C153.8 94.34 154 94.72 154.16 95.04L155.78 94.34C155.4 93.6 154.68 92.34 154.18 91.6L152.6 92.24ZM154.96 91.34C155.52 92.1 156.16 93.26 156.58 94.1L158.16 93.42C157.82 92.72 157.08 91.44 156.54 90.7L154.96 91.34ZM175.82 98.5L175.38 98.66H172.22L172.7 97.88C172.24 97.66 171.64 97.44 170.98 97.18C172.66 96.04 174.32 94.66 175.6 93.38L173.9 92.04L173.36 92.18H161.4V94.36H171.06C170.28 95.04 169.38 95.7 168.52 96.24C167.4 95.82 166.28 95.44 165.38 95.12L164.2 96.92C165.48 97.4 167.1 98.04 168.58 98.66H159.48V100.92H167.38V107.06C167.38 107.36 167.26 107.44 166.88 107.46C166.48 107.46 165 107.46 163.82 107.42C164.18 108.04 164.56 109.02 164.68 109.7C166.4 109.7 167.7 109.68 168.62 109.34C169.58 109 169.86 108.4 169.86 107.14V100.92H174.08C173.58 101.82 173 102.72 172.52 103.38L174.56 104.56C175.68 103.22 176.86 101.22 177.76 99.34L175.82 98.5ZM179.92 102.76C179.76 104.44 179.44 106.22 178.86 107.4C179.38 107.58 180.26 108 180.68 108.26C181.26 106.98 181.68 104.98 181.88 103.1L179.92 102.76ZM184.38 103.2C184.88 104.42 185.4 106.04 185.56 107.06L187.44 106.4C187.2 105.38 186.68 103.82 186.14 102.64L184.38 103.2ZM190.62 94.44C191 93.52 191.34 92.56 191.6 91.58L189.16 91.06C188.52 93.58 187.34 96.14 185.86 97.72L185.72 97.48L184.04 98.22C184.28 98.64 184.52 99.12 184.74 99.6L182.72 99.68C184.02 98.06 185.42 96.02 186.54 94.26L184.52 93.42C184.04 94.42 183.4 95.58 182.68 96.7C182.48 96.44 182.24 96.14 181.98 95.86C182.7 94.74 183.52 93.2 184.24 91.82L182.14 91.08C181.82 92.12 181.24 93.46 180.68 94.56C180.52 94.42 180.36 94.28 180.2 94.14L179.08 95.78C179.92 96.58 180.9 97.66 181.48 98.52C181.18 98.96 180.86 99.38 180.56 99.76L179.08 99.82L179.28 101.9L182.24 101.7V109.76H184.34V101.54L185.48 101.46C185.6 101.86 185.7 102.22 185.76 102.54L187.56 101.7C187.34 100.7 186.7 99.22 186 97.96C186.6 98.32 187.48 98.92 187.88 99.28C188.48 98.56 189.04 97.68 189.58 96.7H195.1C194.88 103.52 194.58 106.44 193.98 107.06C193.74 107.32 193.52 107.4 193.14 107.4C192.6 107.4 191.46 107.4 190.2 107.28C190.64 107.96 190.96 109 191 109.68C192.16 109.72 193.4 109.74 194.12 109.62C194.96 109.5 195.48 109.28 196.04 108.52C196.88 107.46 197.16 104.3 197.42 95.54C197.44 95.24 197.44 94.44 197.44 94.44H190.62ZM192.88 103.58C192.46 102.32 191.32 100.48 190.28 99.1L188.38 100.06C189.4 101.5 190.44 103.42 190.82 104.68L192.88 103.58ZM202.7 96.7H207.26C207.16 99.16 206.48 102.12 202.7 104.08V96.7ZM216.74 94.38H209.74V91.06H207.28V94.38H200.32V109.78H202.7V104.14C203.28 104.58 204.02 105.42 204.36 105.9C206.54 104.62 207.88 102.98 208.66 101.3C210.12 102.76 211.62 104.38 212.42 105.48L214.38 103.94C213.3 102.56 211.14 100.5 209.44 98.96C209.6 98.18 209.68 97.44 209.72 96.7H214.38V106.96C214.38 107.32 214.26 107.42 213.88 107.44C213.5 107.44 212.16 107.46 210.98 107.4C211.32 108.02 211.68 109.08 211.76 109.76C213.54 109.76 214.82 109.72 215.64 109.34C216.48 108.96 216.74 108.3 216.74 107.02V94.38ZM222.3 94.82H234.6V96.96H237.04V92.66H229.66V91.06H227.22V92.66H219.98V96.96H222.3V94.82ZM229.72 96.56C231.46 97.64 233.6 99.26 234.62 100.38L236.42 98.82C235.32 97.7 233.08 96.16 231.4 95.16L229.72 96.56ZM224.88 95.2C223.88 96.58 222.16 97.86 220.44 98.64C220.92 99.08 221.74 100.04 222.08 100.54C223.92 99.48 225.92 97.78 227.18 95.98L224.88 95.2ZM225.38 102.88C226.7 101.9 227.82 100.84 228.58 99.86C229.4 100.88 230.6 101.92 231.96 102.88H225.38ZM225.22 107.08V104.96H231.8V107.08H225.22ZM227.26 97.7C225.76 99.82 222.64 102.32 219.38 103.6C219.84 104.12 220.42 105.04 220.72 105.62C221.46 105.3 222.2 104.92 222.92 104.5V109.74H225.22V109.18H231.8V109.72H234.22V104.32C234.98 104.74 235.74 105.12 236.46 105.44C236.86 104.76 237.4 103.88 237.94 103.28C234.88 102.28 231.8 100.28 229.68 97.7H227.26Z" fill="white"/>
<rect x="0.5" y="777" width="375" height="35" fill="#552600"/>
<path d="M30.788 802.224C32.324 802.224 33.588 801.616 34.564 800.48L33.316 799.008C32.676 799.696 31.876 800.176 30.868 800.176C28.996 800.176 27.78 798.624 27.78 796.048C27.78 793.504 29.124 791.968 30.916 791.968C31.812 791.968 32.5 792.384 33.092 792.96L34.34 791.456C33.572 790.656 32.372 789.936 30.868 789.936C27.876 789.936 25.364 792.224 25.364 796.128C25.364 800.08 27.796 802.224 30.788 802.224ZM36.4716 802H43.6396V800.016H38.8396V790.16H36.4716V802ZM49.625 802.224C52.521 802.224 54.201 800.608 54.201 796.672V790.16H51.929V796.88C51.929 799.344 51.033 800.176 49.625 800.176C48.233 800.176 47.385 799.344 47.385 796.88V790.16H45.017V796.672C45.017 800.608 46.745 802.224 49.625 802.224ZM57.0498 802H61.2738C63.8818 802 65.8658 800.896 65.8658 798.512C65.8658 796.912 64.9218 796.016 63.6418 795.712V795.632C64.6498 795.28 65.2578 794.16 65.2578 793.072C65.2578 790.864 63.4018 790.16 60.9698 790.16H57.0498V802ZM59.4178 794.976V791.968H60.8258C62.2498 791.968 62.9538 792.384 62.9538 793.424C62.9538 794.368 62.2978 794.976 60.7938 794.976H59.4178ZM59.4178 800.176V796.736H61.0658C62.6978 796.736 63.5618 797.216 63.5618 798.368C63.5618 799.6 62.6818 800.176 61.0658 800.176H59.4178ZM67.9404 802H70.3084V796.88H74.7884V802H77.1404V790.16H74.7884V794.816H70.3084V790.16H67.9404V802ZM84.7538 802.224C87.8898 802.224 90.0498 799.872 90.0498 796.032C90.0498 792.192 87.8898 789.936 84.7538 789.936C81.6178 789.936 79.4578 792.176 79.4578 796.032C79.4578 799.872 81.6178 802.224 84.7538 802.224ZM84.7538 800.176C82.9938 800.176 81.8738 798.56 81.8738 796.032C81.8738 793.488 82.9938 791.968 84.7538 791.968C86.5138 791.968 87.6337 793.488 87.6337 796.032C87.6337 798.56 86.5138 800.176 84.7538 800.176ZM96.9063 802.224C99.8023 802.224 101.482 800.608 101.482 796.672V790.16H99.2103V796.88C99.2103 799.344 98.3143 800.176 96.9063 800.176C95.5143 800.176 94.6663 799.344 94.6663 796.88V790.16H92.2983V796.672C92.2983 800.608 94.0263 802.224 96.9063 802.224ZM107.68 802.224C110.416 802.224 112.032 800.576 112.032 798.64C112.032 796.928 111.088 796.016 109.648 795.424L108.096 794.768C107.088 794.368 106.24 794.064 106.24 793.216C106.24 792.432 106.911 791.968 107.952 791.968C108.928 791.968 109.712 792.32 110.464 792.944L111.664 791.456C110.704 790.48 109.328 789.936 107.952 789.936C105.552 789.936 103.856 791.424 103.856 793.36C103.856 795.088 105.056 796.048 106.256 796.544L107.84 797.216C108.896 797.664 109.616 797.936 109.616 798.816C109.616 799.648 108.96 800.176 107.728 800.176C106.688 800.176 105.568 799.648 104.72 798.864L103.36 800.496C104.512 801.6 106.096 802.224 107.68 802.224ZM114.128 802H121.568V800.016H116.496V796.848H120.656V794.864H116.496V792.128H121.392V790.16H114.128V802Z" fill="white"/>
<rect x="69.5" y="199" width="237" height="46" rx="8" fill="#AC2524"/>
<path d="M171.572 223.8V222.664H165.108V218.68H170.9V217.544H165.108V215.624H163.876V217.544H158.212V218.68H163.876V222.664H157.46V223.8H163.076C161.62 225.752 159.268 227.624 157.124 228.552C157.38 228.792 157.764 229.24 157.956 229.528C160.052 228.488 162.324 226.568 163.876 224.456V230.216H165.108V224.424C166.66 226.536 168.948 228.536 171.076 229.592C171.268 229.272 171.652 228.824 171.908 228.584C169.748 227.656 167.38 225.752 165.924 223.8H171.572ZM159.508 219.448C160.132 220.376 160.74 221.672 160.948 222.472L162.068 222.04C161.844 221.208 161.188 219.976 160.548 219.048L159.508 219.448ZM167.956 222.504C168.532 221.72 169.236 220.456 169.796 219.368L168.58 218.984C168.196 219.944 167.508 221.304 166.964 222.168L167.956 222.504ZM185.188 228.536H178.276V225.464H185.188V228.536ZM182.1 219.144H180.9V224.408H177.108V230.232H178.276V229.608H185.188V230.2H186.388V224.408H182.1V222.12H187.46V221.048H182.1V219.144ZM181.572 217.672V215.624H180.356V217.672H174.484V221.8C174.484 224.072 174.356 227.272 173.06 229.56C173.348 229.688 173.86 230.024 174.068 230.232C175.428 227.816 175.652 224.232 175.652 221.8V218.808H187.684V217.672H181.572ZM202.756 221.464L202.516 221.56H199.22L199.492 221.144C199.044 220.904 198.42 220.6 197.764 220.312C199.204 219.416 200.788 218.2 201.924 217.064L201.06 216.408L200.788 216.472H190.916V217.576H199.636C198.772 218.36 197.604 219.192 196.596 219.768C195.62 219.336 194.58 218.904 193.7 218.552L193.092 219.432C194.516 220.04 196.34 220.872 197.7 221.56H189.412V222.696H196.004V228.712C196.004 228.952 195.908 229.016 195.62 229.032C195.3 229.048 194.228 229.064 193.124 229.016C193.284 229.352 193.492 229.832 193.572 230.168C194.964 230.168 195.892 230.152 196.452 229.976C197.012 229.8 197.204 229.464 197.204 228.728V222.696H201.748C201.172 223.624 200.468 224.552 199.876 225.192L200.836 225.8C201.812 224.824 202.852 223.304 203.7 221.912L202.756 221.464ZM206.004 224.68C205.828 226.088 205.492 227.512 204.964 228.488C205.22 228.568 205.7 228.792 205.892 228.936C206.42 227.912 206.804 226.376 207.028 224.872L206.004 224.68ZM209.476 224.904C209.908 225.896 210.356 227.176 210.5 228.008L211.444 227.688C211.3 226.856 210.836 225.592 210.372 224.616L209.476 224.904ZM209.076 221.112C209.348 221.544 209.62 222.04 209.86 222.536C208.98 222.568 208.1 222.616 207.3 222.648C208.404 221.272 209.684 219.384 210.612 217.88L209.588 217.432C209.14 218.296 208.532 219.336 207.876 220.344C207.62 220.008 207.284 219.624 206.9 219.24C207.508 218.376 208.18 217.096 208.724 216.024L207.668 215.624C207.332 216.504 206.772 217.704 206.244 218.6C206.084 218.456 205.924 218.312 205.764 218.184L205.156 218.952C205.908 219.624 206.772 220.536 207.252 221.256C206.9 221.768 206.532 222.264 206.18 222.68C205.812 222.696 205.444 222.712 205.124 222.712L205.22 223.784L207.828 223.656V230.248H208.916V223.592L210.292 223.512C210.436 223.848 210.532 224.152 210.596 224.424L211.54 223.976C211.316 223.112 210.628 221.752 209.956 220.728L209.076 221.112ZM219.476 218.488H213.604C213.988 217.656 214.308 216.776 214.58 215.88L213.38 215.608C212.788 217.72 211.764 219.816 210.532 221.144C210.82 221.304 211.348 221.656 211.572 221.848C212.1 221.224 212.612 220.456 213.06 219.608H218.308C218.068 225.848 217.796 228.28 217.268 228.824C217.092 229.032 216.884 229.064 216.58 229.064C216.18 229.064 215.204 229.064 214.132 228.968C214.356 229.288 214.484 229.8 214.516 230.136C215.476 230.2 216.452 230.216 216.98 230.168C217.588 230.104 217.94 229.992 218.308 229.528C218.964 228.744 219.188 226.264 219.476 219.096V218.488ZM215.892 225.592C215.508 224.584 214.548 223.064 213.652 221.944L212.692 222.408C213.588 223.576 214.484 225.16 214.852 226.136L215.892 225.592Z" fill="white"/>
<rect x="69.75" y="255.25" width="236.5" height="45.5" rx="7.75" fill="white" stroke="#AC2524" stroke-width="0.5"/>
<path d="M153.204 284.088C152.58 284.088 151.492 283.464 151.492 282.744C151.492 282.024 152.436 281.128 153.716 280.52C153.732 281.672 153.764 282.744 153.764 283.32C153.764 283.816 153.572 284.088 153.204 284.088ZM154.868 278.376C154.868 277.736 154.884 276.984 154.9 276.232C156.052 276.104 157.268 275.896 158.196 275.688L158.18 274.424C157.284 274.696 156.084 274.92 154.932 275.064C154.948 274.36 154.964 273.736 154.98 273.352C154.996 272.984 155.028 272.552 155.06 272.264H153.668C153.732 272.536 153.764 273.064 153.764 273.384C153.764 273.672 153.748 274.36 153.732 275.192C153.3 275.224 152.884 275.24 152.516 275.24C151.94 275.24 151.364 275.224 150.5 275.112L150.532 276.328C151.14 276.392 151.828 276.408 152.548 276.408C152.884 276.408 153.284 276.392 153.716 276.36C153.7 277.064 153.7 277.8 153.7 278.44V279.336C151.876 280.12 150.228 281.496 150.228 282.792C150.228 284.216 152.292 285.416 153.54 285.416C154.388 285.416 154.948 284.952 154.948 283.48C154.948 282.792 154.916 281.4 154.884 280.056C156.02 279.656 157.14 279.432 158.324 279.432C159.828 279.432 161.044 280.152 161.044 281.496C161.044 282.968 159.78 283.72 158.388 283.976C157.78 284.104 157.124 284.088 156.532 284.088L156.98 285.352C157.524 285.336 158.228 285.304 158.932 285.144C161.108 284.616 162.308 283.4 162.308 281.48C162.308 279.592 160.644 278.328 158.34 278.328C157.3 278.328 156.068 278.52 154.868 278.904V278.376ZM159.428 274.984C160.436 275.528 162.196 276.6 162.98 277.352L163.62 276.328C162.852 275.688 161.124 274.6 160.004 274.008L159.428 274.984ZM165.972 276.552C168.868 276.456 173.252 276.296 177.412 276.104C177.908 276.584 178.34 277.048 178.66 277.432L179.668 276.712C178.644 275.512 176.58 273.8 174.868 272.616L173.924 273.24C174.708 273.784 175.54 274.44 176.308 275.112C174.004 275.176 171.684 275.224 169.652 275.256C170.356 274.248 171.108 272.968 171.7 271.864L170.388 271.544C169.924 272.648 169.124 274.168 168.388 275.288C167.444 275.304 166.564 275.304 165.828 275.32L165.972 276.552ZM175.972 276.712H174.756V279.144H170.356V279.032V276.888H169.172V279V279.144H165.396V280.28H169.108C168.916 282.056 168.164 283.944 165.348 285.4C165.636 285.592 166.052 286.008 166.228 286.264C169.332 284.616 170.132 282.376 170.308 280.28H174.756V286.232H175.972V280.28H179.636V279.144H175.972V276.712ZM193.3 272.168C192.82 273.4 191.94 275.096 191.236 276.136L192.26 276.552C192.98 275.512 193.876 273.96 194.548 272.6L193.3 272.168ZM185.668 275.944C185.3 274.936 184.436 273.432 183.54 272.312L182.5 272.744C183.332 273.864 184.196 275.416 184.532 276.44L185.668 275.944ZM189.124 271.608H187.844V277.24H182.708V278.408H193.108V280.728H183.236V281.88H193.108V284.36H182.404V285.528H193.108V286.232H194.34V277.24H189.124V271.608ZM210.756 277.464L210.516 277.56H207.22L207.492 277.144C207.044 276.904 206.42 276.6 205.764 276.312C207.204 275.416 208.788 274.2 209.924 273.064L209.06 272.408L208.788 272.472H198.916V273.576H207.636C206.772 274.36 205.604 275.192 204.596 275.768C203.62 275.336 202.58 274.904 201.7 274.552L201.092 275.432C202.516 276.04 204.34 276.872 205.7 277.56H197.412V278.696H204.004V284.712C204.004 284.952 203.908 285.016 203.62 285.032C203.3 285.048 202.228 285.064 201.124 285.016C201.284 285.352 201.492 285.832 201.572 286.168C202.964 286.168 203.892 286.152 204.452 285.976C205.012 285.8 205.204 285.464 205.204 284.728V278.696H209.748C209.172 279.624 208.468 280.552 207.876 281.192L208.836 281.8C209.812 280.824 210.852 279.304 211.7 277.912L210.756 277.464ZM214.004 280.68C213.828 282.088 213.492 283.512 212.964 284.488C213.22 284.568 213.7 284.792 213.892 284.936C214.42 283.912 214.804 282.376 215.028 280.872L214.004 280.68ZM217.476 280.904C217.908 281.896 218.356 283.176 218.5 284.008L219.444 283.688C219.3 282.856 218.836 281.592 218.372 280.616L217.476 280.904ZM217.076 277.112C217.348 277.544 217.62 278.04 217.86 278.536C216.98 278.568 216.1 278.616 215.3 278.648C216.404 277.272 217.684 275.384 218.612 273.88L217.588 273.432C217.14 274.296 216.532 275.336 215.876 276.344C215.62 276.008 215.284 275.624 214.9 275.24C215.508 274.376 216.18 273.096 216.724 272.024L215.668 271.624C215.332 272.504 214.772 273.704 214.244 274.6C214.084 274.456 213.924 274.312 213.764 274.184L213.156 274.952C213.908 275.624 214.772 276.536 215.252 277.256C214.9 277.768 214.532 278.264 214.18 278.68C213.812 278.696 213.444 278.712 213.124 278.712L213.22 279.784L215.828 279.656V286.248H216.916V279.592L218.292 279.512C218.436 279.848 218.532 280.152 218.596 280.424L219.54 279.976C219.316 279.112 218.628 277.752 217.956 276.728L217.076 277.112ZM227.476 274.488H221.604C221.988 273.656 222.308 272.776 222.58 271.88L221.38 271.608C220.788 273.72 219.764 275.816 218.532 277.144C218.82 277.304 219.348 277.656 219.572 277.848C220.1 277.224 220.612 276.456 221.06 275.608H226.308C226.068 281.848 225.796 284.28 225.268 284.824C225.092 285.032 224.884 285.064 224.58 285.064C224.18 285.064 223.204 285.064 222.132 284.968C222.356 285.288 222.484 285.8 222.516 286.136C223.476 286.2 224.452 286.216 224.98 286.168C225.588 286.104 225.94 285.992 226.308 285.528C226.964 284.744 227.188 282.264 227.476 275.096V274.488ZM223.892 281.592C223.508 280.584 222.548 279.064 221.652 277.944L220.692 278.408C221.588 279.576 222.484 281.16 222.852 282.136L223.892 281.592Z" fill="#AC2524"/>
<path d="M80.9484 151.168L80.0844 151.52C80.5324 152.128 81.0764 153.104 81.3964 153.76L82.2604 153.36C81.9244 152.72 81.3484 151.728 80.9484 151.168ZM82.7084 150.512L81.8604 150.88C82.3244 151.488 82.8524 152.4 83.1884 153.088L84.0684 152.704C83.7484 152.112 83.1404 151.104 82.7084 150.512ZM71.9884 154.272C73.2524 154.384 74.5964 154.448 76.1804 154.448C77.6524 154.448 79.3804 154.336 80.4524 154.256V152.944C79.3164 153.056 77.7004 153.168 76.1804 153.168C74.5964 153.168 73.1404 153.104 71.9884 152.96V154.272ZM71.3484 159.232C71.1884 159.872 71.0124 160.608 71.0124 161.44C71.0124 163.424 72.8844 164.496 76.1004 164.496C78.3564 164.496 80.3724 164.256 81.5084 163.936L81.4924 162.576C80.2924 162.944 78.2604 163.184 76.0684 163.184C73.5404 163.184 72.3244 162.352 72.3244 161.152C72.3244 160.56 72.4524 159.984 72.6444 159.36L71.3484 159.232ZM98.7404 156.464L98.5004 156.56H95.2044L95.4764 156.144C95.0284 155.904 94.4044 155.6 93.7484 155.312C95.1884 154.416 96.7724 153.2 97.9084 152.064L97.0444 151.408L96.7724 151.472H86.9004V152.576H95.6204C94.7564 153.36 93.5884 154.192 92.5804 154.768C91.6044 154.336 90.5644 153.904 89.6844 153.552L89.0764 154.432C90.5004 155.04 92.3244 155.872 93.6844 156.56H85.3964V157.696H91.9884V163.712C91.9884 163.952 91.8924 164.016 91.6044 164.032C91.2844 164.048 90.2124 164.064 89.1084 164.016C89.2684 164.352 89.4764 164.832 89.5564 165.168C90.9484 165.168 91.8764 165.152 92.4364 164.976C92.9964 164.8 93.1884 164.464 93.1884 163.728V157.696H97.7324C97.1564 158.624 96.4524 159.552 95.8604 160.192L96.8204 160.8C97.7964 159.824 98.8364 158.304 99.6844 156.912L98.7404 156.464ZM101.988 159.68C101.812 161.088 101.476 162.512 100.948 163.488C101.204 163.568 101.684 163.792 101.876 163.936C102.404 162.912 102.788 161.376 103.012 159.872L101.988 159.68ZM105.46 159.904C105.892 160.896 106.34 162.176 106.484 163.008L107.428 162.688C107.284 161.856 106.82 160.592 106.356 159.616L105.46 159.904ZM105.06 156.112C105.332 156.544 105.604 157.04 105.844 157.536C104.964 157.568 104.084 157.616 103.284 157.648C104.388 156.272 105.668 154.384 106.596 152.88L105.572 152.432C105.124 153.296 104.516 154.336 103.86 155.344C103.604 155.008 103.268 154.624 102.884 154.24C103.492 153.376 104.164 152.096 104.708 151.024L103.652 150.624C103.316 151.504 102.756 152.704 102.228 153.6C102.068 153.456 101.908 153.312 101.748 153.184L101.14 153.952C101.892 154.624 102.756 155.536 103.236 156.256C102.884 156.768 102.516 157.264 102.164 157.68C101.796 157.696 101.428 157.712 101.108 157.712L101.204 158.784L103.812 158.656V165.248H104.9V158.592L106.276 158.512C106.42 158.848 106.516 159.152 106.58 159.424L107.524 158.976C107.3 158.112 106.612 156.752 105.94 155.728L105.06 156.112ZM115.46 153.488H109.588C109.972 152.656 110.292 151.776 110.564 150.88L109.364 150.608C108.772 152.72 107.748 154.816 106.516 156.144C106.804 156.304 107.332 156.656 107.556 156.848C108.084 156.224 108.596 155.456 109.044 154.608H114.292C114.052 160.848 113.78 163.28 113.252 163.824C113.076 164.032 112.868 164.064 112.564 164.064C112.164 164.064 111.188 164.064 110.116 163.968C110.34 164.288 110.468 164.8 110.5 165.136C111.46 165.2 112.436 165.216 112.964 165.168C113.572 165.104 113.924 164.992 114.292 164.528C114.948 163.744 115.172 161.264 115.46 154.096V153.488ZM111.876 160.592C111.492 159.584 110.532 158.064 109.636 156.944L108.676 157.408C109.572 158.576 110.468 160.16 110.836 161.136L111.876 160.592ZM130.884 153.344H125.092V150.608H123.908V153.344H118.116V165.248H119.284V154.512H123.892C123.796 156.608 123.22 159.248 119.7 161.12C119.972 161.328 120.372 161.76 120.548 162.016C122.692 160.752 123.844 159.264 124.436 157.728C125.908 159.104 127.508 160.736 128.324 161.808L129.3 161.04C128.324 159.856 126.372 157.984 124.788 156.592C124.964 155.872 125.044 155.168 125.076 154.512H129.716V163.632C129.716 163.92 129.62 164.016 129.332 164.032C128.996 164.048 127.908 164.048 126.788 164C126.964 164.32 127.14 164.88 127.188 165.2C128.612 165.2 129.604 165.2 130.164 164.992C130.708 164.8 130.884 164.416 130.884 163.648V153.344ZM135.012 153.168H145.908V154.96H147.124V152.08H141.044V150.608H139.844V152.08H133.86V154.96H135.012V153.168ZM141.86 154.608C143.332 155.504 145.124 156.864 145.988 157.776L146.852 156.976C145.956 156.064 144.116 154.768 142.676 153.904L141.86 154.608ZM137.812 153.92C136.916 155.088 135.412 156.208 133.972 156.928C134.244 157.152 134.644 157.616 134.82 157.856C136.276 157.008 137.892 155.68 138.948 154.288L137.812 153.92ZM137.156 159.888C138.548 158.88 139.748 157.776 140.5 156.784C141.364 157.824 142.676 158.928 144.084 159.888H137.156ZM137.252 163.616V160.96H143.7V163.616H137.252ZM139.844 155.68C138.58 157.488 135.956 159.616 133.268 160.832C133.508 161.104 133.812 161.536 133.94 161.824C134.676 161.456 135.412 161.04 136.116 160.592V165.232H137.252V164.688H143.7V165.168H144.884V160.416C145.652 160.896 146.42 161.328 147.14 161.68C147.332 161.344 147.62 160.912 147.892 160.608C145.444 159.616 142.724 157.728 141.028 155.68H139.844ZM157.956 161.84C157.94 161.072 157.924 159.728 157.908 158.816C159.108 158.256 160.244 157.792 161.14 157.44C161.556 157.28 162.132 157.056 162.532 156.944L162.02 155.744C161.572 155.968 161.188 156.16 160.708 156.368C159.876 156.752 158.916 157.136 157.828 157.648C157.588 156.704 156.756 156.208 155.732 156.208C155.028 156.208 154.116 156.432 153.54 156.8C154.116 156.064 154.612 155.184 154.964 154.368C156.692 154.304 158.644 154.16 160.212 153.92L160.228 152.736C158.724 152.992 156.996 153.136 155.38 153.216C155.604 152.496 155.748 151.84 155.86 151.392L154.548 151.28C154.516 151.824 154.372 152.544 154.148 153.248C153.78 153.264 153.444 153.264 153.108 153.264C152.388 153.264 151.284 153.2 150.436 153.104V154.304C151.3 154.368 152.372 154.4 153.044 154.4H153.7C153.108 155.648 152.068 157.28 150.052 159.232L151.14 160.048C151.684 159.408 152.132 158.816 152.58 158.384C153.316 157.728 154.276 157.216 155.316 157.216C156.004 157.216 156.58 157.536 156.74 158.192C154.9 159.152 153.012 160.336 153.012 162.208C153.012 164.144 154.836 164.624 157.108 164.624C158.484 164.624 160.244 164.512 161.444 164.368L161.476 163.072C160.084 163.312 158.388 163.456 157.156 163.456C155.524 163.456 154.292 163.28 154.292 162.032C154.292 160.992 155.316 160.176 156.788 159.376C156.788 160.208 156.772 161.232 156.724 161.84H157.956ZM177.892 153.104H174.82V154.768C174.82 155.728 175.156 155.968 176.34 155.968H178.484C179.332 155.968 179.636 155.68 179.748 154.608C179.46 154.544 179.076 154.416 178.868 154.272C178.82 155.024 178.74 155.12 178.356 155.12H176.452C175.924 155.12 175.828 155.056 175.828 154.752V153.936H178.948V151.232H174.516V152.064H177.892V153.104ZM172.74 153.104H169.604V154.768C169.604 155.728 169.908 155.968 171.092 155.968H173.076C173.892 155.968 174.196 155.696 174.308 154.656C174.02 154.608 173.636 154.48 173.428 154.32C173.38 155.024 173.3 155.12 172.916 155.12H171.188C170.676 155.12 170.596 155.056 170.596 154.768V153.936H173.748V151.232H169.316V152.064H172.74V153.104ZM172.996 158.24H175.62V159.76H172.996V158.24ZM179.652 159.76H176.756V158.24H179.156V157.328H176.756V156.176H175.62V157.328H172.996V156.176H171.892V157.328H169.524V158.24H171.892V159.76H169.012V160.688H179.652V159.76ZM179.412 162.816C178.66 162.224 177.348 161.456 176.18 160.896L175.332 161.424C176.436 161.984 177.588 162.736 178.26 163.328L179.412 162.816ZM172.42 160.864C171.716 161.504 170.532 162.112 169.444 162.544C169.7 162.704 170.132 163.088 170.324 163.296C171.38 162.784 172.66 162 173.476 161.232L172.42 160.864ZM168.708 153.648C168.26 152.848 167.204 151.744 166.26 150.992L165.348 151.6C166.276 152.384 167.3 153.52 167.716 154.32L168.708 153.648ZM168.34 156.88H165.268V158H167.236V162.128C166.532 162.8 165.748 163.472 165.076 163.968L165.7 165.072C166.468 164.368 167.188 163.696 167.86 162.992C168.852 164.256 170.308 164.832 172.42 164.912C174.228 164.976 177.684 164.944 179.492 164.864C179.54 164.528 179.732 164 179.876 163.744C177.924 163.872 174.196 163.92 172.388 163.84C170.516 163.76 169.092 163.216 168.34 162.016V156.88ZM187.092 158.72L186.98 157.632L184.804 158.144V154.96H186.98V153.856H184.804V150.624H183.668V153.856H181.284V154.96H183.668V158.416C182.692 158.64 181.812 158.848 181.076 158.992L181.38 160.16L183.668 159.584V163.792C183.668 164.048 183.556 164.112 183.332 164.128C183.092 164.144 182.308 164.16 181.46 164.128C181.62 164.416 181.78 164.912 181.812 165.216C183.044 165.216 183.748 165.184 184.18 165.008C184.628 164.816 184.804 164.48 184.804 163.776V159.296L187.092 158.72ZM194.02 152.64V156.8H188.948V152.64H194.02ZM195.188 157.936V151.52H187.78V156.944C187.78 159.312 187.588 162.336 185.572 164.416C185.828 164.56 186.292 164.992 186.484 165.216C188.372 163.264 188.836 160.352 188.932 157.936H190.932C191.62 161.264 192.932 163.936 195.236 165.248C195.428 164.928 195.796 164.448 196.068 164.224C193.988 163.168 192.74 160.768 192.1 157.936H195.188ZM200.34 151.568C200.436 152.032 200.484 152.592 200.484 153.168C200.484 154.848 200.324 158.848 200.324 161.2C200.324 163.776 201.892 164.736 204.164 164.736C207.652 164.736 209.7 162.752 210.772 161.248L209.892 160.144C208.756 161.792 207.108 163.424 204.196 163.424C202.724 163.424 201.604 162.816 201.604 161.072C201.604 158.704 201.732 154.96 201.796 153.168C201.828 152.656 201.876 152.096 201.956 151.584L200.34 151.568ZM213.424 153.376L213.568 154.784C215.28 154.432 219.6 154.016 220.992 153.856C219.536 154.72 218.048 156.72 218.048 159.2C218.048 162.736 221.392 164.304 224.32 164.416L224.784 163.088C222.208 162.992 219.328 162.016 219.328 158.912C219.328 157.04 220.688 154.64 222.944 153.92C223.76 153.68 225.152 153.664 226.048 153.664V152.384C224.992 152.432 223.504 152.512 221.776 152.656C218.864 152.896 215.872 153.2 214.832 153.296C214.528 153.328 214.032 153.36 213.424 153.376ZM237.564 151.184C237.388 151.472 236.972 151.92 236.652 152.24C235.58 153.328 233.18 155.216 231.996 156.224C230.556 157.424 230.396 158.144 231.884 159.392C233.372 160.608 236.012 162.864 236.876 163.792C237.212 164.16 237.644 164.56 237.964 164.944L239.116 163.904C237.564 162.368 234.636 159.936 233.196 158.784C232.172 157.936 232.172 157.696 233.132 156.864C234.3 155.904 236.572 154.08 237.676 153.136C237.932 152.912 238.412 152.496 238.764 152.24L237.564 151.184ZM256.908 154.336C256.588 153.68 256.012 152.704 255.596 152.128L254.748 152.496C255.18 153.104 255.724 154.064 256.044 154.72L256.908 154.336ZM251.628 157.696C252.604 157.584 253.564 157.536 254.556 157.536C255.484 157.536 256.428 157.616 257.228 157.712L257.26 156.496C256.412 156.4 255.436 156.368 254.524 156.368C253.5 156.368 252.46 156.432 251.628 156.496V157.696ZM252.652 153.536C251.692 153.792 250.652 153.984 249.628 154.112L249.868 152.944C249.932 152.64 250.044 152.032 250.156 151.696L248.604 151.568C248.636 151.888 248.604 152.416 248.556 152.864C248.508 153.184 248.428 153.68 248.316 154.256C247.708 154.288 247.148 154.32 246.62 154.32C246.044 154.32 245.468 154.304 244.716 154.208L244.764 155.456C245.324 155.504 245.9 155.52 246.604 155.52C247.052 155.52 247.532 155.504 248.044 155.472C247.916 156.048 247.788 156.624 247.644 157.152C247.052 159.392 245.932 162.608 244.988 164.24L246.396 164.704C247.228 162.992 248.3 159.712 248.876 157.456C249.052 156.768 249.228 156.048 249.372 155.344C250.476 155.232 251.612 155.04 252.652 154.816V153.536ZM250.828 160.24C250.684 160.912 250.588 161.52 250.588 162.112C250.588 163.68 251.9 164.464 254.396 164.464C255.548 164.464 256.604 164.352 257.452 164.24L257.5 162.944C256.54 163.136 255.436 163.248 254.412 163.248C252.156 163.248 251.804 162.528 251.804 161.792C251.804 161.376 251.884 160.88 252.028 160.352L250.828 160.24ZM256.524 151.84C256.972 152.448 257.5 153.36 257.852 154.064L258.716 153.68C258.412 153.072 257.788 152.08 257.356 151.472L256.524 151.84ZM262.812 159.008C262.556 159.872 262.38 160.752 262.38 161.44C262.38 163.424 264.012 164.608 266.956 164.608C269.052 164.608 270.124 164.416 271.116 164.24L271.132 162.912C270.012 163.152 269.068 163.344 266.972 163.344C264.604 163.344 263.66 162.512 263.66 161.12C263.66 160.64 263.852 159.728 264.108 159.12L262.812 159.008ZM272.812 153.104C271.724 153.456 270.652 153.712 269.564 153.904C269.212 153.056 268.924 152.352 268.54 151.296L267.116 151.568C267.372 152 267.516 152.304 267.788 152.896L268.316 154.064C266.492 154.256 264.332 154.272 262.028 153.968L262.076 155.248C264.492 155.456 266.764 155.456 268.812 155.216C269.292 156.32 270.092 157.968 270.54 158.944C270.012 158.896 268.908 158.768 268.3 158.72L268.172 159.76C269.196 159.856 270.764 160.08 271.452 160.224L272.188 159.456C271.5 158.128 270.636 156.288 270.06 155.024C271.036 154.864 272.076 154.624 273.052 154.368L272.812 153.104ZM279.132 152.864L277.596 152.832C277.676 153.216 277.692 153.872 277.692 154.24C277.692 155.168 277.708 157.088 277.868 158.464C278.3 162.576 279.74 164.064 281.228 164.064C282.316 164.064 283.292 163.152 284.236 160.464L283.228 159.312C282.812 160.912 282.076 162.544 281.26 162.544C280.14 162.544 279.372 160.8 279.116 158.144C279.004 156.848 278.988 155.392 279.004 154.4C279.02 153.984 279.068 153.248 279.132 152.864ZM287.388 153.296L286.14 153.728C287.644 155.584 288.604 158.72 288.876 161.568L290.172 161.056C289.948 158.384 288.812 155.136 287.388 153.296ZM294.62 160.096C293.292 160.096 292.188 161.184 292.188 162.528C292.188 163.872 293.292 164.976 294.62 164.976C295.98 164.976 297.068 163.872 297.068 162.528C297.068 161.184 295.98 160.096 294.62 160.096ZM294.62 164.16C293.74 164.16 293.004 163.44 293.004 162.528C293.004 161.648 293.74 160.912 294.62 160.912C295.532 160.912 296.236 161.648 296.236 162.528C296.236 163.44 295.532 164.16 294.62 164.16Z" fill="black"/>
</g>
<defs>
<clipPath id="clip0_23_1637">
<rect width="375" height="812" fill="white" transform="translate(0.5)"/>
</clipPath>
</defs>
</svg>
