<svg width="375" height="812" viewBox="0 0 375 812" fill="none" xmlns="http://www.w3.org/2000/svg">
<g clip-path="url(#clip0_23_2013)">
<rect width="375" height="812" fill="white"/>
<rect width="375" height="812" fill="#F4EFED"/>
<path d="M317.667 37H344.333C345.25 37 346 36.25 346 35.3333C346 34.4167 345.25 33.6667 344.333 33.6667H317.667C316.75 33.6667 316 34.4167 316 35.3333C316 36.25 316.75 37 317.667 37ZM317.667 28.6667H344.333C345.25 28.6667 346 27.9167 346 27C346 26.0833 345.25 25.3333 344.333 25.3333H317.667C316.75 25.3333 316 26.0833 316 27C316 27.9167 316.75 28.6667 317.667 28.6667ZM316 18.6667C316 19.5833 316.75 20.3333 317.667 20.3333H344.333C345.25 20.3333 346 19.5833 346 18.6667C346 17.75 345.25 17 344.333 17H317.667C316.75 17 316 17.75 316 18.6667Z" fill="#552600"/>
<rect x="24" y="85" width="327" height="30" fill="#AC2524"/>
<path d="M165.32 98.5L164.88 98.66H161.72L162.2 97.88C161.74 97.66 161.14 97.44 160.48 97.18C162.16 96.04 163.82 94.66 165.1 93.38L163.4 92.04L162.86 92.18H150.9V94.36H160.56C159.78 95.04 158.88 95.7 158.02 96.24C156.9 95.82 155.78 95.44 154.88 95.12L153.7 96.92C154.98 97.4 156.6 98.04 158.08 98.66H148.98V100.92H156.88V107.06C156.88 107.36 156.76 107.44 156.38 107.46C155.98 107.46 154.5 107.46 153.32 107.42C153.68 108.04 154.06 109.02 154.18 109.7C155.9 109.7 157.2 109.68 158.12 109.34C159.08 109 159.36 108.4 159.36 107.14V100.92H163.58C163.08 101.82 162.5 102.72 162.02 103.38L164.06 104.56C165.18 103.22 166.36 101.22 167.26 99.34L165.32 98.5ZM169.42 102.76C169.26 104.44 168.94 106.22 168.36 107.4C168.88 107.58 169.76 108 170.18 108.26C170.76 106.98 171.18 104.98 171.38 103.1L169.42 102.76ZM173.88 103.2C174.38 104.42 174.9 106.04 175.06 107.06L176.94 106.4C176.7 105.38 176.18 103.82 175.64 102.64L173.88 103.2ZM180.12 94.44C180.5 93.52 180.84 92.56 181.1 91.58L178.66 91.06C178.02 93.58 176.84 96.14 175.36 97.72L175.22 97.48L173.54 98.22C173.78 98.64 174.02 99.12 174.24 99.6L172.22 99.68C173.52 98.06 174.92 96.02 176.04 94.26L174.02 93.42C173.54 94.42 172.9 95.58 172.18 96.7C171.98 96.44 171.74 96.14 171.48 95.86C172.2 94.74 173.02 93.2 173.74 91.82L171.64 91.08C171.32 92.12 170.74 93.46 170.18 94.56C170.02 94.42 169.86 94.28 169.7 94.14L168.58 95.78C169.42 96.58 170.4 97.66 170.98 98.52C170.68 98.96 170.36 99.38 170.06 99.76L168.58 99.82L168.78 101.9L171.74 101.7V109.76H173.84V101.54L174.98 101.46C175.1 101.86 175.2 102.22 175.26 102.54L177.06 101.7C176.84 100.7 176.2 99.22 175.5 97.96C176.1 98.32 176.98 98.92 177.38 99.28C177.98 98.56 178.54 97.68 179.08 96.7H184.6C184.38 103.52 184.08 106.44 183.48 107.06C183.24 107.32 183.02 107.4 182.64 107.4C182.1 107.4 180.96 107.4 179.7 107.28C180.14 107.96 180.46 109 180.5 109.68C181.66 109.72 182.9 109.74 183.62 109.62C184.46 109.5 184.98 109.28 185.54 108.52C186.38 107.46 186.66 104.3 186.92 95.54C186.94 95.24 186.94 94.44 186.94 94.44H180.12ZM182.38 103.58C181.96 102.32 180.82 100.48 179.78 99.1L177.88 100.06C178.9 101.5 179.94 103.42 180.32 104.68L182.38 103.58ZM191.88 95.22H204V97.72H206.54V93H199.2V91.08H196.68V93H189.46V97.72H191.88V95.22ZM203.1 98.86V96.7H192.8V98.86H203.1ZM202.28 107.28C201.56 107.28 201.44 107.2 201.44 106.56V102.54H206.92V100.3H189.1V102.54H193.84C193.54 105.02 192.82 106.74 188.54 107.66C189.06 108.18 189.68 109.16 189.92 109.78C194.94 108.46 196.04 105.98 196.44 102.54H199.04V106.6C199.04 108.76 199.6 109.44 201.92 109.44H204.48C206.38 109.44 206.98 108.68 207.24 105.78C206.62 105.62 205.58 105.24 205.1 104.88C205.02 106.94 204.92 107.28 204.26 107.28H202.28ZM224.28 92.3L223.7 92.46H210.06V94.8H221.66C220.66 95.88 219.42 97 218.2 97.86H216.86V106.92C216.86 107.26 216.72 107.36 216.28 107.36C215.82 107.38 214.18 107.38 212.78 107.3C213.14 107.98 213.58 109.02 213.72 109.74C215.64 109.74 217.06 109.7 218.06 109.34C219.04 108.98 219.38 108.34 219.38 106.96V99.86C221.8 98.34 224.38 95.84 226.14 93.68L224.28 92.3Z" fill="white"/>
<rect y="777" width="375" height="35" fill="#552600"/>
<path d="M30.288 802.224C31.824 802.224 33.088 801.616 34.064 800.48L32.816 799.008C32.176 799.696 31.376 800.176 30.368 800.176C28.496 800.176 27.28 798.624 27.28 796.048C27.28 793.504 28.624 791.968 30.416 791.968C31.312 791.968 32 792.384 32.592 792.96L33.84 791.456C33.072 790.656 31.872 789.936 30.368 789.936C27.376 789.936 24.864 792.224 24.864 796.128C24.864 800.08 27.296 802.224 30.288 802.224ZM35.9716 802H43.1396V800.016H38.3396V790.16H35.9716V802ZM49.125 802.224C52.021 802.224 53.701 800.608 53.701 796.672V790.16H51.429V796.88C51.429 799.344 50.533 800.176 49.125 800.176C47.733 800.176 46.885 799.344 46.885 796.88V790.16H44.517V796.672C44.517 800.608 46.245 802.224 49.125 802.224ZM56.5498 802H60.7738C63.3818 802 65.3658 800.896 65.3658 798.512C65.3658 796.912 64.4218 796.016 63.1418 795.712V795.632C64.1498 795.28 64.7578 794.16 64.7578 793.072C64.7578 790.864 62.9018 790.16 60.4698 790.16H56.5498V802ZM58.9178 794.976V791.968H60.3258C61.7498 791.968 62.4538 792.384 62.4538 793.424C62.4538 794.368 61.7978 794.976 60.2938 794.976H58.9178ZM58.9178 800.176V796.736H60.5658C62.1978 796.736 63.0618 797.216 63.0618 798.368C63.0618 799.6 62.1818 800.176 60.5658 800.176H58.9178ZM67.4404 802H69.8084V796.88H74.2884V802H76.6404V790.16H74.2884V794.816H69.8084V790.16H67.4404V802ZM84.2538 802.224C87.3898 802.224 89.5498 799.872 89.5498 796.032C89.5498 792.192 87.3898 789.936 84.2538 789.936C81.1178 789.936 78.9578 792.176 78.9578 796.032C78.9578 799.872 81.1178 802.224 84.2538 802.224ZM84.2538 800.176C82.4938 800.176 81.3738 798.56 81.3738 796.032C81.3738 793.488 82.4938 791.968 84.2538 791.968C86.0138 791.968 87.1337 793.488 87.1337 796.032C87.1337 798.56 86.0138 800.176 84.2538 800.176ZM96.4063 802.224C99.3023 802.224 100.982 800.608 100.982 796.672V790.16H98.7103V796.88C98.7103 799.344 97.8143 800.176 96.4063 800.176C95.0143 800.176 94.1663 799.344 94.1663 796.88V790.16H91.7983V796.672C91.7983 800.608 93.5263 802.224 96.4063 802.224ZM107.18 802.224C109.916 802.224 111.532 800.576 111.532 798.64C111.532 796.928 110.588 796.016 109.148 795.424L107.596 794.768C106.588 794.368 105.74 794.064 105.74 793.216C105.74 792.432 106.411 791.968 107.452 791.968C108.428 791.968 109.212 792.32 109.964 792.944L111.164 791.456C110.204 790.48 108.828 789.936 107.452 789.936C105.052 789.936 103.356 791.424 103.356 793.36C103.356 795.088 104.556 796.048 105.756 796.544L107.34 797.216C108.396 797.664 109.116 797.936 109.116 798.816C109.116 799.648 108.46 800.176 107.228 800.176C106.188 800.176 105.068 799.648 104.22 798.864L102.86 800.496C104.012 801.6 105.596 802.224 107.18 802.224ZM113.628 802H121.068V800.016H115.996V796.848H120.156V794.864H115.996V792.128H120.892V790.16H113.628V802Z" fill="white"/>
<path d="M79.964 151.168L79.1 151.52C79.548 152.128 80.092 153.104 80.412 153.76L81.276 153.36C80.94 152.72 80.364 151.728 79.964 151.168ZM81.724 150.512L80.876 150.88C81.34 151.488 81.868 152.4 82.204 153.088L83.084 152.704C82.764 152.112 82.156 151.104 81.724 150.512ZM71.004 154.272C72.268 154.384 73.612 154.448 75.196 154.448C76.668 154.448 78.396 154.336 79.468 154.256V152.944C78.332 153.056 76.716 153.168 75.196 153.168C73.612 153.168 72.156 153.104 71.004 152.96V154.272ZM70.364 159.232C70.204 159.872 70.028 160.608 70.028 161.44C70.028 163.424 71.9 164.496 75.116 164.496C77.372 164.496 79.388 164.256 80.524 163.936L80.508 162.576C79.308 162.944 77.276 163.184 75.084 163.184C72.556 163.184 71.34 162.352 71.34 161.152C71.34 160.56 71.468 159.984 71.66 159.36L70.364 159.232ZM97.756 156.464L97.516 156.56H94.22L94.492 156.144C94.044 155.904 93.42 155.6 92.764 155.312C94.204 154.416 95.788 153.2 96.924 152.064L96.06 151.408L95.788 151.472H85.916V152.576H94.636C93.772 153.36 92.604 154.192 91.596 154.768C90.62 154.336 89.58 153.904 88.7 153.552L88.092 154.432C89.516 155.04 91.34 155.872 92.7 156.56H84.412V157.696H91.004V163.712C91.004 163.952 90.908 164.016 90.62 164.032C90.3 164.048 89.228 164.064 88.124 164.016C88.284 164.352 88.492 164.832 88.572 165.168C89.964 165.168 90.892 165.152 91.452 164.976C92.012 164.8 92.204 164.464 92.204 163.728V157.696H96.748C96.172 158.624 95.468 159.552 94.876 160.192L95.836 160.8C96.812 159.824 97.852 158.304 98.7 156.912L97.756 156.464ZM101.004 159.68C100.828 161.088 100.492 162.512 99.964 163.488C100.22 163.568 100.7 163.792 100.892 163.936C101.42 162.912 101.804 161.376 102.028 159.872L101.004 159.68ZM104.476 159.904C104.908 160.896 105.356 162.176 105.5 163.008L106.444 162.688C106.3 161.856 105.836 160.592 105.372 159.616L104.476 159.904ZM104.076 156.112C104.348 156.544 104.62 157.04 104.86 157.536C103.98 157.568 103.1 157.616 102.3 157.648C103.404 156.272 104.684 154.384 105.612 152.88L104.588 152.432C104.14 153.296 103.532 154.336 102.876 155.344C102.62 155.008 102.284 154.624 101.9 154.24C102.508 153.376 103.18 152.096 103.724 151.024L102.668 150.624C102.332 151.504 101.772 152.704 101.244 153.6C101.084 153.456 100.924 153.312 100.764 153.184L100.156 153.952C100.908 154.624 101.772 155.536 102.252 156.256C101.9 156.768 101.532 157.264 101.18 157.68C100.812 157.696 100.444 157.712 100.124 157.712L100.22 158.784L102.828 158.656V165.248H103.916V158.592L105.292 158.512C105.436 158.848 105.532 159.152 105.596 159.424L106.54 158.976C106.316 158.112 105.628 156.752 104.956 155.728L104.076 156.112ZM114.476 153.488H108.604C108.988 152.656 109.308 151.776 109.58 150.88L108.38 150.608C107.788 152.72 106.764 154.816 105.532 156.144C105.82 156.304 106.348 156.656 106.572 156.848C107.1 156.224 107.612 155.456 108.06 154.608H113.308C113.068 160.848 112.796 163.28 112.268 163.824C112.092 164.032 111.884 164.064 111.58 164.064C111.18 164.064 110.204 164.064 109.132 163.968C109.356 164.288 109.484 164.8 109.516 165.136C110.476 165.2 111.452 165.216 111.98 165.168C112.588 165.104 112.94 164.992 113.308 164.528C113.964 163.744 114.188 161.264 114.476 154.096V153.488ZM110.892 160.592C110.508 159.584 109.548 158.064 108.652 156.944L107.692 157.408C108.588 158.576 109.484 160.16 109.852 161.136L110.892 160.592ZM125.276 156.96C124.588 158.704 123.644 159.984 122.604 160.96C122.444 160.048 122.332 159.088 122.332 158.08C122.332 157.872 122.332 157.664 122.332 157.456C123.084 157.184 123.996 156.96 125.02 156.96H125.276ZM121.212 158.224C121.212 159.408 121.356 160.672 121.58 161.808C120.78 162.368 120.012 162.64 119.404 162.64C118.812 162.64 118.508 162.32 118.508 161.68C118.508 160.4 119.676 158.832 121.212 157.952V158.224ZM126.78 156.08C126.876 155.84 127.004 155.408 127.1 155.2L125.82 154.88C125.804 155.136 125.724 155.552 125.66 155.792L125.612 155.936C125.42 155.92 125.228 155.92 125.036 155.92C124.236 155.92 123.26 156.064 122.38 156.336C122.428 155.664 122.476 154.992 122.54 154.384C124.476 154.288 126.588 154.08 128.252 153.808L128.236 152.608C126.604 152.976 124.684 153.184 122.684 153.28C122.748 152.816 122.812 152.416 122.876 152.08C122.924 151.872 122.988 151.584 123.068 151.376L121.724 151.344C121.724 151.536 121.708 151.84 121.676 152.096C121.644 152.432 121.596 152.848 121.548 153.312C121.196 153.328 120.844 153.328 120.492 153.328C119.82 153.328 118.428 153.216 117.884 153.136L117.916 154.336C118.556 154.368 119.788 154.432 120.476 154.432C120.78 154.432 121.1 154.432 121.436 154.416C121.372 155.152 121.292 155.952 121.26 156.752C119.084 157.744 117.308 159.84 117.308 161.872C117.308 163.232 118.124 163.872 119.196 163.872C120.044 163.872 120.988 163.536 121.852 163.008C121.932 163.328 122.028 163.616 122.108 163.888L123.276 163.536C123.148 163.136 123.02 162.704 122.892 162.256C124.236 161.12 125.516 159.376 126.396 157.136C127.884 157.536 128.668 158.624 128.668 159.824C128.668 161.872 126.908 163.344 124.06 163.648L124.748 164.72C128.428 164.144 129.932 162.16 129.932 159.888C129.932 158.144 128.748 156.672 126.764 156.144L126.78 156.08ZM135.548 151.376C135.532 151.76 135.484 152.24 135.42 152.736C135.228 154.016 134.94 156.352 134.94 157.856C134.94 158.88 135.02 159.776 135.1 160.368L136.348 160.272C136.236 159.488 136.236 158.944 136.316 158.336C136.508 156.256 138.332 153.392 140.3 153.392C141.98 153.392 142.812 155.184 142.812 157.68C142.812 161.664 140.124 163.04 136.684 163.568L137.436 164.72C141.372 164 144.14 162.064 144.14 157.664C144.14 154.336 142.62 152.224 140.508 152.224C138.508 152.224 136.844 154.192 136.22 155.824C136.316 154.72 136.62 152.592 136.956 151.424L135.548 151.376ZM163.084 152.64C162.78 152.048 162.156 151.04 161.74 150.464L160.892 150.816C161.34 151.424 161.868 152.336 162.22 153.024L163.084 152.64ZM161.292 153.296C160.956 152.656 160.364 151.664 159.964 151.104L159.116 151.456C159.548 152.064 160.092 153.04 160.412 153.68L161.292 153.296ZM152.812 151.472C152.828 152.544 152.636 153.776 152.412 154.912C151.452 154.992 150.54 155.072 150.012 155.088C149.5 155.104 149.1 155.104 148.604 155.088L148.732 156.48C149.132 156.4 149.772 156.336 150.156 156.288C150.572 156.24 151.324 156.16 152.156 156.08C151.612 158.192 150.444 161.76 148.828 163.92L150.124 164.448C151.788 161.792 152.876 158.224 153.452 155.952C154.14 155.888 154.764 155.84 155.148 155.84C156.172 155.84 156.828 156.096 156.828 157.536C156.828 159.248 156.588 161.312 156.076 162.368C155.74 163.056 155.276 163.184 154.7 163.184C154.252 163.184 153.42 163.056 152.748 162.832L152.956 164.192C153.468 164.304 154.22 164.416 154.828 164.416C155.852 164.416 156.636 164.16 157.148 163.104C157.804 161.776 158.06 159.28 158.06 157.392C158.06 155.248 156.908 154.688 155.484 154.688C155.1 154.688 154.444 154.736 153.708 154.8C153.884 153.952 154.028 153.024 154.124 152.56C154.172 152.24 154.252 151.92 154.316 151.616L152.812 151.472ZM158.588 153.968C159.692 155.264 160.94 158.032 161.42 159.664L162.652 159.056C162.124 157.584 160.748 154.704 159.756 153.424L158.588 153.968ZM175.468 153.312C175.132 153.6 174.796 153.808 174.332 154.064C173.468 154.56 171.756 155.392 170.268 156.288C169.58 155.04 168.78 153.328 168.14 151.6L166.876 152.112C167.612 153.84 168.444 155.696 169.18 156.992C167.484 158.176 166.444 159.472 166.444 161.104C166.444 163.472 168.604 164.368 171.58 164.368C173.564 164.368 175.388 164.192 176.588 163.984V162.544C175.356 162.864 173.244 163.088 171.516 163.088C169.02 163.088 167.772 162.272 167.772 160.96C167.772 159.76 168.652 158.72 170.124 157.76C171.676 156.736 173.884 155.696 174.94 155.152C175.404 154.912 175.804 154.704 176.156 154.48L175.468 153.312ZM190.972 158.64C190.972 161.488 188.252 162.992 184.412 163.472L185.164 164.688C189.276 164.08 192.332 162.128 192.332 158.688C192.332 156.432 190.652 155.168 188.396 155.168C186.588 155.168 184.78 155.68 183.66 155.936C183.196 156.032 182.652 156.128 182.22 156.176L182.62 157.648C183.004 157.504 183.468 157.312 183.948 157.184C184.892 156.912 186.444 156.368 188.268 156.368C189.9 156.368 190.972 157.312 190.972 158.64ZM184.332 151.504L184.124 152.72C185.916 153.04 189.116 153.36 190.876 153.472L191.068 152.24C189.516 152.224 186.076 151.904 184.332 151.504ZM207.964 151.168L207.1 151.52C207.548 152.128 208.092 153.104 208.412 153.76L209.276 153.36C208.94 152.72 208.364 151.728 207.964 151.168ZM209.724 150.512L208.876 150.88C209.34 151.488 209.868 152.4 210.204 153.088L211.084 152.704C210.764 152.112 210.156 151.104 209.724 150.512ZM199.004 154.272C200.268 154.384 201.612 154.448 203.196 154.448C204.668 154.448 206.396 154.336 207.468 154.256V152.944C206.332 153.056 204.716 153.168 203.196 153.168C201.612 153.168 200.156 153.104 199.004 152.96V154.272ZM198.364 159.232C198.204 159.872 198.028 160.608 198.028 161.44C198.028 163.424 199.9 164.496 203.116 164.496C205.372 164.496 207.388 164.256 208.524 163.936L208.508 162.576C207.308 162.944 205.276 163.184 203.084 163.184C200.556 163.184 199.34 162.352 199.34 161.152C199.34 160.56 199.468 159.984 199.66 159.36L198.364 159.232ZM214.7 159.136C214.444 160 214.268 160.864 214.268 161.552C214.268 163.552 215.884 164.72 218.844 164.72C220.94 164.72 222.012 164.528 223.004 164.352L223.02 163.04C221.884 163.28 220.956 163.472 218.86 163.472C216.492 163.472 215.548 162.64 215.548 161.232C215.548 160.768 215.74 159.84 215.996 159.248L214.7 159.136ZM223.004 151.216C223.42 151.792 223.932 152.704 224.252 153.36C223.308 153.632 222.396 153.856 221.452 154.016C221.1 153.184 220.796 152.48 220.428 151.408L218.988 151.696C219.26 152.112 219.404 152.416 219.66 153.024L220.188 154.192C218.38 154.384 216.22 154.4 213.916 154.096L213.964 155.376C216.38 155.584 218.652 155.584 220.7 155.328C221.18 156.448 221.964 158.08 222.428 159.072C221.9 159.008 220.78 158.896 220.188 158.832L220.044 159.872C221.084 159.968 222.652 160.192 223.34 160.336L224.076 159.568C223.356 158.224 222.508 156.384 221.948 155.136C222.94 154.976 223.964 154.752 224.924 154.48L224.7 153.264L225.164 153.056C224.844 152.4 224.268 151.424 223.868 150.848L223.004 151.216ZM224.78 150.576C225.244 151.184 225.756 152.096 226.108 152.8L226.972 152.416C226.668 151.808 226.06 150.816 225.628 150.224L224.78 150.576ZM231.116 152.864L229.58 152.832C229.66 153.216 229.676 153.872 229.676 154.24C229.676 155.168 229.692 157.088 229.852 158.464C230.284 162.576 231.724 164.064 233.212 164.064C234.3 164.064 235.276 163.152 236.22 160.464L235.212 159.312C234.796 160.912 234.06 162.544 233.244 162.544C232.124 162.544 231.356 160.8 231.1 158.144C230.988 156.848 230.972 155.392 230.988 154.4C231.004 153.984 231.052 153.248 231.116 152.864ZM239.372 153.296L238.124 153.728C239.628 155.584 240.588 158.72 240.86 161.568L242.156 161.056C241.932 158.384 240.796 155.136 239.372 153.296ZM251.516 162.144C251.516 163.232 250.748 163.504 249.836 163.504C248.268 163.504 247.644 162.96 247.644 162.224C247.644 161.504 248.46 160.928 249.964 160.928C250.492 160.928 251.004 160.976 251.5 161.072C251.5 161.504 251.516 161.872 251.516 162.144ZM257.292 162.688C256.396 161.968 254.78 160.8 252.684 160.224C252.652 159.472 252.604 158.64 252.572 157.824C254.076 157.76 255.484 157.648 256.972 157.456L256.956 156.256C255.532 156.464 254.076 156.608 252.556 156.672V156.496V154.4C254.044 154.32 255.404 154.192 256.652 154.064L256.636 152.896C255.244 153.104 253.948 153.232 252.572 153.28C252.572 152.896 252.572 152.592 252.588 152.4C252.604 151.936 252.62 151.632 252.668 151.344H251.308C251.34 151.568 251.356 152.032 251.356 152.288V153.328C251.084 153.328 250.812 153.328 250.54 153.328C249.484 153.328 247.788 153.2 246.828 153.024V154.208C247.772 154.32 249.452 154.448 250.556 154.448C250.828 154.448 251.084 154.448 251.34 154.448V156.496V156.72C251.068 156.72 250.78 156.72 250.492 156.72C249.452 156.72 247.58 156.608 246.508 156.416V157.632C247.644 157.76 249.404 157.856 250.492 157.856C250.796 157.856 251.084 157.856 251.372 157.856C251.388 158.512 251.42 159.264 251.452 159.968C251.02 159.904 250.588 159.872 250.124 159.872C247.836 159.872 246.444 160.848 246.444 162.288C246.444 163.824 247.708 164.64 249.98 164.64C252.044 164.64 252.78 163.504 252.78 162.416C252.78 162.176 252.764 161.824 252.748 161.424C254.332 162 255.644 162.96 256.572 163.808L257.292 162.688ZM263.356 151.568C263.452 152.032 263.5 152.592 263.5 153.168C263.5 154.848 263.34 158.848 263.34 161.2C263.34 163.776 264.908 164.736 267.18 164.736C270.668 164.736 272.716 162.752 273.788 161.248L272.908 160.144C271.772 161.792 270.124 163.424 267.212 163.424C265.74 163.424 264.62 162.816 264.62 161.072C264.62 158.704 264.748 154.96 264.812 153.168C264.844 152.656 264.892 152.096 264.972 151.584L263.356 151.568ZM284.092 157.472C285.068 157.36 286.028 157.296 287.02 157.296C287.948 157.296 288.892 157.392 289.692 157.488L289.724 156.272C288.876 156.176 287.9 156.144 286.988 156.144C285.964 156.144 284.924 156.192 284.092 156.272V157.472ZM285.116 153.312C284.156 153.568 283.116 153.76 282.092 153.888L282.332 152.72C282.396 152.4 282.508 151.808 282.62 151.456L281.068 151.328C281.1 151.664 281.068 152.192 281.02 152.64C280.972 152.96 280.892 153.456 280.78 154.032C280.172 154.064 279.612 154.096 279.084 154.096C278.508 154.096 277.932 154.08 277.18 153.984L277.228 155.232C277.788 155.264 278.364 155.296 279.068 155.296C279.516 155.296 279.996 155.28 280.508 155.248C280.38 155.824 280.252 156.4 280.108 156.928C279.516 159.168 278.396 162.384 277.452 164.016L278.86 164.48C279.692 162.752 280.764 159.488 281.34 157.216C281.516 156.544 281.692 155.808 281.836 155.12C282.94 154.992 284.076 154.816 285.116 154.576V153.312ZM283.292 160.016C283.148 160.688 283.052 161.28 283.052 161.888C283.052 163.456 284.364 164.224 286.86 164.224C288.012 164.224 289.068 164.128 289.916 164.016L289.964 162.72C289.004 162.896 287.9 163.024 286.876 163.024C284.62 163.024 284.268 162.304 284.268 161.552C284.268 161.152 284.348 160.656 284.492 160.128L283.292 160.016ZM294.604 160.096C293.276 160.096 292.172 161.184 292.172 162.528C292.172 163.872 293.276 164.976 294.604 164.976C295.964 164.976 297.052 163.872 297.052 162.528C297.052 161.184 295.964 160.096 294.604 160.096ZM294.604 164.16C293.724 164.16 292.988 163.44 292.988 162.528C292.988 161.648 293.724 160.912 294.604 160.912C295.516 160.912 296.22 161.648 296.22 162.528C296.22 163.44 295.516 164.16 294.604 164.16ZM97.2453 175.168L96.3813 175.52C96.8293 176.128 97.3733 177.104 97.6933 177.76L98.5573 177.36C98.2213 176.72 97.6453 175.728 97.2453 175.168ZM99.0053 174.512L98.1573 174.88C98.6213 175.488 99.1493 176.4 99.4853 177.088L100.365 176.704C100.045 176.112 99.4373 175.104 99.0053 174.512ZM88.2853 178.272C89.5493 178.384 90.8933 178.448 92.4773 178.448C93.9493 178.448 95.6773 178.336 96.7493 178.256V176.944C95.6133 177.056 93.9973 177.168 92.4773 177.168C90.8933 177.168 89.4373 177.104 88.2853 176.96V178.272ZM87.6453 183.232C87.4853 183.872 87.3093 184.608 87.3093 185.44C87.3093 187.424 89.1813 188.496 92.3973 188.496C94.6533 188.496 96.6693 188.256 97.8053 187.936L97.7893 186.576C96.5893 186.944 94.5573 187.184 92.3653 187.184C89.8373 187.184 88.6213 186.352 88.6213 185.152C88.6213 184.56 88.7493 183.984 88.9413 183.36L87.6453 183.232ZM115.853 182.8V181.664H109.389V177.68H115.181V176.544H109.389V174.624H108.157V176.544H102.493V177.68H108.157V181.664H101.741V182.8H107.357C105.901 184.752 103.549 186.624 101.405 187.552C101.661 187.792 102.045 188.24 102.237 188.528C104.333 187.488 106.605 185.568 108.157 183.456V189.216H109.389V183.424C110.941 185.536 113.229 187.536 115.357 188.592C115.549 188.272 115.933 187.824 116.189 187.584C114.029 186.656 111.661 184.752 110.205 182.8H115.853ZM103.789 178.448C104.413 179.376 105.021 180.672 105.229 181.472L106.349 181.04C106.125 180.208 105.469 178.976 104.829 178.048L103.789 178.448ZM112.237 181.504C112.813 180.72 113.517 179.456 114.077 178.368L112.861 177.984C112.477 178.944 111.789 180.304 111.245 181.168L112.237 181.504ZM129.469 187.536H122.557V184.464H129.469V187.536ZM126.381 178.144H125.181V183.408H121.389V189.232H122.557V188.608H129.469V189.2H130.669V183.408H126.381V181.12H131.741V180.048H126.381V178.144ZM125.853 176.672V174.624H124.637V176.672H118.765V180.8C118.765 183.072 118.637 186.272 117.341 188.56C117.629 188.688 118.141 189.024 118.349 189.232C119.709 186.816 119.933 183.232 119.933 180.8V177.808H131.965V176.672H125.853ZM137.485 187.088C136.861 187.088 135.773 186.464 135.773 185.744C135.773 185.024 136.717 184.128 137.997 183.52C138.013 184.672 138.045 185.744 138.045 186.32C138.045 186.816 137.853 187.088 137.485 187.088ZM139.149 181.376C139.149 180.736 139.165 179.984 139.181 179.232C140.333 179.104 141.549 178.896 142.477 178.688L142.461 177.424C141.565 177.696 140.365 177.92 139.213 178.064C139.229 177.36 139.245 176.736 139.261 176.352C139.277 175.984 139.309 175.552 139.341 175.264H137.949C138.013 175.536 138.045 176.064 138.045 176.384C138.045 176.672 138.029 177.36 138.013 178.192C137.581 178.224 137.165 178.24 136.797 178.24C136.221 178.24 135.645 178.224 134.781 178.112L134.813 179.328C135.421 179.392 136.109 179.408 136.829 179.408C137.165 179.408 137.565 179.392 137.997 179.36C137.981 180.064 137.981 180.8 137.981 181.44V182.336C136.157 183.12 134.509 184.496 134.509 185.792C134.509 187.216 136.573 188.416 137.821 188.416C138.669 188.416 139.229 187.952 139.229 186.48C139.229 185.792 139.197 184.4 139.165 183.056C140.301 182.656 141.421 182.432 142.605 182.432C144.109 182.432 145.325 183.152 145.325 184.496C145.325 185.968 144.061 186.72 142.669 186.976C142.061 187.104 141.405 187.088 140.813 187.088L141.261 188.352C141.805 188.336 142.509 188.304 143.213 188.144C145.389 187.616 146.589 186.4 146.589 184.48C146.589 182.592 144.925 181.328 142.621 181.328C141.581 181.328 140.349 181.52 139.149 181.904V181.376ZM143.709 177.984C144.717 178.528 146.477 179.6 147.261 180.352L147.901 179.328C147.133 178.688 145.405 177.6 144.285 177.008L143.709 177.984ZM152.893 174.656C152.205 175.776 150.781 177.12 149.533 177.936C149.725 178.176 150.013 178.624 150.141 178.896C151.549 177.952 153.085 176.448 154.013 175.088L152.893 174.656ZM153.165 178.16C152.253 179.808 150.717 181.44 149.293 182.48C149.501 182.768 149.821 183.376 149.933 183.648C150.557 183.152 151.181 182.544 151.773 181.888V189.216H152.925V180.528C153.405 179.904 153.853 179.248 154.205 178.576L153.165 178.16ZM155.453 184.736C156.189 185.568 156.989 186.768 157.325 187.536L158.333 186.944C157.981 186.176 157.149 185.024 156.413 184.192L155.453 184.736ZM164.125 180.896V179.792H159.645V177.76H163.293V176.672H159.645V174.688H158.477V176.672H154.973V177.76H158.477V179.792H154.045V180.896H160.701V182.656H154.221V183.744H160.701V187.776C160.701 188 160.637 188.064 160.365 188.08C160.125 188.096 159.245 188.096 158.285 188.064C158.445 188.4 158.621 188.864 158.669 189.2C159.901 189.2 160.733 189.2 161.229 189.008C161.725 188.816 161.869 188.496 161.869 187.776V183.744H164.013V182.656H161.869V180.896H164.125ZM177.277 176.992C175.341 177.424 173.005 177.68 171.101 177.76C171.181 177.408 171.229 177.088 171.277 176.848C171.357 176.432 171.453 175.936 171.565 175.52L170.141 175.44C170.157 175.872 170.141 176.24 170.061 176.752C170.029 177.024 169.981 177.376 169.901 177.792H169.645C168.685 177.792 167.469 177.664 166.637 177.52L166.653 178.784C167.565 178.864 168.589 178.928 169.661 178.928H169.677C169.277 180.72 168.637 182.992 167.837 184.56L169.021 184.992C169.165 184.704 169.309 184.496 169.517 184.256C170.557 182.992 172.301 182.368 174.189 182.368C176.045 182.368 177.005 183.264 177.005 184.448C177.005 187.04 173.453 187.68 169.805 187.168L170.157 188.432C174.957 188.96 178.317 187.712 178.317 184.416C178.317 182.56 176.845 181.264 174.317 181.264C172.557 181.264 171.261 181.664 169.885 182.64C170.221 181.728 170.589 180.224 170.877 178.896C172.909 178.816 175.437 178.56 177.293 178.224L177.277 176.992ZM184.637 175.568C184.733 176.032 184.781 176.592 184.781 177.168C184.781 178.848 184.621 182.848 184.621 185.2C184.621 187.776 186.189 188.736 188.461 188.736C191.949 188.736 193.997 186.752 195.069 185.248L194.189 184.144C193.053 185.792 191.405 187.424 188.493 187.424C187.021 187.424 185.901 186.816 185.901 185.072C185.901 182.704 186.029 178.96 186.093 177.168C186.125 176.656 186.173 176.096 186.253 175.584L184.637 175.568ZM197.721 177.376L197.865 178.784C199.577 178.432 203.897 178.016 205.289 177.856C203.833 178.72 202.345 180.72 202.345 183.2C202.345 186.736 205.689 188.304 208.617 188.416L209.081 187.088C206.505 186.992 203.625 186.016 203.625 182.912C203.625 181.04 204.985 178.64 207.241 177.92C208.057 177.68 209.449 177.664 210.345 177.664V176.384C209.289 176.432 207.801 176.512 206.073 176.656C203.161 176.896 200.169 177.2 199.129 177.296C198.825 177.328 198.329 177.36 197.721 177.376ZM216.516 187.088C215.893 187.088 214.805 186.464 214.805 185.744C214.805 185.024 215.749 184.128 217.029 183.52C217.045 184.672 217.077 185.744 217.077 186.32C217.077 186.816 216.885 187.088 216.516 187.088ZM218.181 181.376C218.181 180.736 218.197 179.984 218.213 179.232C219.365 179.104 220.581 178.896 221.509 178.688L221.493 177.424C220.597 177.696 219.397 177.92 218.245 178.064C218.261 177.36 218.277 176.736 218.293 176.352C218.309 175.984 218.341 175.552 218.373 175.264H216.981C217.045 175.536 217.077 176.064 217.077 176.384C217.077 176.672 217.061 177.36 217.045 178.192C216.613 178.224 216.197 178.24 215.829 178.24C215.253 178.24 214.677 178.224 213.812 178.112L213.845 179.328C214.453 179.392 215.141 179.408 215.861 179.408C216.197 179.408 216.597 179.392 217.029 179.36C217.013 180.064 217.013 180.8 217.013 181.44V182.336C215.189 183.12 213.541 184.496 213.541 185.792C213.541 187.216 215.605 188.416 216.853 188.416C217.701 188.416 218.261 187.952 218.261 186.48C218.261 185.792 218.229 184.4 218.197 183.056C219.333 182.656 220.453 182.432 221.637 182.432C223.141 182.432 224.357 183.152 224.357 184.496C224.357 185.968 223.093 186.72 221.701 186.976C221.093 187.104 220.437 187.088 219.845 187.088L220.293 188.352C220.837 188.336 221.541 188.304 222.245 188.144C224.421 187.616 225.621 186.4 225.621 184.48C225.621 182.592 223.957 181.328 221.653 181.328C220.613 181.328 219.381 181.52 218.181 181.904V181.376ZM222.741 177.984C223.749 178.528 225.509 179.6 226.293 180.352L226.933 179.328C226.165 178.688 224.437 177.6 223.317 177.008L222.741 177.984ZM231.861 175.376C231.845 175.76 231.797 176.24 231.733 176.736C231.541 178.016 231.253 180.352 231.253 181.856C231.253 182.88 231.333 183.776 231.413 184.368L232.661 184.272C232.549 183.488 232.549 182.944 232.629 182.336C232.821 180.256 234.645 177.392 236.613 177.392C238.293 177.392 239.125 179.184 239.125 181.68C239.125 185.664 236.437 187.04 232.997 187.568L233.749 188.72C237.685 188 240.453 186.064 240.453 181.664C240.453 178.336 238.933 176.224 236.821 176.224C234.821 176.224 233.157 178.192 232.533 179.824C232.629 178.72 232.933 176.592 233.269 175.424L231.861 175.376ZM251.829 186.144C251.829 187.232 251.061 187.504 250.149 187.504C248.581 187.504 247.957 186.96 247.957 186.224C247.957 185.504 248.773 184.928 250.277 184.928C250.805 184.928 251.317 184.976 251.812 185.072C251.812 185.504 251.829 185.872 251.829 186.144ZM257.605 186.688C256.709 185.968 255.093 184.8 252.997 184.224C252.965 183.472 252.917 182.64 252.885 181.824C254.389 181.76 255.797 181.648 257.285 181.456L257.269 180.256C255.845 180.464 254.389 180.608 252.869 180.672V180.496V178.4C254.357 178.32 255.717 178.192 256.965 178.064L256.949 176.896C255.557 177.104 254.261 177.232 252.885 177.28C252.885 176.896 252.885 176.592 252.901 176.4C252.917 175.936 252.933 175.632 252.981 175.344H251.621C251.653 175.568 251.669 176.032 251.669 176.288V177.328C251.397 177.328 251.125 177.328 250.853 177.328C249.797 177.328 248.101 177.2 247.141 177.024V178.208C248.085 178.32 249.765 178.448 250.869 178.448C251.141 178.448 251.397 178.448 251.653 178.448V180.496V180.72C251.381 180.72 251.093 180.72 250.805 180.72C249.765 180.72 247.893 180.608 246.821 180.416V181.632C247.957 181.76 249.717 181.856 250.805 181.856C251.109 181.856 251.397 181.856 251.685 181.856C251.701 182.512 251.733 183.264 251.765 183.968C251.333 183.904 250.901 183.872 250.437 183.872C248.149 183.872 246.757 184.848 246.757 186.288C246.757 187.824 248.021 188.64 250.293 188.64C252.357 188.64 253.093 187.504 253.093 186.416C253.093 186.176 253.077 185.824 253.061 185.424C254.645 186 255.957 186.96 256.885 187.808L257.605 186.688ZM267.493 184.256C266.613 184.256 265.877 183.68 265.877 182.688C265.877 181.664 266.661 181.024 267.477 181.024C268.101 181.024 268.628 181.312 268.885 182C269.029 183.504 268.421 184.256 267.493 184.256ZM269.941 178.528C272.261 178.528 273.701 178.56 274.597 178.608L274.613 177.408C273.845 177.408 271.893 177.392 269.973 177.392H269.733C269.733 176.976 269.749 176.608 269.749 176.368L269.829 175.376H268.373C268.405 175.568 268.453 176.032 268.469 176.368C268.485 176.592 268.501 176.96 268.501 177.408C266.149 177.44 263.173 177.536 261.413 177.568L261.445 178.816C263.429 178.672 266.117 178.56 268.517 178.544C268.533 179.088 268.533 179.648 268.533 180.112C268.213 180 267.861 179.936 267.477 179.936C265.973 179.936 264.677 181.136 264.677 182.704C264.677 184.416 265.957 185.36 267.301 185.36C267.829 185.36 268.277 185.232 268.661 184.96C268.005 186.368 266.533 187.232 264.453 187.712L265.557 188.784C269.237 187.68 270.277 185.296 270.277 183.152C270.277 182.368 270.101 181.664 269.765 181.12C269.749 180.4 269.733 179.424 269.733 178.528H269.941ZM277.323 184.096C275.995 184.096 274.891 185.184 274.891 186.528C274.891 187.872 275.995 188.976 277.323 188.976C278.683 188.976 279.771 187.872 279.771 186.528C279.771 185.184 278.683 184.096 277.323 184.096ZM277.323 188.16C276.443 188.16 275.707 187.44 275.707 186.528C275.707 185.648 276.443 184.912 277.323 184.912C278.235 184.912 278.939 185.648 278.939 186.528C278.939 187.44 278.235 188.16 277.323 188.16Z" fill="black"/>
</g>
<defs>
<clipPath id="clip0_23_2013">
<rect width="375" height="812" fill="white"/>
</clipPath>
</defs>
</svg>
