<svg width="376" height="812" viewBox="0 0 376 812" fill="none" xmlns="http://www.w3.org/2000/svg">
<g clip-path="url(#clip0_23_3367)">
<rect width="375" height="812" transform="translate(0.5)" fill="white"/>
<rect x="0.5" width="375" height="812" fill="#F4EFED"/>
<path d="M318.167 37H344.833C345.75 37 346.5 36.25 346.5 35.3333C346.5 34.4167 345.75 33.6667 344.833 33.6667H318.167C317.25 33.6667 316.5 34.4167 316.5 35.3333C316.5 36.25 317.25 37 318.167 37ZM318.167 28.6667H344.833C345.75 28.6667 346.5 27.9167 346.5 27C346.5 26.0833 345.75 25.3333 344.833 25.3333H318.167C317.25 25.3333 316.5 26.0833 316.5 27C316.5 27.9167 317.25 28.6667 318.167 28.6667ZM316.5 18.6667C316.5 19.5833 317.25 20.3333 318.167 20.3333H344.833C345.75 20.3333 346.5 19.5833 346.5 18.6667C346.5 17.75 345.75 17 344.833 17H318.167C317.25 17 316.5 17.75 316.5 18.6667Z" fill="#552600"/>
<rect x="24.5" y="85" width="327" height="30" fill="#AC2524"/>
<path d="M140.16 98.54V95.36C141.36 95.18 142.54 94.96 143.52 94.7C143.86 94.62 144.38 94.48 145.06 94.32L143.42 92.12C142.42 92.58 140.38 93.04 138.38 93.32C136.18 93.64 133.08 93.68 131.56 93.64L132.18 95.96C133.52 95.92 135.62 95.86 137.54 95.7V98.54H131.9C131.28 98.54 130.6 98.48 130.06 98.42V101C130.58 100.96 131.32 100.92 131.94 100.92H137.44C137.06 103.88 135.46 106.02 132.42 107.42L134.96 109.14C138.34 107.12 139.78 104.28 140.08 100.92H145.26C145.8 100.92 146.48 100.96 147.02 101V98.42C146.58 98.46 145.62 98.54 145.2 98.54H140.16ZM159.76 106.04V99.6H163.18C163.62 99.6 164.24 99.64 164.74 99.68V97.16C164.26 97.22 163.66 97.26 163.18 97.26H154.02C153.58 97.26 152.88 97.24 152.44 97.16V99.68C152.88 99.64 153.6 99.6 154.02 99.6H157.14V106.04H153.06C152.56 106.04 151.94 105.98 151.42 105.92V108.54C151.96 108.46 152.58 108.44 153.06 108.44H164.1C164.46 108.44 165.2 108.46 165.62 108.54V105.92C165.22 105.96 164.66 106.04 164.1 106.04H159.76ZM178.6 96.1L176.22 96.88C176.72 97.92 177.6 100.34 177.84 101.32L180.24 100.48C179.96 99.56 178.98 96.96 178.6 96.1ZM183.16 96.66C182.94 99.16 181.98 101.82 180.62 103.52C178.96 105.6 176.18 107.12 173.98 107.7L176.08 109.84C178.42 108.96 180.92 107.28 182.78 104.88C184.14 103.12 184.98 101.04 185.5 99.02C185.62 98.62 185.74 98.2 185.98 97.56L183.16 96.66ZM173.96 97.16L171.56 98.02C172.04 98.9 173.04 101.56 173.38 102.64L175.82 101.72C175.42 100.6 174.46 98.18 173.96 97.16ZM204.44 94.3C203.98 94.44 203.32 94.54 202.7 94.54H198.68L198.74 94.44C198.98 94 199.48 93.1 199.96 92.4L197.04 91.44C196.86 92.12 196.44 93.04 196.14 93.54C195.14 95.26 193.4 97.84 189.9 99.98L192.14 101.64C194.1 100.3 195.84 98.54 197.18 96.8H202.8C202.48 98.3 201.32 100.7 199.96 102.26C198.22 104.24 196 105.98 191.9 107.2L194.26 109.32C198.02 107.82 200.44 106 202.34 103.68C204.14 101.44 205.28 98.78 205.82 97C205.98 96.5 206.26 95.94 206.48 95.56L204.44 94.3ZM220.9 98.08C222.88 96.8 224.68 95.3 226.2 93.78L224.06 91.84C222.94 93.32 220.86 95.1 218.84 96.36C216.6 97.74 213.24 99.22 209.74 99.98L211.18 102.42C213.5 101.78 216 100.74 218.06 99.7V106.26C218.06 107.14 218 108.4 217.92 108.88H221.08C220.94 108.38 220.9 107.14 220.9 106.26V98.08ZM233.32 92.8L231.44 94.8C232.9 95.82 235.4 98 236.44 99.12L238.48 97.02C237.32 95.82 234.72 93.74 233.32 92.8ZM230.82 106.12L232.5 108.76C235.32 108.28 237.9 107.16 239.92 105.94C243.14 104 245.8 101.24 247.32 98.54L245.76 95.72C244.5 98.42 241.88 101.48 238.48 103.5C236.54 104.66 233.94 105.68 230.82 106.12Z" fill="white"/>
<rect x="0.5" y="777" width="375" height="35" fill="#552600"/>
<path d="M30.788 802.224C32.324 802.224 33.588 801.616 34.564 800.48L33.316 799.008C32.676 799.696 31.876 800.176 30.868 800.176C28.996 800.176 27.78 798.624 27.78 796.048C27.78 793.504 29.124 791.968 30.916 791.968C31.812 791.968 32.5 792.384 33.092 792.96L34.34 791.456C33.572 790.656 32.372 789.936 30.868 789.936C27.876 789.936 25.364 792.224 25.364 796.128C25.364 800.08 27.796 802.224 30.788 802.224ZM36.4716 802H43.6396V800.016H38.8396V790.16H36.4716V802ZM49.625 802.224C52.521 802.224 54.201 800.608 54.201 796.672V790.16H51.929V796.88C51.929 799.344 51.033 800.176 49.625 800.176C48.233 800.176 47.385 799.344 47.385 796.88V790.16H45.017V796.672C45.017 800.608 46.745 802.224 49.625 802.224ZM57.0498 802H61.2738C63.8818 802 65.8658 800.896 65.8658 798.512C65.8658 796.912 64.9218 796.016 63.6418 795.712V795.632C64.6498 795.28 65.2578 794.16 65.2578 793.072C65.2578 790.864 63.4018 790.16 60.9698 790.16H57.0498V802ZM59.4178 794.976V791.968H60.8258C62.2498 791.968 62.9538 792.384 62.9538 793.424C62.9538 794.368 62.2978 794.976 60.7938 794.976H59.4178ZM59.4178 800.176V796.736H61.0658C62.6978 796.736 63.5618 797.216 63.5618 798.368C63.5618 799.6 62.6818 800.176 61.0658 800.176H59.4178ZM67.9404 802H70.3084V796.88H74.7884V802H77.1404V790.16H74.7884V794.816H70.3084V790.16H67.9404V802ZM84.7538 802.224C87.8898 802.224 90.0498 799.872 90.0498 796.032C90.0498 792.192 87.8898 789.936 84.7538 789.936C81.6178 789.936 79.4578 792.176 79.4578 796.032C79.4578 799.872 81.6178 802.224 84.7538 802.224ZM84.7538 800.176C82.9938 800.176 81.8738 798.56 81.8738 796.032C81.8738 793.488 82.9938 791.968 84.7538 791.968C86.5138 791.968 87.6337 793.488 87.6337 796.032C87.6337 798.56 86.5138 800.176 84.7538 800.176ZM96.9063 802.224C99.8023 802.224 101.482 800.608 101.482 796.672V790.16H99.2103V796.88C99.2103 799.344 98.3143 800.176 96.9063 800.176C95.5143 800.176 94.6663 799.344 94.6663 796.88V790.16H92.2983V796.672C92.2983 800.608 94.0263 802.224 96.9063 802.224ZM107.68 802.224C110.416 802.224 112.032 800.576 112.032 798.64C112.032 796.928 111.088 796.016 109.648 795.424L108.096 794.768C107.088 794.368 106.24 794.064 106.24 793.216C106.24 792.432 106.911 791.968 107.952 791.968C108.928 791.968 109.712 792.32 110.464 792.944L111.664 791.456C110.704 790.48 109.328 789.936 107.952 789.936C105.552 789.936 103.856 791.424 103.856 793.36C103.856 795.088 105.056 796.048 106.256 796.544L107.84 797.216C108.896 797.664 109.616 797.936 109.616 798.816C109.616 799.648 108.96 800.176 107.728 800.176C106.688 800.176 105.568 799.648 104.72 798.864L103.36 800.496C104.512 801.6 106.096 802.224 107.68 802.224ZM114.128 802H121.568V800.016H116.496V796.848H120.656V794.864H116.496V792.128H121.392V790.16H114.128V802Z" fill="white"/>
<rect x="69.75" y="223.25" width="236.5" height="45.5" rx="7.75" fill="white" stroke="#AC2524" stroke-width="0.5"/>
<path d="M156.786 253.208C158.867 253.208 160.547 251.96 160.547 249.864C160.547 248.264 159.443 247.208 158.051 246.888V246.824C159.299 246.36 160.147 245.416 160.147 243.992C160.147 242.104 158.707 241.048 156.739 241.048C155.379 241.048 154.339 241.64 153.459 242.456L154.243 243.384C154.899 242.728 155.731 242.248 156.674 242.216C157.891 242.248 158.659 242.968 158.659 244.104C158.659 245.368 157.827 246.344 155.411 246.344V247.464C158.115 247.464 159.059 248.408 159.059 249.816C159.059 251.16 158.067 251.992 156.674 251.992C155.347 251.992 154.451 251.368 153.763 250.648L153.027 251.608C153.795 252.44 154.947 253.208 156.786 253.208ZM168.59 249.016C168.206 248.504 166.59 246.456 165.95 245.72V244.168H168.11V243.032H165.95V239.608H164.798V243.032H162.318V244.168H164.638C164.11 246.488 163.022 249.112 161.95 250.536C162.126 250.808 162.43 251.256 162.574 251.592C163.406 250.456 164.206 248.584 164.798 246.696V254.216H165.95V247.096C166.638 248.072 167.486 249.336 167.854 250.008L168.59 249.016ZM170.43 243.8H174.222C173.87 245.8 173.278 247.656 172.302 249.24C171.294 247.64 170.718 245.8 170.334 244.04L170.43 243.8ZM176.59 243.8V242.68H170.91C171.23 241.784 171.518 240.824 171.758 239.848L170.542 239.592C169.982 242.2 168.974 244.584 167.502 246.088C167.774 246.344 168.174 246.872 168.334 247.144C168.798 246.632 169.23 246.04 169.614 245.4C170.014 247.048 170.622 248.744 171.566 250.264C170.542 251.512 169.198 252.552 167.39 253.304C167.63 253.544 167.966 253.992 168.11 254.264C169.87 253.512 171.214 252.488 172.27 251.272C173.23 252.504 174.462 253.56 176.062 254.296C176.238 253.944 176.622 253.432 176.878 253.192C175.246 252.52 173.998 251.496 173.038 250.296C174.286 248.44 175.022 246.232 175.518 243.8H176.59ZM187.95 249.096C189.23 247.768 190.478 245.768 191.214 244.44C191.326 244.232 191.502 243.96 191.614 243.8L190.67 243.064C190.478 243.176 190.174 243.272 189.822 243.352C189.15 243.496 186.35 244.072 183.63 244.6V242.104C183.63 241.64 183.662 241.096 183.742 240.632H182.222C182.302 241.096 182.334 241.624 182.334 242.104V244.84C180.638 245.16 179.118 245.432 178.398 245.528L178.654 246.872C179.294 246.728 180.718 246.424 182.334 246.104V250.936C182.334 252.52 182.878 253.288 185.854 253.288C187.854 253.288 189.454 253.16 190.878 252.968L190.942 251.592C189.342 251.896 187.806 252.056 185.95 252.056C184.03 252.056 183.63 251.704 183.63 250.6V245.848C186.462 245.272 189.406 244.68 189.678 244.616C189.198 245.576 188.03 247.336 186.83 248.424L187.95 249.096ZM201.166 243.784L199.998 244.184C200.334 244.904 201.07 246.936 201.246 247.656L202.43 247.24C202.222 246.536 201.438 244.424 201.166 243.784ZM205.582 244.248C205.342 246.296 204.51 248.328 203.374 249.72C202.062 251.368 200.03 252.584 198.174 253.112L199.23 254.2C201.022 253.512 202.974 252.264 204.446 250.392C205.598 248.952 206.286 247.24 206.718 245.48C206.782 245.272 206.846 245.016 206.958 244.68L205.582 244.248ZM197.454 244.584L196.27 245.048C196.59 245.608 197.454 247.816 197.694 248.648L198.91 248.2C198.606 247.368 197.774 245.272 197.454 244.584ZM222.99 247.528C221.294 246.68 218.27 245.528 216.158 244.888V242.28C216.158 241.8 216.222 241.112 216.27 240.616H214.702C214.798 241.112 214.83 241.832 214.83 242.28V251.592C214.83 252.184 214.798 252.968 214.734 253.48H216.27C216.206 252.952 216.174 252.104 216.174 251.592L216.158 246.312C217.934 246.872 220.702 247.944 222.446 248.888L222.99 247.528Z" fill="#AC2524"/>
<rect x="69.75" y="289.25" width="236.5" height="45.5" rx="7.75" fill="white" stroke="#AC2524" stroke-width="0.5"/>
<path d="M156.739 319.208C158.723 319.208 160.579 317.752 160.579 315.176C160.579 312.6 158.995 311.448 157.043 311.448C156.339 311.448 155.811 311.624 155.299 311.912L155.587 308.52H160.019V307.272H154.307L153.939 312.76L154.723 313.24C155.395 312.792 155.891 312.552 156.674 312.552C158.147 312.552 159.107 313.544 159.107 315.224C159.107 316.936 157.987 317.992 156.611 317.992C155.251 317.992 154.403 317.368 153.731 316.696L153.011 317.656C153.795 318.44 154.914 319.208 156.739 319.208ZM168.59 315.016C168.206 314.504 166.59 312.456 165.95 311.72V310.168H168.11V309.032H165.95V305.608H164.798V309.032H162.318V310.168H164.638C164.11 312.488 163.022 315.112 161.95 316.536C162.126 316.808 162.43 317.256 162.574 317.592C163.406 316.456 164.206 314.584 164.798 312.696V320.216H165.95V313.096C166.638 314.072 167.486 315.336 167.854 316.008L168.59 315.016ZM170.43 309.8H174.222C173.87 311.8 173.278 313.656 172.302 315.24C171.294 313.64 170.718 311.8 170.334 310.04L170.43 309.8ZM176.59 309.8V308.68H170.91C171.23 307.784 171.518 306.824 171.758 305.848L170.542 305.592C169.982 308.2 168.974 310.584 167.502 312.088C167.774 312.344 168.174 312.872 168.334 313.144C168.798 312.632 169.23 312.04 169.614 311.4C170.014 313.048 170.622 314.744 171.566 316.264C170.542 317.512 169.198 318.552 167.39 319.304C167.63 319.544 167.966 319.992 168.11 320.264C169.87 319.512 171.214 318.488 172.27 317.272C173.23 318.504 174.462 319.56 176.062 320.296C176.238 319.944 176.622 319.432 176.878 319.192C175.246 318.52 173.998 317.496 173.038 316.296C174.286 314.44 175.022 312.232 175.518 309.8H176.59ZM187.95 315.096C189.23 313.768 190.478 311.768 191.214 310.44C191.326 310.232 191.502 309.96 191.614 309.8L190.67 309.064C190.478 309.176 190.174 309.272 189.822 309.352C189.15 309.496 186.35 310.072 183.63 310.6V308.104C183.63 307.64 183.662 307.096 183.742 306.632H182.222C182.302 307.096 182.334 307.624 182.334 308.104V310.84C180.638 311.16 179.118 311.432 178.398 311.528L178.654 312.872C179.294 312.728 180.718 312.424 182.334 312.104V316.936C182.334 318.52 182.878 319.288 185.854 319.288C187.854 319.288 189.454 319.16 190.878 318.968L190.942 317.592C189.342 317.896 187.806 318.056 185.95 318.056C184.03 318.056 183.63 317.704 183.63 316.6V311.848C186.462 311.272 189.406 310.68 189.678 310.616C189.198 311.576 188.03 313.336 186.83 314.424L187.95 315.096ZM201.166 309.784L199.998 310.184C200.334 310.904 201.07 312.936 201.246 313.656L202.43 313.24C202.222 312.536 201.438 310.424 201.166 309.784ZM205.582 310.248C205.342 312.296 204.51 314.328 203.374 315.72C202.062 317.368 200.03 318.584 198.174 319.112L199.23 320.2C201.022 319.512 202.974 318.264 204.446 316.392C205.598 314.952 206.286 313.24 206.718 311.48C206.782 311.272 206.846 311.016 206.958 310.68L205.582 310.248ZM197.454 310.584L196.27 311.048C196.59 311.608 197.454 313.816 197.694 314.648L198.91 314.2C198.606 313.368 197.774 311.272 197.454 310.584ZM222.99 313.528C221.294 312.68 218.27 311.528 216.158 310.888V308.28C216.158 307.8 216.222 307.112 216.27 306.616H214.702C214.798 307.112 214.83 307.832 214.83 308.28V317.592C214.83 318.184 214.798 318.968 214.734 319.48H216.27C216.206 318.952 216.174 318.104 216.174 317.592L216.158 312.312C217.934 312.872 220.702 313.944 222.446 314.888L222.99 313.528Z" fill="#AC2524"/>
<rect x="69.75" y="355.25" width="236.5" height="45.5" rx="7.75" fill="white" stroke="#AC2524" stroke-width="0.5"/>
<path d="M149.033 385H155.465V383.784H153.113V373.272H151.993C151.353 373.64 150.601 373.912 149.561 374.104V375.032H151.641V383.784H149.033V385ZM160.948 385.208C163.172 385.208 164.596 383.176 164.596 379.096C164.596 375.032 163.172 373.048 160.948 373.048C158.708 373.048 157.284 375.016 157.284 379.096C157.284 383.176 158.708 385.208 160.948 385.208ZM160.948 384.04C159.604 384.04 158.708 382.552 158.708 379.096C158.708 375.672 159.604 374.232 160.948 374.232C162.276 374.232 163.172 375.672 163.172 379.096C163.172 382.552 162.276 384.04 160.948 384.04ZM172.527 381.016C172.143 380.504 170.527 378.456 169.887 377.72V376.168H172.047V375.032H169.887V371.608H168.735V375.032H166.255V376.168H168.575C168.047 378.488 166.959 381.112 165.887 382.536C166.063 382.808 166.367 383.256 166.511 383.592C167.343 382.456 168.143 380.584 168.735 378.696V386.216H169.887V379.096C170.575 380.072 171.423 381.336 171.791 382.008L172.527 381.016ZM174.367 375.8H178.159C177.807 377.8 177.215 379.656 176.239 381.24C175.231 379.64 174.655 377.8 174.271 376.04L174.367 375.8ZM180.527 375.8V374.68H174.847C175.167 373.784 175.455 372.824 175.695 371.848L174.479 371.592C173.919 374.2 172.911 376.584 171.439 378.088C171.711 378.344 172.111 378.872 172.271 379.144C172.735 378.632 173.167 378.04 173.551 377.4C173.951 379.048 174.559 380.744 175.503 382.264C174.479 383.512 173.135 384.552 171.327 385.304C171.567 385.544 171.903 385.992 172.047 386.264C173.807 385.512 175.151 384.488 176.207 383.272C177.167 384.504 178.399 385.56 179.999 386.296C180.175 385.944 180.559 385.432 180.815 385.192C179.183 384.52 177.935 383.496 176.975 382.296C178.223 380.44 178.959 378.232 179.455 375.8H180.527ZM191.887 381.096C193.167 379.768 194.415 377.768 195.151 376.44C195.263 376.232 195.439 375.96 195.551 375.8L194.607 375.064C194.415 375.176 194.111 375.272 193.759 375.352C193.087 375.496 190.287 376.072 187.567 376.6V374.104C187.567 373.64 187.599 373.096 187.679 372.632H186.159C186.239 373.096 186.271 373.624 186.271 374.104V376.84C184.575 377.16 183.055 377.432 182.335 377.528L182.591 378.872C183.231 378.728 184.655 378.424 186.271 378.104V382.936C186.271 384.52 186.815 385.288 189.791 385.288C191.791 385.288 193.391 385.16 194.815 384.968L194.879 383.592C193.279 383.896 191.743 384.056 189.887 384.056C187.967 384.056 187.567 383.704 187.567 382.6V377.848C190.399 377.272 193.343 376.68 193.615 376.616C193.135 377.576 191.967 379.336 190.767 380.424L191.887 381.096ZM205.103 375.784L203.935 376.184C204.271 376.904 205.007 378.936 205.183 379.656L206.367 379.24C206.159 378.536 205.375 376.424 205.103 375.784ZM209.519 376.248C209.279 378.296 208.447 380.328 207.311 381.72C205.999 383.368 203.967 384.584 202.111 385.112L203.167 386.2C204.959 385.512 206.911 384.264 208.383 382.392C209.535 380.952 210.223 379.24 210.655 377.48C210.719 377.272 210.783 377.016 210.895 376.68L209.519 376.248ZM201.391 376.584L200.207 377.048C200.527 377.608 201.391 379.816 201.631 380.648L202.847 380.2C202.543 379.368 201.711 377.272 201.391 376.584ZM226.927 379.528C225.231 378.68 222.207 377.528 220.095 376.888V374.28C220.095 373.8 220.159 373.112 220.207 372.616H218.639C218.735 373.112 218.767 373.832 218.767 374.28V383.592C218.767 384.184 218.735 384.968 218.671 385.48H220.207C220.143 384.952 220.111 384.104 220.111 383.592L220.095 378.312C221.871 378.872 224.639 379.944 226.383 380.888L226.927 379.528Z" fill="#AC2524"/>
<path d="M77.888 159.664H74.016V156.016H77.888V159.664ZM72.88 154.944V160.72H79.056V154.944H72.88ZM70.576 163.232V152.464H81.376V163.232H70.576ZM69.376 151.28V165.216H70.576V164.352H81.376V165.216H82.64V151.28H69.376ZM91.008 150.928C90.752 151.552 90.208 152.48 89.824 153.04L90.624 153.424C91.04 152.896 91.584 152.096 92.048 151.36L91.008 150.928ZM87.312 153.04C87.152 152.48 86.72 151.632 86.272 150.992L85.376 151.36C85.808 152.016 86.224 152.896 86.368 153.456L87.312 153.04ZM94.32 154.656H97.104C96.816 156.64 96.384 158.336 95.696 159.76C95.056 158.272 94.608 156.544 94.304 154.704L94.32 154.656ZM89.952 160.08C89.744 160.944 89.424 161.648 88.944 162.224C88.32 161.92 87.68 161.632 87.04 161.376C87.248 160.96 87.488 160.528 87.712 160.08H89.952ZM99.296 154.656V153.536H94.656C94.88 152.656 95.088 151.728 95.248 150.784L94.032 150.608C93.6 153.424 92.768 156.096 91.424 157.776C91.696 157.968 92.208 158.368 92.384 158.592C92.816 158.016 93.216 157.344 93.552 156.592C93.92 158.224 94.384 159.712 94.992 161.008C94.208 162.208 93.152 163.168 91.792 163.92C91.296 163.552 90.656 163.136 89.952 162.752C90.496 162.032 90.864 161.152 91.088 160.08H92.48V159.088H88.208C88.4 158.704 88.576 158.32 88.752 157.968L88.48 157.904H89.168V155.52C89.936 156.096 90.944 156.864 91.36 157.248L92.016 156.4C91.584 156.08 89.856 154.992 89.168 154.592V154.512H92.416V153.536H89.168V150.608H88.064V153.536H84.784V154.512H87.744C86.96 155.552 85.744 156.544 84.608 157.056C84.832 157.264 85.12 157.68 85.264 157.952C86.24 157.424 87.264 156.544 88.064 155.6V157.808L87.648 157.712C87.456 158.144 87.232 158.608 86.992 159.088H84.688V160.08H86.496C86.064 160.912 85.632 161.728 85.28 162.336L86.304 162.704L86.56 162.256C87.088 162.48 87.616 162.736 88.128 162.992C87.312 163.584 86.192 163.984 84.72 164.24C84.944 164.464 85.184 164.896 85.264 165.216C86.976 164.848 88.24 164.32 89.168 163.552C89.904 163.984 90.544 164.416 91.04 164.816L91.408 164.432C91.616 164.704 91.824 165.056 91.92 165.264C93.488 164.464 94.688 163.44 95.632 162.192C96.416 163.472 97.392 164.496 98.624 165.216C98.784 164.896 99.168 164.432 99.44 164.208C98.16 163.536 97.152 162.448 96.352 161.072C97.328 159.36 97.936 157.248 98.336 154.656H99.296ZM104.016 159.296C104.592 158.768 105.104 158.192 105.568 157.568H110.528C110.976 158.192 111.472 158.784 112.032 159.296H104.016ZM108.928 154.656C109.184 155.28 109.472 155.888 109.808 156.464H106.288C106.64 155.888 106.944 155.28 107.216 154.656H108.928ZM115.072 157.568V156.464H111.104C110.72 155.888 110.384 155.28 110.096 154.656H114.144V153.6H111.312C111.808 152.96 112.384 152.096 112.864 151.264L111.696 150.864C111.36 151.632 110.704 152.704 110.192 153.376L110.768 153.6H107.632C107.968 152.704 108.224 151.776 108.448 150.816L107.216 150.592C107.008 151.632 106.736 152.64 106.368 153.6H104.736L105.408 153.312C105.152 152.656 104.528 151.648 103.936 150.928L102.928 151.296C103.472 151.984 104.016 152.928 104.288 153.6H101.936V154.656H105.92C105.632 155.28 105.28 155.888 104.896 156.464H100.912V157.568H104.048C103.136 158.624 102 159.52 100.592 160.208C100.848 160.432 101.184 160.88 101.344 161.136C102.208 160.704 102.976 160.176 103.664 159.6V160.368H106.4C106 162.224 105.04 163.568 102.048 164.256C102.272 164.48 102.608 164.976 102.736 165.248C106.064 164.352 107.184 162.72 107.632 160.368H110.912C110.736 162.736 110.56 163.696 110.272 163.984C110.112 164.128 109.968 164.144 109.68 164.144C109.376 164.144 108.544 164.144 107.696 164.064C107.904 164.352 108.032 164.832 108.064 165.168C108.928 165.216 109.776 165.216 110.192 165.184C110.688 165.152 110.976 165.04 111.264 164.736C111.696 164.272 111.936 163.008 112.144 159.808C112.16 159.712 112.176 159.552 112.176 159.44C112.912 160.112 113.728 160.672 114.608 161.088C114.752 160.784 115.12 160.336 115.392 160.112C114.096 159.552 112.928 158.672 111.952 157.568H115.072ZM120.336 161.76C119.648 161.76 118.72 160.88 118.72 158.88C118.72 156.752 120.576 154.144 123.616 153.76C123.44 155.216 123.136 156.72 122.736 158.032C121.92 160.704 121.04 161.76 120.336 161.76ZM124.512 164.416C128.288 163.92 130.48 161.696 130.48 158.368C130.48 155.168 128.112 152.544 124.4 152.544C120.528 152.544 117.456 155.552 117.456 158.992C117.456 161.6 118.88 163.232 120.288 163.232C121.76 163.232 123.024 161.552 124 158.304C124.432 156.816 124.736 155.216 124.944 153.744C127.632 153.968 129.152 155.936 129.152 158.336C129.152 161.072 127.168 162.576 125.136 163.024C124.752 163.104 124.272 163.184 123.776 163.216L124.512 164.416ZM146.256 151.776C145.76 151.312 144.752 150.768 143.904 150.448L143.264 151.136C144.096 151.488 145.088 152.064 145.568 152.544L146.256 151.776ZM137.344 155.68C137.168 156.896 136.912 158.016 136.592 159.008C136.032 158.496 135.232 157.936 134.496 157.488C134.752 156.912 134.976 156.32 135.184 155.68H137.344ZM137.856 154.56L137.648 154.608H135.504C135.68 153.904 135.856 153.184 135.984 152.432H139.008V151.344H132.832V152.432H134.832C134.368 154.944 133.6 157.28 132.416 158.784C132.672 158.96 133.152 159.36 133.328 159.568C133.584 159.216 133.824 158.832 134.048 158.416C134.816 158.944 135.648 159.6 136.192 160.16C135.408 162.064 134.336 163.472 133.04 164.416C133.312 164.576 133.696 164.992 133.888 165.248C136.24 163.456 137.936 160 138.544 154.784L137.856 154.56ZM145.744 158.784C145.232 159.616 144.512 160.416 143.648 161.152C143.44 160.48 143.232 159.728 143.072 158.896L147.184 158.464L147.072 157.488L142.896 157.92C142.816 157.424 142.736 156.928 142.672 156.4L146.496 156.016L146.384 155.072L142.576 155.44C142.528 154.976 142.48 154.48 142.448 153.984L146.704 153.616L146.64 152.64L142.4 153.008C142.368 152.208 142.352 151.392 142.352 150.544H141.184C141.2 151.408 141.216 152.272 141.264 153.12L138.816 153.328L138.896 154.304L141.328 154.096C141.36 154.592 141.392 155.072 141.44 155.552L139.2 155.776L139.296 156.736L141.552 156.512C141.6 157.04 141.68 157.536 141.76 158.032L138.8 158.336L138.896 159.328L141.936 159.008C142.144 160.08 142.4 161.04 142.704 161.888C141.312 162.864 139.68 163.648 138.048 164.08C138.304 164.336 138.592 164.768 138.72 165.072C140.24 164.608 141.76 163.824 143.12 162.88C143.792 164.304 144.672 165.152 145.776 165.152C146.864 165.152 147.232 164.56 147.44 162.56C147.184 162.448 146.8 162.192 146.592 161.936C146.496 163.52 146.32 164.032 145.872 164.032C145.184 164.032 144.576 163.36 144.048 162.176C145.088 161.328 145.968 160.368 146.608 159.392L145.744 158.784ZM155.008 150.928C154.752 151.552 154.208 152.48 153.824 153.04L154.624 153.424C155.04 152.896 155.584 152.096 156.048 151.36L155.008 150.928ZM151.312 153.04C151.152 152.48 150.72 151.632 150.272 150.992L149.376 151.36C149.808 152.016 150.224 152.896 150.368 153.456L151.312 153.04ZM158.32 154.656H161.104C160.816 156.64 160.384 158.336 159.696 159.76C159.056 158.272 158.608 156.544 158.304 154.704L158.32 154.656ZM153.952 160.08C153.744 160.944 153.424 161.648 152.944 162.224C152.32 161.92 151.68 161.632 151.04 161.376C151.248 160.96 151.488 160.528 151.712 160.08H153.952ZM163.296 154.656V153.536H158.656C158.88 152.656 159.088 151.728 159.248 150.784L158.032 150.608C157.6 153.424 156.768 156.096 155.424 157.776C155.696 157.968 156.208 158.368 156.384 158.592C156.816 158.016 157.216 157.344 157.552 156.592C157.92 158.224 158.384 159.712 158.992 161.008C158.208 162.208 157.152 163.168 155.792 163.92C155.296 163.552 154.656 163.136 153.952 162.752C154.496 162.032 154.864 161.152 155.088 160.08H156.48V159.088H152.208C152.4 158.704 152.576 158.32 152.752 157.968L152.48 157.904H153.168V155.52C153.936 156.096 154.944 156.864 155.36 157.248L156.016 156.4C155.584 156.08 153.856 154.992 153.168 154.592V154.512H156.416V153.536H153.168V150.608H152.064V153.536H148.784V154.512H151.744C150.96 155.552 149.744 156.544 148.608 157.056C148.832 157.264 149.12 157.68 149.264 157.952C150.24 157.424 151.264 156.544 152.064 155.6V157.808L151.648 157.712C151.456 158.144 151.232 158.608 150.992 159.088H148.688V160.08H150.496C150.064 160.912 149.632 161.728 149.28 162.336L150.304 162.704L150.56 162.256C151.088 162.48 151.616 162.736 152.128 162.992C151.312 163.584 150.192 163.984 148.72 164.24C148.944 164.464 149.184 164.896 149.264 165.216C150.976 164.848 152.24 164.32 153.168 163.552C153.904 163.984 154.544 164.416 155.04 164.816L155.408 164.432C155.616 164.704 155.824 165.056 155.92 165.264C157.488 164.464 158.688 163.44 159.632 162.192C160.416 163.472 161.392 164.496 162.624 165.216C162.784 164.896 163.168 164.432 163.44 164.208C162.16 163.536 161.152 162.448 160.352 161.072C161.328 159.36 161.936 157.248 162.336 154.656H163.296ZM179.584 152.64C179.28 152.048 178.656 151.04 178.24 150.464L177.392 150.816C177.84 151.424 178.368 152.336 178.72 153.024L179.584 152.64ZM177.792 153.296C177.456 152.656 176.864 151.664 176.464 151.104L175.616 151.456C176.048 152.064 176.592 153.04 176.912 153.68L177.792 153.296ZM169.312 151.472C169.328 152.544 169.136 153.776 168.912 154.912C167.952 154.992 167.04 155.072 166.512 155.088C166 155.104 165.6 155.104 165.104 155.088L165.232 156.48C165.632 156.4 166.272 156.336 166.656 156.288C167.072 156.24 167.824 156.16 168.656 156.08C168.112 158.192 166.944 161.76 165.328 163.92L166.624 164.448C168.288 161.792 169.376 158.224 169.952 155.952C170.64 155.888 171.264 155.84 171.648 155.84C172.672 155.84 173.328 156.096 173.328 157.536C173.328 159.248 173.088 161.312 172.576 162.368C172.24 163.056 171.776 163.184 171.2 163.184C170.752 163.184 169.92 163.056 169.248 162.832L169.456 164.192C169.968 164.304 170.72 164.416 171.328 164.416C172.352 164.416 173.136 164.16 173.648 163.104C174.304 161.776 174.56 159.28 174.56 157.392C174.56 155.248 173.408 154.688 171.984 154.688C171.6 154.688 170.944 154.736 170.208 154.8C170.384 153.952 170.528 153.024 170.624 152.56C170.672 152.24 170.752 151.92 170.816 151.616L169.312 151.472ZM175.088 153.968C176.192 155.264 177.44 158.032 177.92 159.664L179.152 159.056C178.624 157.584 177.248 154.704 176.256 153.424L175.088 153.968ZM194.848 155.616C194.096 155.04 192.288 154.016 191.136 153.504L190.512 154.496C191.568 154.976 193.28 155.952 194.128 156.672L194.848 155.616ZM189.088 153.216C188.288 153.472 187.456 153.664 186.624 153.792C186.88 152.88 187.088 151.92 187.248 151.344L185.824 151.216C185.792 152.064 185.568 153.072 185.328 153.952C184.72 154 184.128 154.032 183.568 154.032C182.88 154.032 182.208 154 181.616 153.92L181.712 155.12C182.304 155.152 182.96 155.168 183.552 155.168C184.016 155.168 184.48 155.152 184.944 155.12C184.224 156.976 182.88 159.504 181.552 161.04L182.8 161.68C184.064 159.968 185.472 157.216 186.256 154.976C187.296 154.848 188.288 154.64 189.12 154.4L189.088 153.216ZM189.92 162.064C189.92 162.848 189.488 163.568 188.192 163.568C186.96 163.568 186.368 163.072 186.368 162.336C186.368 161.616 187.136 161.088 188.304 161.088C188.864 161.088 189.408 161.168 189.904 161.312C189.92 161.6 189.92 161.856 189.92 162.064ZM189.696 156.24C189.728 157.344 189.808 158.896 189.856 160.192C189.392 160.096 188.88 160.048 188.352 160.048C186.56 160.048 185.184 160.992 185.184 162.448C185.184 164.016 186.608 164.736 188.352 164.736C190.304 164.736 191.136 163.696 191.136 162.432C191.136 162.256 191.136 162.032 191.12 161.792C192.144 162.288 192.992 162.992 193.664 163.6L194.352 162.512C193.536 161.808 192.432 161.024 191.072 160.528C191.04 159.568 190.976 158.528 190.96 157.952C190.944 157.36 190.928 156.896 190.976 156.24H189.696ZM206.048 151.184C205.872 151.472 205.456 151.92 205.136 152.24C204.064 153.328 201.664 155.216 200.48 156.224C199.04 157.424 198.88 158.144 200.368 159.392C201.856 160.608 204.496 162.864 205.36 163.792C205.696 164.16 206.128 164.56 206.448 164.944L207.6 163.904C206.048 162.368 203.12 159.936 201.68 158.784C200.656 157.936 200.656 157.696 201.616 156.864C202.784 155.904 205.056 154.08 206.16 153.136C206.416 152.912 206.896 152.496 207.248 152.24L206.048 151.184ZM226.848 155.616C226.096 155.04 224.288 154.016 223.136 153.504L222.512 154.496C223.568 154.976 225.28 155.952 226.128 156.672L226.848 155.616ZM221.088 153.216C220.288 153.472 219.456 153.664 218.624 153.792C218.88 152.88 219.088 151.92 219.248 151.344L217.824 151.216C217.792 152.064 217.568 153.072 217.328 153.952C216.72 154 216.128 154.032 215.568 154.032C214.88 154.032 214.208 154 213.616 153.92L213.712 155.12C214.304 155.152 214.96 155.168 215.552 155.168C216.016 155.168 216.48 155.152 216.944 155.12C216.224 156.976 214.88 159.504 213.552 161.04L214.8 161.68C216.064 159.968 217.472 157.216 218.256 154.976C219.296 154.848 220.288 154.64 221.12 154.4L221.088 153.216ZM221.92 162.064C221.92 162.848 221.488 163.568 220.192 163.568C218.96 163.568 218.368 163.072 218.368 162.336C218.368 161.616 219.136 161.088 220.304 161.088C220.864 161.088 221.408 161.168 221.904 161.312C221.92 161.6 221.92 161.856 221.92 162.064ZM221.696 156.24C221.728 157.344 221.808 158.896 221.856 160.192C221.392 160.096 220.88 160.048 220.352 160.048C218.56 160.048 217.184 160.992 217.184 162.448C217.184 164.016 218.608 164.736 220.352 164.736C222.304 164.736 223.136 163.696 223.136 162.432C223.136 162.256 223.136 162.032 223.12 161.792C224.144 162.288 224.992 162.992 225.664 163.6L226.352 162.512C225.536 161.808 224.432 161.024 223.072 160.528C223.04 159.568 222.976 158.528 222.96 157.952C222.944 157.36 222.928 156.896 222.976 156.24H221.696ZM232.048 151.376C232.032 151.76 231.984 152.24 231.92 152.736C231.728 154.016 231.44 156.352 231.44 157.856C231.44 158.88 231.52 159.776 231.6 160.368L232.848 160.272C232.736 159.488 232.736 158.944 232.816 158.336C233.008 156.256 234.832 153.392 236.8 153.392C238.48 153.392 239.312 155.184 239.312 157.68C239.312 161.664 236.624 163.04 233.184 163.568L233.936 164.72C237.872 164 240.64 162.064 240.64 157.664C240.64 154.336 239.12 152.224 237.008 152.224C235.008 152.224 233.344 154.192 232.72 155.824C232.816 154.72 233.12 152.592 233.456 151.424L232.048 151.376ZM252.016 162.144C252.016 163.232 251.248 163.504 250.336 163.504C248.768 163.504 248.144 162.96 248.144 162.224C248.144 161.504 248.96 160.928 250.464 160.928C250.992 160.928 251.504 160.976 252 161.072C252 161.504 252.016 161.872 252.016 162.144ZM257.792 162.688C256.896 161.968 255.28 160.8 253.184 160.224C253.152 159.472 253.104 158.64 253.072 157.824C254.576 157.76 255.984 157.648 257.472 157.456L257.456 156.256C256.032 156.464 254.576 156.608 253.056 156.672V156.496V154.4C254.544 154.32 255.904 154.192 257.152 154.064L257.136 152.896C255.744 153.104 254.448 153.232 253.072 153.28C253.072 152.896 253.072 152.592 253.088 152.4C253.104 151.936 253.12 151.632 253.168 151.344H251.808C251.84 151.568 251.856 152.032 251.856 152.288V153.328C251.584 153.328 251.312 153.328 251.04 153.328C249.984 153.328 248.288 153.2 247.328 153.024V154.208C248.272 154.32 249.952 154.448 251.056 154.448C251.328 154.448 251.584 154.448 251.84 154.448V156.496V156.72C251.568 156.72 251.28 156.72 250.992 156.72C249.952 156.72 248.08 156.608 247.008 156.416V157.632C248.144 157.76 249.904 157.856 250.992 157.856C251.296 157.856 251.584 157.856 251.872 157.856C251.888 158.512 251.92 159.264 251.952 159.968C251.52 159.904 251.088 159.872 250.624 159.872C248.336 159.872 246.944 160.848 246.944 162.288C246.944 163.824 248.208 164.64 250.48 164.64C252.544 164.64 253.28 163.504 253.28 162.416C253.28 162.176 253.264 161.824 253.248 161.424C254.832 162 256.144 162.96 257.072 163.808L257.792 162.688ZM263.856 151.568C263.952 152.032 264 152.592 264 153.168C264 154.848 263.84 158.848 263.84 161.2C263.84 163.776 265.408 164.736 267.68 164.736C271.168 164.736 273.216 162.752 274.288 161.248L273.408 160.144C272.272 161.792 270.624 163.424 267.712 163.424C266.24 163.424 265.12 162.816 265.12 161.072C265.12 158.704 265.248 154.96 265.312 153.168C265.344 152.656 265.392 152.096 265.472 151.584L263.856 151.568ZM284.592 157.472C285.568 157.36 286.528 157.296 287.52 157.296C288.448 157.296 289.392 157.392 290.192 157.488L290.224 156.272C289.376 156.176 288.4 156.144 287.488 156.144C286.464 156.144 285.424 156.192 284.592 156.272V157.472ZM285.616 153.312C284.656 153.568 283.616 153.76 282.592 153.888L282.832 152.72C282.896 152.4 283.008 151.808 283.12 151.456L281.568 151.328C281.6 151.664 281.568 152.192 281.52 152.64C281.472 152.96 281.392 153.456 281.28 154.032C280.672 154.064 280.112 154.096 279.584 154.096C279.008 154.096 278.432 154.08 277.68 153.984L277.728 155.232C278.288 155.264 278.864 155.296 279.568 155.296C280.016 155.296 280.496 155.28 281.008 155.248C280.88 155.824 280.752 156.4 280.608 156.928C280.016 159.168 278.896 162.384 277.952 164.016L279.36 164.48C280.192 162.752 281.264 159.488 281.84 157.216C282.016 156.544 282.192 155.808 282.336 155.12C283.44 154.992 284.576 154.816 285.616 154.576V153.312ZM283.792 160.016C283.648 160.688 283.552 161.28 283.552 161.888C283.552 163.456 284.864 164.224 287.36 164.224C288.512 164.224 289.568 164.128 290.416 164.016L290.464 162.72C289.504 162.896 288.4 163.024 287.376 163.024C285.12 163.024 284.768 162.304 284.768 161.552C284.768 161.152 284.848 160.656 284.992 160.128L283.792 160.016ZM295.104 160.096C293.776 160.096 292.672 161.184 292.672 162.528C292.672 163.872 293.776 164.976 295.104 164.976C296.464 164.976 297.552 163.872 297.552 162.528C297.552 161.184 296.464 160.096 295.104 160.096ZM295.104 164.16C294.224 164.16 293.488 163.44 293.488 162.528C293.488 161.648 294.224 160.912 295.104 160.912C296.016 160.912 296.72 161.648 296.72 162.528C296.72 163.44 296.016 164.16 295.104 164.16ZM113.261 175.168L112.397 175.52C112.845 176.128 113.389 177.104 113.709 177.76L114.573 177.36C114.237 176.72 113.661 175.728 113.261 175.168ZM115.021 174.512L114.173 174.88C114.637 175.488 115.165 176.4 115.501 177.088L116.381 176.704C116.061 176.112 115.453 175.104 115.021 174.512ZM104.301 178.272C105.565 178.384 106.909 178.448 108.493 178.448C109.965 178.448 111.693 178.336 112.765 178.256V176.944C111.629 177.056 110.013 177.168 108.493 177.168C106.909 177.168 105.453 177.104 104.301 176.96V178.272ZM103.661 183.232C103.501 183.872 103.325 184.608 103.325 185.44C103.325 187.424 105.197 188.496 108.413 188.496C110.669 188.496 112.685 188.256 113.821 187.936L113.805 186.576C112.605 186.944 110.573 187.184 108.381 187.184C105.853 187.184 104.637 186.352 104.637 185.152C104.637 184.56 104.765 183.984 104.957 183.36L103.661 183.232ZM121.597 178.24H119.213V176.208H121.597V178.24ZM121.597 181.216H119.213V179.168H121.597V181.216ZM121.597 184.24H119.213V182.16H121.597V184.24ZM122.669 175.216H118.173V185.216H122.669V175.216ZM118.957 185.552C118.653 186.704 118.093 187.84 117.357 188.592C117.613 188.752 118.061 189.056 118.253 189.232C118.973 188.384 119.661 187.104 120.029 185.792L118.957 185.552ZM120.957 185.936C121.453 186.704 122.013 187.776 122.237 188.448L123.181 188C122.925 187.328 122.381 186.304 121.853 185.536L120.957 185.936ZM128.013 185.68V184.48H130.061V185.68H128.013ZM125.005 184.48H126.957V185.68H125.005V184.48ZM126.957 182.512V183.648H125.005V182.512H126.957ZM130.061 182.512V183.648H128.013V182.512H130.061ZM126.317 178.736H128.685V179.792H126.317V178.736ZM126.317 176.896H128.685V177.856H126.317V176.896ZM132.109 185.68H131.149V181.616H128.013V180.688H132.045V179.792H129.757V178.736H131.453V177.856H129.757V176.896H131.709V176H129.757V174.624H128.685V176H126.317V174.624H125.261V176H123.325V176.896H125.261V177.856H123.741V178.736H125.261V179.792H122.957V180.688H126.957V181.616H123.933V185.68H122.893V186.592H123.933V189.232H125.005V186.592H130.061V187.984C130.061 188.192 129.981 188.24 129.789 188.256C129.565 188.256 128.797 188.256 127.965 188.24C128.109 188.512 128.253 188.928 128.301 189.2C129.453 189.2 130.173 189.2 130.621 189.04C131.021 188.864 131.149 188.56 131.149 187.984V186.592H132.109V185.68ZM136.477 175.584V176.768H140.413C140.445 177.376 140.509 178.08 140.621 178.816L139.917 178.704C138.941 183.184 136.973 186.4 133.437 188.24C133.757 188.448 134.285 188.944 134.509 189.184C137.693 187.312 139.709 184.4 140.893 180.256C141.613 183.28 143.309 186.784 147.245 189.168C147.453 188.88 147.933 188.368 148.205 188.176C141.933 184.448 141.565 178.416 141.565 175.584H136.477ZM158.269 185.84C158.253 185.072 158.237 183.728 158.221 182.816C159.421 182.256 160.557 181.792 161.453 181.44C161.869 181.28 162.445 181.056 162.845 180.944L162.333 179.744C161.885 179.968 161.501 180.16 161.021 180.368C160.189 180.752 159.229 181.136 158.141 181.648C157.901 180.704 157.069 180.208 156.045 180.208C155.341 180.208 154.429 180.432 153.853 180.8C154.429 180.064 154.925 179.184 155.277 178.368C157.005 178.304 158.957 178.16 160.525 177.92L160.541 176.736C159.037 176.992 157.309 177.136 155.693 177.216C155.917 176.496 156.061 175.84 156.173 175.392L154.861 175.28C154.829 175.824 154.685 176.544 154.461 177.248C154.093 177.264 153.757 177.264 153.421 177.264C152.701 177.264 151.597 177.2 150.749 177.104V178.304C151.613 178.368 152.685 178.4 153.357 178.4H154.013C153.421 179.648 152.381 181.28 150.365 183.232L151.453 184.048C151.997 183.408 152.445 182.816 152.893 182.384C153.629 181.728 154.589 181.216 155.629 181.216C156.317 181.216 156.893 181.536 157.053 182.192C155.213 183.152 153.325 184.336 153.325 186.208C153.325 188.144 155.149 188.624 157.421 188.624C158.797 188.624 160.557 188.512 161.757 188.368L161.789 187.072C160.397 187.312 158.701 187.456 157.469 187.456C155.837 187.456 154.605 187.28 154.605 186.032C154.605 184.992 155.629 184.176 157.101 183.376C157.101 184.208 157.085 185.232 157.037 185.84H158.269ZM169.501 187.088C168.877 187.088 167.789 186.464 167.789 185.744C167.789 185.024 168.733 184.128 170.013 183.52C170.029 184.672 170.061 185.744 170.061 186.32C170.061 186.816 169.869 187.088 169.501 187.088ZM171.165 181.376C171.165 180.736 171.181 179.984 171.197 179.232C172.349 179.104 173.565 178.896 174.493 178.688L174.477 177.424C173.581 177.696 172.381 177.92 171.229 178.064C171.245 177.36 171.261 176.736 171.277 176.352C171.293 175.984 171.325 175.552 171.357 175.264H169.965C170.029 175.536 170.061 176.064 170.061 176.384C170.061 176.672 170.045 177.36 170.029 178.192C169.597 178.224 169.181 178.24 168.813 178.24C168.237 178.24 167.661 178.224 166.797 178.112L166.829 179.328C167.437 179.392 168.125 179.408 168.845 179.408C169.181 179.408 169.581 179.392 170.013 179.36C169.997 180.064 169.997 180.8 169.997 181.44V182.336C168.173 183.12 166.525 184.496 166.525 185.792C166.525 187.216 168.589 188.416 169.837 188.416C170.685 188.416 171.245 187.952 171.245 186.48C171.245 185.792 171.213 184.4 171.181 183.056C172.317 182.656 173.437 182.432 174.621 182.432C176.125 182.432 177.341 183.152 177.341 184.496C177.341 185.968 176.077 186.72 174.685 186.976C174.077 187.104 173.421 187.088 172.829 187.088L173.277 188.352C173.821 188.336 174.525 188.304 175.229 188.144C177.405 187.616 178.605 186.4 178.605 184.48C178.605 182.592 176.941 181.328 174.637 181.328C173.597 181.328 172.365 181.52 171.165 181.904V181.376ZM175.725 177.984C176.733 178.528 178.493 179.6 179.277 180.352L179.917 179.328C179.149 178.688 177.421 177.6 176.301 177.008L175.725 177.984ZM194.525 180.4H190.797V178.864H194.525V180.4ZM194.525 182.832H190.797V181.264H194.525V182.832ZM194.525 185.296H190.797V183.712H194.525V185.296ZM189.773 177.936V186.224H195.581V177.936H192.797C192.925 177.456 193.053 176.912 193.181 176.384H196.013V175.36H189.245V176.384H191.997C191.933 176.88 191.837 177.456 191.741 177.936H189.773ZM184.317 184.528C184.109 185.616 183.757 186.72 183.261 187.504C183.517 187.616 183.933 187.84 184.109 187.984C184.589 187.152 185.021 185.92 185.261 184.704L184.317 184.528ZM185.101 181.28H187.853V182.864H185.101V181.28ZM185.101 178.88H187.853V180.432H185.101V178.88ZM188.845 183.76V178H186.653C186.781 177.52 186.925 176.96 187.069 176.416H188.909V175.36H182.285V181.216C182.285 183.408 182.205 186.304 181.309 188.352C181.517 188.448 181.981 188.768 182.157 188.96C183.165 186.8 183.325 183.536 183.325 181.216V176.416H185.917C185.853 176.912 185.741 177.504 185.645 178H184.141V183.76H185.965V188.096C185.965 188.24 185.917 188.272 185.773 188.272C185.597 188.288 185.133 188.288 184.557 188.272C184.701 188.544 184.845 188.944 184.893 189.2C185.677 189.2 186.189 189.184 186.541 189.04C186.861 188.864 186.957 188.592 186.957 188.112V183.76H188.845ZM189.341 187.04C189.181 186.4 188.749 185.312 188.365 184.496L187.549 184.768C187.917 185.6 188.333 186.704 188.477 187.392L189.341 187.04ZM191.101 186.576C190.525 187.232 189.373 188.032 188.365 188.48C188.605 188.688 188.957 189.024 189.133 189.232C190.125 188.768 191.341 187.936 192.093 187.152L191.101 186.576ZM193.197 187.152C193.997 187.76 194.973 188.656 195.453 189.232L196.349 188.608C195.853 188.032 194.845 187.168 194.077 186.592L193.197 187.152ZM200.413 176.864L198.877 176.832C198.957 177.216 198.973 177.872 198.973 178.24C198.973 179.168 198.989 181.088 199.149 182.464C199.581 186.576 201.021 188.064 202.509 188.064C203.597 188.064 204.573 187.152 205.517 184.464L204.509 183.312C204.093 184.912 203.357 186.544 202.541 186.544C201.421 186.544 200.653 184.8 200.397 182.144C200.285 180.848 200.269 179.392 200.285 178.4C200.301 177.984 200.349 177.248 200.413 176.864ZM208.669 177.296L207.421 177.728C208.925 179.584 209.885 182.72 210.157 185.568L211.453 185.056C211.229 182.384 210.093 179.136 208.669 177.296ZM216.653 175.568C216.749 176.032 216.797 176.592 216.797 177.168C216.797 178.848 216.637 182.848 216.637 185.2C216.637 187.776 218.205 188.736 220.477 188.736C223.965 188.736 226.013 186.752 227.085 185.248L226.205 184.144C225.069 185.792 223.421 187.424 220.509 187.424C219.037 187.424 217.917 186.816 217.917 185.072C217.917 182.704 218.045 178.96 218.109 177.168C218.141 176.656 218.189 176.096 218.269 175.584L216.653 175.568ZM236.813 186.144C236.813 187.232 236.045 187.504 235.133 187.504C233.565 187.504 232.941 186.96 232.941 186.224C232.941 185.504 233.757 184.928 235.261 184.928C235.789 184.928 236.301 184.976 236.797 185.072C236.797 185.504 236.813 185.872 236.813 186.144ZM242.589 186.688C241.693 185.968 240.077 184.8 237.981 184.224C237.949 183.472 237.901 182.64 237.869 181.824C239.373 181.76 240.781 181.648 242.269 181.456L242.253 180.256C240.829 180.464 239.373 180.608 237.853 180.672V180.496V178.4C239.341 178.32 240.701 178.192 241.949 178.064L241.933 176.896C240.541 177.104 239.245 177.232 237.869 177.28C237.869 176.896 237.869 176.592 237.885 176.4C237.901 175.936 237.917 175.632 237.965 175.344H236.605C236.637 175.568 236.653 176.032 236.653 176.288V177.328C236.381 177.328 236.109 177.328 235.837 177.328C234.781 177.328 233.085 177.2 232.125 177.024V178.208C233.069 178.32 234.749 178.448 235.853 178.448C236.125 178.448 236.381 178.448 236.637 178.448V180.496V180.72C236.365 180.72 236.077 180.72 235.789 180.72C234.749 180.72 232.877 180.608 231.805 180.416V181.632C232.941 181.76 234.701 181.856 235.789 181.856C236.093 181.856 236.381 181.856 236.669 181.856C236.685 182.512 236.717 183.264 236.749 183.968C236.317 183.904 235.885 183.872 235.421 183.872C233.133 183.872 231.741 184.848 231.741 186.288C231.741 187.824 233.005 188.64 235.277 188.64C237.341 188.64 238.077 187.504 238.077 186.416C238.077 186.176 238.061 185.824 238.045 185.424C239.629 186 240.941 186.96 241.869 187.808L242.589 186.688ZM252.477 184.256C251.597 184.256 250.861 183.68 250.861 182.688C250.861 181.664 251.645 181.024 252.461 181.024C253.085 181.024 253.613 181.312 253.869 182C254.013 183.504 253.405 184.256 252.477 184.256ZM254.925 178.528C257.245 178.528 258.685 178.56 259.581 178.608L259.597 177.408C258.829 177.408 256.877 177.392 254.957 177.392H254.717C254.717 176.976 254.733 176.608 254.733 176.368L254.813 175.376H253.357C253.389 175.568 253.437 176.032 253.453 176.368C253.469 176.592 253.485 176.96 253.485 177.408C251.133 177.44 248.157 177.536 246.397 177.568L246.429 178.816C248.413 178.672 251.101 178.56 253.501 178.544C253.517 179.088 253.517 179.648 253.517 180.112C253.197 180 252.845 179.936 252.461 179.936C250.957 179.936 249.661 181.136 249.661 182.704C249.661 184.416 250.941 185.36 252.285 185.36C252.813 185.36 253.261 185.232 253.645 184.96C252.989 186.368 251.517 187.232 249.437 187.712L250.541 188.784C254.221 187.68 255.261 185.296 255.261 183.152C255.261 182.368 255.085 181.664 254.749 181.12C254.733 180.4 254.717 179.424 254.717 178.528H254.925ZM262.307 184.096C260.979 184.096 259.875 185.184 259.875 186.528C259.875 187.872 260.979 188.976 262.307 188.976C263.667 188.976 264.755 187.872 264.755 186.528C264.755 185.184 263.667 184.096 262.307 184.096ZM262.307 188.16C261.427 188.16 260.691 187.44 260.691 186.528C260.691 185.648 261.427 184.912 262.307 184.912C263.219 184.912 263.923 185.648 263.923 186.528C263.923 187.44 263.219 188.16 262.307 188.16Z" fill="black"/>
</g>
<defs>
<clipPath id="clip0_23_3367">
<rect width="375" height="812" fill="white" transform="translate(0.5)"/>
</clipPath>
</defs>
</svg>
