<!--?xml version="1.0" encoding="utf-8"?-->
<!-- Generator: Adobe Illustrator 18.0.0, SVG Export Plug-In . SVG Version: 6.00 Build 0)  -->

<svg version="1.1" id="_x31_0" xmlns="http://www.w3.org/2000/svg" xmlns:xlink="http://www.w3.org/1999/xlink" x="0px" y="0px" viewBox="0 0 512 512" style="width: 512px; height: 512px; opacity: 1;" xml:space="preserve">
<style type="text/css">
	.st0{fill:#374149;}
</style>
<g>
	<path class="st0" d="M477.969,111.742H368.617l-7.534-39.566c-2.809-14.746-16.078-25.446-31.547-25.446H182.469
		c-15.473,0-28.738,10.699-31.547,25.446l-7.538,39.566H34.031C15.238,111.742,0,126.981,0,145.778v285.457
		c0,18.797,15.238,34.035,34.031,34.035h443.938c18.797,0,34.031-15.238,34.031-34.035V145.778
		C512,126.981,496.766,111.742,477.969,111.742z M256,386.031c-57.133,0-103.617-46.484-103.617-103.621
		S198.867,178.793,256,178.793c57.137,0,103.621,46.481,103.621,103.618S313.137,386.031,256,386.031z M408.383,215.363
		c-16.833,0-30.477-13.645-30.477-30.477s13.644-30.476,30.477-30.476c16.832,0,30.476,13.644,30.476,30.476
		S425.215,215.363,408.383,215.363z" style="fill: rgb(0, 0, 0);"></path>
	<circle class="st0" cx="256" cy="282.41" r="60.953" style="fill: rgb(0, 0, 0);"></circle>
</g>
</svg>
