<!--?xml version="1.0" encoding="utf-8"?-->
<!-- Generator: Adobe Illustrator 18.1.1, SVG Export Plug-In . SVG Version: 6.00 Build 0)  -->

<svg version="1.1" id="_x31_0" xmlns="http://www.w3.org/2000/svg" xmlns:xlink="http://www.w3.org/1999/xlink" x="0px" y="0px" viewBox="0 0 512 512" style="width: 512px; height: 512px; opacity: 1;" xml:space="preserve">
<style type="text/css">
	.st0{fill:#374149;}
</style>
<g>
	<polygon class="st0" points="83.767,458.145 83.767,0 40.978,0 40.978,456.586 40.978,457.984 40.978,457.984 40.978,458.145 
		83.568,458.145 83.568,485.07 83.568,499.844 83.439,511.906 83.568,511.73 83.568,512 94.174,497.246 97.439,492.785 111.248,512 
		111.248,485.07 111.248,458.145 97.408,458.145 	" style="fill: rgb(0, 0, 0);"></polygon>
	<path class="st0" d="M450.881,0H111.584v456.586v1.398l0,0v0.161h339.297c11.125,0,20.141-9.02,20.141-20.141V20.141
		C471.022,9.019,462.006,0,450.881,0z M205.85,158.848l0.058-0.114l0.086,0.183l13.874-28.87h12.723v58.538v0.02h-13.313V159.59
		l-8.848,17.566h-8.859l-4.71-9.285l-4.059-8.313v0.313l-0.16-0.313v29.047h-13.316v-58.558h12.722l8.531,17.664L205.85,158.848z
		 M259.834,142.18v10.648v0.035l0,0v0.16h22.188v12.133h-22.188v11.122v0.035l0,0v0.16h26.055v12.133h-39.371v-58.558h39.371v12.133
		H259.834z M332.142,161.68l0.004-0.246l0.156,0.246v-31.633h13.317v58.538v0.02h-11.602l-20.454-31.703v31.703h-13.32v-58.558
		h11.602l11.07,17.121L332.142,161.68z M381.42,189.078c-3.024,0-5.887-0.504-8.508-1.496c-2.629-0.997-4.957-2.414-6.93-4.219
		c-1.977-1.809-3.558-4.023-4.699-6.582c-1.141-2.563-1.722-5.458-1.722-8.614v-38.121h13.324v37.726
		c0,2.984,0.742,5.21,2.277,6.809c1.52,1.594,3.567,2.367,6.258,2.367s4.758-0.778,6.309-2.371c1.534-1.582,2.312-3.871,2.312-6.805
		v-37.726h13.238v38.121c0,3.156-0.578,6.05-1.722,8.614c-1.141,2.562-2.727,4.777-4.703,6.586
		c-1.965,1.801-4.297,3.218-6.926,4.215C387.302,188.574,384.443,189.078,381.42,189.078z M396.634,282.535v12H185.97v-12H396.634z" style="fill: rgb(0, 0, 0);"></path>
</g>
</svg>
