<!--?xml version="1.0" encoding="utf-8"?-->
<!-- Generator: Adobe Illustrator 19.1.1, SVG Export Plug-In . SVG Version: 6.00 Build 0)  -->
<svg version="1.1" id="_x31_0" xmlns="http://www.w3.org/2000/svg" xmlns:xlink="http://www.w3.org/1999/xlink" x="0px" y="0px" viewBox="0 0 512 512" style="width: 512px; height: 512px; opacity: 1;" xml:space="preserve">
<style type="text/css">
	.st0{fill:#374149;}
</style>
<g>
	<path class="st0" d="M225.687,315.694c-0.246-1.141-0.652-2.274-0.976-3.336c-0.406-1.215-0.894-2.355-1.301-3.41
		c-2.114-4.878-4.633-8.617-6.664-10.402c-2.52-2.355-14.059-8.21-23.973-13.246c-7.153-3.742-11.219-6.993-12.438-8.047v-9.672
		c0.57-0.16,1.058-0.566,1.625-1.058c0.082-0.16,0.246-0.32,0.41-0.484c1.297-1.465,2.355-3.254,2.922-4.879
		c0.082-0.16,0.164-0.406,0.164-0.566c0.406-1.058,0.649-1.95,0.977-2.766c0.824-2.195,1.226-4.274,1.438-5.422
		c0.05-0.176,0.11-0.43,0.16-0.582c0.469,0.074,0.938,0.156,1.406,0.156c5.203,0,7.074-11.297,7.316-14.144
		c0.242-2.844-1.949-4.062-2.843-4.794c0.242-0.488,0.488-1.14,0.73-1.953c0.406-1.621,0.652-3.086,0.894-4.469
		c0.488-3.332,0.57-6.094,0.16-8.691c-0.082-0.977-0.242-1.875-0.484-2.77c-0.489-1.786-1.223-3.652-2.114-5.684
		c-0.652-1.222-1.301-2.519-2.114-3.906c-0.406-0.809-0.894-1.622-1.546-2.438c-5.77-7.879-17.145-13.73-23.89-13.73h-0.082
		c-0.57,0.082-1.137,0.082-1.625,0.082c-8.942,0.566-13.817,4.957-17.555,11.782c-1.867,0-5.851,2.598-9.266,5.851
		c-0.812,0.813-1.625,1.707-2.355,2.516c-0.41,0.508-0.637,1.168-0.981,1.738c-0.148,0.25-0.297,0.507-0.437,0.777
		c-0.352,0.668-0.817,1.246-1.102,1.958c-0.73,1.87-1.137,3.98-1.219,6.011c-0.082,0.977,0,1.954,0.082,2.848
		c0.242,1.543,0.488,2.843,0.73,3.898c0.406,1.789,0.812,3.09,1.137,4.066c0,0.082,0.082,0.16,0.082,0.16
		c0.207,0.691,0.394,1.207,0.555,1.664l0.07,0.309c-0.91,0.742-3.387,2.683-3.063,5.508c0.325,2.762,2.438,13.41,7.641,13.41
		c0.215,0,0.512-0.054,0.774-0.086c0.195,0.019,0.379,0.031,0.687,0.114v0.05c0.164,1.141,1.137,5.121,2.36,8.617
		c0.078,0.161,0.16,0.402,0.242,0.566c0.566,1.626,1.626,3.418,3.008,4.962c0.078,0.078,0.16,0.16,0.242,0.32
		c0.488,0.492,1.054,0.898,1.543,1.058v9.672c-1.137,1.054-5.199,4.305-12.434,8.047c-9.836,4.957-21.454,10.89-23.977,13.246
		c-2.031,1.786-4.547,5.524-6.582,10.402c-0.488,1.055-0.973,2.195-1.301,3.41c-0.406,1.062-0.73,2.195-1.054,3.336
		c-0.406,1.465-0.73,2.922-0.977,4.386c-0.57,2.926,1.219,5.688,4.066,6.422c16.414,4.14,36.813,6.664,58.918,6.664
		s42.504-2.524,58.922-6.746c2.844-0.73,4.633-3.414,4.062-6.34C226.418,318.615,226.09,317.158,225.687,315.694z" style="fill: rgb(0, 0, 0);"></path>
	<path class="st0" d="M65.016,382.291v0.778v0.16h181.312h8.125h192.531V128.772H65.016V382.291z M254.453,145.026H430.73v221.949
		H254.453V145.026z M81.27,145.026h165.058v221.434v0.515H81.27V145.026z" style="fill: rgb(0, 0, 0);"></path>
	<path class="st0" d="M457.629,63.756H54.289C24.301,63.756,0,88.135,0,118.123v275.832c0,29.906,24.301,54.289,54.289,54.289
		h403.34c29.988,0,54.371-24.382,54.371-54.289V118.123C512,88.135,487.617,63.756,457.629,63.756z M481.683,393.955
		c0,13.25-10.804,23.977-24.054,23.977H54.289c-13.246,0-23.976-10.726-23.976-23.977V118.123c0-13.246,10.73-23.89,23.976-23.89
		h403.34c13.25,0,24.054,10.644,24.054,23.89V393.955z" style="fill: rgb(0, 0, 0);"></path>
	<polygon class="st0" points="294.683,201.83 294.519,201.83 294.519,214.756 390.012,214.756 390.012,201.83 295.262,201.83 	" style="fill: rgb(0, 0, 0);"></polygon>
	<rect x="294.519" y="249.538" class="st0" width="95.493" height="13.003" style="fill: rgb(0, 0, 0);"></rect>
	<polygon class="st0" points="294.683,297.322 294.519,297.322 294.519,310.248 351.41,310.248 351.41,297.322 295.027,297.322 	" style="fill: rgb(0, 0, 0);"></polygon>
</g>
</svg>
