<!--?xml version="1.0" encoding="utf-8"?-->
<!-- Generator: Adobe Illustrator 19.1.1, SVG Export Plug-In . SVG Version: 6.00 Build 0)  -->
<svg version="1.1" id="_x31_0" xmlns="http://www.w3.org/2000/svg" xmlns:xlink="http://www.w3.org/1999/xlink" x="0px" y="0px" viewBox="0 0 512 512" style="width: 512px; height: 512px; opacity: 1;" xml:space="preserve">
<style type="text/css">
	.st0{fill:#374149;}
</style>
<g>
	<path class="st0" d="M96.226,15.328c-9.785,9.782-15.262,23.023-15.262,36.848V459.82c0,28.766,23.351,52.18,52.179,52.18h245.715
		c28.762,0,52.176-23.414,52.176-52.18V52.242c0-28.828-23.414-52.176-52.176-52.176L133.144,0
		C119.316,0,106.011,5.543,96.226,15.328z M274.722,459.82c-4.57,5.219-11.285,8.481-18.722,8.481
		c-7.434,0-14.153-3.262-18.719-8.481c-3.785-4.367-6.129-10.042-6.129-16.304c0-13.696,11.153-24.786,24.848-24.786
		c13.699,0,24.785,11.09,24.785,24.786C280.785,449.778,278.504,455.453,274.722,459.82z M378.859,52.242v330.617H133.144V52.176
		l245.192,0.066H378.859z" style="fill: rgb(0, 0, 0);"></path>
</g>
</svg>
